<svg id="svg2" xmlns:rdf="http://www.w3.org/1999/02/22-rdf-syntax-ns#" xmlns="http://www.w3.org/2000/svg" height="24" width="24" version="1.1" xmlns:cc="http://creativecommons.org/ns#" xmlns:dc="http://purl.org/dc/elements/1.1/">
<metadata id="metadata10">
<rdf:RDF>
<cc:Work rdf:about="">
<dc:format>image/svg+xml</dc:format>
<dc:type rdf:resource="http://purl.org/dc/dcmitype/StillImage"/>
<dc:title/>
</cc:Work>
</rdf:RDF>
</metadata>
<path id="path3952" fill="#FFF" d="M12,4c-4.111,0-7.5176,3.1034-7.9688,7.094l5.75,3.312c0.4688,0.277,0.6098,0.893,0.3438,1.344-0.2665,0.451-0.875,0.59-1.3438,0.312l-4.6874-2.937c0.5484,3.884,3.871,6.875,7.9062,6.875,4.418,0,8-3.582,8-8,0-4.4183-3.582-8-8-8zm2.969,3.0625c2.039,0,3.687,1.6485,3.687,3.6875,0,1.488-0.857,2.759-2.125,3.344v0.031l-0.125,0.031c-0.269,0.114-0.546,0.172-0.844,0.219,0,0-1.749,0.26-2.5,0.687-0.808,0.461-2,1.938-2,1.938l-0.187,0.156c-0.43,0.359-0.9586,0.594-1.5625,0.594-1.2165,0-2.256-0.908-2.4687-2.062l1.1874,0.718c0.3148,0.353,0.771,0.563,1.2813,0.563,0.9495,0,1.7185-0.77,1.7185-1.719,0-0.585-0.303-1.096-0.75-1.406-0.014-0.013-0.016-0.019-0.031-0.032-0.061-0.05-0.148-0.083-0.219-0.124l-1.4685-0.876c0.3905-0.235,1.0256-0.599,1.375-0.968,0.7695-0.814,1.7815-2.844,1.7815-2.844,0.625-1.1509,1.848-1.9375,3.25-1.9375zm0,1.1875c-1.389,0-2.5,1.1197-2.5,2.5,0,1.38,1.111,2.5,2.5,2.5s2.5-1.12,2.5-2.5c0-1.3803-1.111-2.5-2.5-2.5zm0,1c0.831,0,1.5,0.6747,1.5,1.5,0,0.825-0.669,1.5-1.5,1.5-0.832,0-1.5-0.675-1.5-1.5,0-0.8253,0.668-1.5,1.5-1.5z"/>
</svg>
