<?xml version="1.0" encoding="UTF-8" standalone="no"?>
<!-- Created with Inkscape (http://www.inkscape.org/) -->

<svg
   xmlns:dc="http://purl.org/dc/elements/1.1/"
   xmlns:cc="http://creativecommons.org/ns#"
   xmlns:rdf="http://www.w3.org/1999/02/22-rdf-syntax-ns#"
   xmlns:svg="http://www.w3.org/2000/svg"
   xmlns="http://www.w3.org/2000/svg"
   xmlns:xlink="http://www.w3.org/1999/xlink"
   xmlns:sodipodi="http://sodipodi.sourceforge.net/DTD/sodipodi-0.dtd"
   xmlns:inkscape="http://www.inkscape.org/namespaces/inkscape"
   version="1.1"
   width="48"
   height="48"
   id="svg4031"
   inkscape:version="0.48.4 r9939"
   sodipodi:docname="rstudio.svg">
  <sodipodi:namedview
     pagecolor="#ffffff"
     bordercolor="#666666"
     borderopacity="1"
     objecttolerance="10"
     gridtolerance="10"
     guidetolerance="10"
     inkscape:pageopacity="0"
     inkscape:pageshadow="2"
     inkscape:window-width="1920"
     inkscape:window-height="1022"
     id="namedview48"
     showgrid="false"
     inkscape:zoom="6.9532167"
     inkscape:cx="15.444364"
     inkscape:cy="5.231537"
     inkscape:window-x="0"
     inkscape:window-y="30"
     inkscape:window-maximized="1"
     inkscape:current-layer="svg4031"
     inkscape:snap-bbox="true"
     inkscape:snap-bbox-midpoints="true" />
  <defs
     id="defs4033">
    <linearGradient
       id="linearGradient4011">
      <stop
         id="stop4013"
         style="stop-color:#ffffff;stop-opacity:1"
         offset="0" />
      <stop
         id="stop4015"
         style="stop-color:#ffffff;stop-opacity:0.23529412"
         offset="0.507761" />
      <stop
         id="stop4017"
         style="stop-color:#ffffff;stop-opacity:0.15686275"
         offset="0.83456558" />
      <stop
         id="stop4019"
         style="stop-color:#ffffff;stop-opacity:0.39215687"
         offset="1" />
    </linearGradient>
    <linearGradient
       id="linearGradient3820-7-2-1">
      <stop
         id="stop3822-2-6-3"
         style="stop-color:#3d3d3d;stop-opacity:1"
         offset="0" />
      <stop
         id="stop3864-8-7-7"
         style="stop-color:#686868;stop-opacity:0.49803922"
         offset="0.5" />
      <stop
         id="stop3824-1-2-5"
         style="stop-color:#686868;stop-opacity:0"
         offset="1" />
    </linearGradient>
    <radialGradient
       id="radialGradient3871"
       fx="-4.1149855"
       gradientUnits="userSpaceOnUse"
       cy="8.4497995"
       cx="11.653256"
       gradientTransform="matrix(-1.7030133e-7,2.7986346,-2.6367191,-1.9276587e-7,86.77997,14.65803)"
       r="20"
       fy="8.4497995">
      <stop
         id="stop3780"
         stop-color="#409ee4"
         offset="0"
         style="stop-color:#8abbee;stop-opacity:1;" />
      <stop
         style="stop-color:#639ae8;stop-opacity:1;"
         offset="0.25"
         stop-color="#409ee4"
         id="stop3947" />
      <stop
         style="stop-color:#2b5ee1;stop-opacity:1;"
         offset="0.5"
         stop-color="#409ee4"
         id="stop3945" />
      <stop
         id="stop3786"
         stop-color="#3f70de"
         offset="1"
         style="stop-color:#1f33cb;stop-opacity:1;" />
    </radialGradient>
    <linearGradient
       inkscape:collect="always"
       xlink:href="#linearGradient4011"
       id="linearGradient3134"
       gradientUnits="userSpaceOnUse"
       gradientTransform="matrix(1.054054,0,0,1.054054,-51.611001,-2.7279009)"
       x1="71.204407"
       y1="6.2375584"
       x2="71.204407"
       y2="44.340794" />
    <radialGradient
       inkscape:collect="always"
       xlink:href="#linearGradient3820-7-2-1"
       id="radialGradient3140"
       gradientUnits="userSpaceOnUse"
       gradientTransform="matrix(0.27083381,0,0,0.08762273,-2.855072,25.187228)"
       cx="99.157013"
       cy="186.17059"
       fx="99.157013"
       fy="186.17059"
       r="62.769119" />
    <linearGradient
       gradientTransform="translate(-1.2729137,-0.44757826)"
       id="linearGradient3795-5"
       y2="117.75"
       gradientUnits="userSpaceOnUse"
       y1="14.893"
       x2="65.727997"
       x1="65.727997">
      <stop
         id="stop4248-2"
         stop-color="#FFF"
         offset="0" />
      <stop
         id="stop4250-2"
         stop-color="#FFF"
         stop-opacity="0.23529412"
         offset="0.23521" />
      <stop
         id="stop4252-3"
         stop-color="#FFF"
         stop-opacity="0.15686275"
         offset="0.76405" />
      <stop
         id="stop4254-9"
         stop-color="#FFF"
         stop-opacity="0.39215687"
         offset="1" />
    </linearGradient>
    <radialGradient
       id="radialGradient3871-2"
       fx="-4.1149855"
       gradientUnits="userSpaceOnUse"
       cy="8.4497995"
       cx="11.653256"
       gradientTransform="matrix(-1.7030133e-7,2.7986346,-2.6367191,-1.9276587e-7,86.77997,14.65803)"
       r="20"
       fy="8.4497995">
      <stop
         id="stop3780-0"
         stop-color="#409ee4"
         offset="0"
         style="stop-color:#4091e4;stop-opacity:1;" />
      <stop
         style="stop-color:#3f84e2;stop-opacity:1;"
         offset="0.25"
         stop-color="#409ee4"
         id="stop3947-2" />
      <stop
         style="stop-color:#2c61e1;stop-opacity:1;"
         offset="0.5"
         stop-color="#409ee4"
         id="stop3945-3" />
      <stop
         id="stop3786-0"
         stop-color="#3f70de"
         offset="1"
         style="stop-color:#2940de;stop-opacity:1;" />
    </radialGradient>
    <radialGradient
       r="20.396999"
       cy="3.99"
       cx="23.896"
       gradientTransform="matrix(0,2.8885,-3.8128,0,39.213,-65.95)"
       gradientUnits="userSpaceOnUse"
       id="radialGradient3068"
       xlink:href="#radialGradient3871"
       inkscape:collect="always" />
    <radialGradient
       inkscape:collect="always"
       xlink:href="#b"
       id="radialGradient3049"
       gradientUnits="userSpaceOnUse"
       gradientTransform="matrix(0,2.8885,-3.8128,0,39.213,-65.95)"
       cx="23.896"
       cy="3.99"
       r="20.396999" />
    <radialGradient
       id="b"
       gradientUnits="userSpaceOnUse"
       cy="3.99"
       cx="23.896"
       gradientTransform="matrix(0,2.8885,-3.8128,0,39.213,-65.95)"
       r="20.396999">
      <stop
         stop-color="#b1e198"
         offset="0"
         id="stop16" />
      <stop
         stop-color="#71c586"
         offset=".26238"
         id="stop18" />
      <stop
         stop-color="#04a171"
         offset=".66094"
         id="stop20" />
      <stop
         stop-color="#108562"
         offset="1"
         id="stop22" />
    </radialGradient>
    <radialGradient
       r="20.396999"
       cy="3.99"
       cx="23.896"
       gradientTransform="matrix(0,2.8885,-3.8128,0,39.213001,-65.95)"
       gradientUnits="userSpaceOnUse"
       id="radialGradient3087"
       xlink:href="#b"
       inkscape:collect="always" />
  </defs>
  <metadata
     id="metadata4036">
    <rdf:RDF>
      <cc:Work
         rdf:about="">
        <dc:format>image/svg+xml</dc:format>
        <dc:type
           rdf:resource="http://purl.org/dc/dcmitype/StillImage" />
        <dc:title></dc:title>
      </cc:Work>
    </rdf:RDF>
  </metadata>
  <path
     inkscape:connector-curvature="0"
     d="m 40.999999,41.499999 a 17,5.4999999 0 1 1 -33.999999,0 17,5.4999999 0 1 1 33.999999,0 z"
     id="path3818-0-5"
     style="fill:url(#radialGradient3140);fill-opacity:1;stroke:none" />
  <path
     inkscape:connector-curvature="0"
     id="path45"
     d="M 24,3.5 C 12.689,3.5 3.5,12.689 3.5,24 3.5,35.311 12.689,44.5 24,44.5 35.311,44.5 44.5,35.311 44.5,24 44.5,12.689 35.311,3.5 24,3.5 z"
     style="color:#000000;fill:url(#radialGradient3068);fill-opacity:1.0" />
  <path
     inkscape:connector-curvature="0"
     d="m 43.5,23.999308 c 0,10.7699 -8.73109,19.50069 -19.499753,19.50069 -10.769649,0 -19.5002474,-8.730889 -19.5002474,-19.50069 0,-10.769402 8.7305984,-19.4993078 19.5002474,-19.4993078 C 34.76891,4.5000002 43.5,13.229906 43.5,23.999308 l 0,0 z"
     id="path8655"
     style="opacity:0.5;color:#000000;fill:none;stroke:url(#linearGradient3134);stroke-width:1;stroke-linecap:round;stroke-linejoin:round;stroke-miterlimit:4;stroke-opacity:1;stroke-dasharray:none;stroke-dashoffset:0;marker:none;visibility:visible;display:inline;overflow:visible;enable-background:accumulate" />
  <path
     inkscape:connector-curvature="0"
     d="m 24.000003,3.499998 c -11.311193,0 -20.5000034,9.188806 -20.5000034,20.5 0,11.311194 9.1888104,20.500005 20.5000034,20.500002 11.311188,0 20.500008,-9.188808 20.499997,-20.500002 0,-11.311194 -9.188809,-20.5 -20.499997,-20.5 z"
     id="path2555-6"
     style="opacity:0.5;color:#000000;fill:none;stroke:#000000;stroke-width:1;stroke-linecap:round;stroke-linejoin:round;stroke-miterlimit:4;stroke-opacity:1;stroke-dasharray:none;stroke-dashoffset:0;marker:none;visibility:visible;display:inline;overflow:visible;enable-background:accumulate" />
  <path
     style="fill:#000000;fill-opacity:1;stroke:#000000;opacity:0.14999999999999999;stroke-width:2;stroke-miterlimit:4;stroke-dasharray:none;stroke-opacity:1;stroke-linejoin:round"
     d="m 23.28817,14.344236 c -0.957823,0.02206 -2.073258,0.100597 -3.264723,0.209435 -1.713529,0.12274 -3.436112,0.122042 -5.14964,-0.110877 l 0,1.847957 c 0.92574,0.05673 1.459169,0.166956 2.956731,0.160156 l 0,17.11208 -2.956731,0 0,1.971154 8.525241,0 0,-1.971154 -3.375601,0 0,-7.71214 3.301682,0 6.517128,9.683294 3.819111,0 0,-1.971154 -2.353065,0 -5.543871,-8.044772 C 30.79308,24.818281 33.531689,16.21906 25.616596,14.479753 25.04519,14.358283 24.245994,14.322179 23.28817,14.344236 z m 0.307993,2.032753 c 0.623519,0.0041 1.268648,0.03302 1.872596,0.07392 2.42619,0.164311 5.384041,6.832573 -2.402344,7.551983 l -3.042968,0 0,-7.515024 c 0,0 1.70216,-0.123254 3.572716,-0.110877 z"
     id="path3951"
     inkscape:connector-curvature="0" />
  <path
     inkscape:connector-curvature="0"
     id="path3949"
     d="m 23.28817,14.344236 c -0.957823,0.02206 -2.073258,0.100597 -3.264723,0.209435 -1.713529,0.12274 -3.436112,0.122042 -5.14964,-0.110877 l 0,1.847957 c 0.92574,0.05673 1.459169,0.166956 2.956731,0.160156 l 0,17.11208 -2.956731,0 0,1.971154 8.525241,0 0,-1.971154 -3.375601,0 0,-7.71214 3.301682,0 6.517128,9.683294 3.819111,0 0,-1.971154 -2.353065,0 -5.543871,-8.044772 C 30.79308,24.818281 33.531689,16.21906 25.616596,14.479753 25.04519,14.358283 24.245994,14.322179 23.28817,14.344236 z m 0.307993,2.032753 c 0.623519,0.0041 1.268648,0.03302 1.872596,0.07392 2.42619,0.164311 5.384041,6.832573 -2.402344,7.551983 l -3.042968,0 0,-7.515024 c 0,0 1.70216,-0.123254 3.572716,-0.110877 z"
     style="fill:#000000;fill-opacity:1;stroke:none;opacity:0.3" />
  <path
     style="fill:#fafafa;fill-opacity:1;stroke:none"
     d="m 23.28817,13.344236 c -0.957823,0.02206 -2.073258,0.100597 -3.264723,0.209435 -1.713529,0.12274 -3.436112,0.122042 -5.14964,-0.110877 l 0,1.847957 c 0.92574,0.05673 1.459169,0.166956 2.956731,0.160156 l 0,17.11208 -2.956731,0 0,1.971154 8.525241,0 0,-1.971154 -3.375601,0 0,-7.71214 3.301682,0 6.517128,9.683294 3.819111,0 0,-1.971154 -2.353065,0 -5.543871,-8.044772 C 30.79308,23.818281 33.531689,15.21906 25.616596,13.479753 25.04519,13.358283 24.245994,13.322179 23.28817,13.344236 z m 0.307993,2.032753 c 0.623519,0.0041 1.268648,0.03302 1.872596,0.07392 2.42619,0.164311 5.384041,6.832573 -2.402344,7.551983 l -3.042968,0 0,-7.515024 c 0,0 1.70216,-0.123254 3.572716,-0.110877 z"
     id="path3912"
     inkscape:connector-curvature="0" />
</svg>
