<?xml version="1.0" encoding="UTF-8" standalone="no"?>
<!-- Created with Inkscape (http://www.inkscape.org/) -->

<svg
   xmlns:dc="http://purl.org/dc/elements/1.1/"
   xmlns:cc="http://creativecommons.org/ns#"
   xmlns:rdf="http://www.w3.org/1999/02/22-rdf-syntax-ns#"
   xmlns:svg="http://www.w3.org/2000/svg"
   xmlns="http://www.w3.org/2000/svg"
   xmlns:xlink="http://www.w3.org/1999/xlink"
   xmlns:sodipodi="http://sodipodi.sourceforge.net/DTD/sodipodi-0.dtd"
   xmlns:inkscape="http://www.inkscape.org/namespaces/inkscape"
   version="1.1"
   width="48"
   height="48"
   id="svg6649"
   inkscape:version="0.48.4 r9939"
   sodipodi:docname="viewnior.svg">
  <sodipodi:namedview
     pagecolor="#ffffff"
     bordercolor="#666666"
     borderopacity="1"
     objecttolerance="10"
     gridtolerance="10"
     guidetolerance="10"
     inkscape:pageopacity="0"
     inkscape:pageshadow="2"
     inkscape:window-width="1920"
     inkscape:window-height="1022"
     id="namedview45"
     showgrid="false"
     inkscape:zoom="9.8333334"
     inkscape:cx="-21.394533"
     inkscape:cy="11.953451"
     inkscape:window-x="0"
     inkscape:window-y="30"
     inkscape:window-maximized="1"
     inkscape:current-layer="svg6649"
     showguides="true"
     inkscape:guide-bbox="true"
     inkscape:object-nodes="true"
     inkscape:snap-global="false">
    <sodipodi:guide
       orientation="0,1"
       position="13.806559,43"
       id="guide3067" />
    <sodipodi:guide
       orientation="0,1"
       position="12.224558,3"
       id="guide3069" />
    <sodipodi:guide
       orientation="1,0"
       position="24,32.215305"
       id="guide3071" />
  </sodipodi:namedview>
  <defs
     id="defs6651">
    <linearGradient
       gradientTransform="matrix(0.37859676,0,0,0.37864079,-0.230168,-0.36893215)"
       inkscape:collect="always"
       xlink:href="#linearGradient3957"
       id="linearGradient3963"
       x1="84.28125"
       y1="15.5"
       x2="85.152542"
       y2="120.13559"
       gradientUnits="userSpaceOnUse" />
    <linearGradient
       id="linearGradient3957">
      <stop
         style="stop-color:#e55454;stop-opacity:1"
         offset="0"
         id="stop3959" />
      <stop
         id="stop3967"
         offset="0.31022859"
         style="stop-color:#e13f3f;stop-opacity:1;" />
      <stop
         id="stop3965"
         offset="0.59593451"
         style="stop-color:#c71f1f;stop-opacity:1;" />
      <stop
         style="stop-color:#c41e1e;stop-opacity:1;"
         offset="1"
         id="stop3961" />
    </linearGradient>
    <linearGradient
       id="linearGradient3820-7-2-3-6-3">
      <stop
         offset="0"
         style="stop-color:#3d3d3d;stop-opacity:1"
         id="stop3822-2-6-3-7-6" />
      <stop
         offset="0.5"
         style="stop-color:#686868;stop-opacity:0.49803922"
         id="stop3864-8-7-0-2-8" />
      <stop
         offset="1"
         style="stop-color:#686868;stop-opacity:0"
         id="stop3824-1-2-6-7-0" />
    </linearGradient>
    <radialGradient
       r="62.769119"
       fy="186.17059"
       fx="99.157013"
       cy="186.17059"
       cx="99.157013"
       gradientTransform="matrix(0.21510214,0,0,0.04482061,2.373794,35.606615)"
       gradientUnits="userSpaceOnUse"
       id="radialGradient4025"
       xlink:href="#linearGradient3820-7-2-3-6-3"
       inkscape:collect="always" />
    <linearGradient
       inkscape:collect="always"
       xlink:href="#linearGradient3957"
       id="linearGradient3795"
       gradientUnits="userSpaceOnUse"
       gradientTransform="matrix(0.37859676,0,0,0.37864079,-0.230168,-0.36893215)"
       x1="84.28125"
       y1="15.5"
       x2="85.152542"
       y2="120.13559" />
    <radialGradient
       inkscape:collect="always"
       xlink:href="#linearGradient3820-7-2-3-6-3"
       id="radialGradient3798"
       gradientUnits="userSpaceOnUse"
       gradientTransform="matrix(0.21510214,0,0,0.04482061,2.373794,35.606615)"
       cx="99.157013"
       cy="186.17059"
       fx="99.157013"
       fy="186.17059"
       r="62.769119" />
  </defs>
  <metadata
     id="metadata6654">
    <rdf:RDF>
      <cc:Work
         rdf:about="">
        <dc:format>image/svg+xml</dc:format>
        <dc:type
           rdf:resource="http://purl.org/dc/dcmitype/StillImage" />
        <dc:title />
      </cc:Work>
    </rdf:RDF>
  </metadata>
  <path
     style="fill:url(#radialGradient3798);fill-opacity:1;stroke:none;display:inline"
     id="path3818-0-8-2"
     d="m 37.20445,43.950892 a 13.501772,2.8133497 0 0 1 -27.003544,0 13.501772,2.8133497 0 1 1 27.003544,0 z"
     inkscape:connector-curvature="0" />
  <path
     style="fill:url(#linearGradient3795);fill-opacity:1;stroke:#000000;stroke-width:0;stroke-linecap:butt;stroke-linejoin:miter;stroke-miterlimit:4;stroke-opacity:1;stroke-dasharray:none"
     d="m 4.312993,5.5 13.62948,39 5.383172,0 1.34875,0 5.383174,0 0.503357,-1.440326 c -2.416216,-1.579008 -3.026957,-3.452948 -0.0441,-5.417646 -4.205474,-1.332269 -5.71572,-5.053458 0.109571,-6.2473 -2.331428,-4.158067 0.326855,-6.553272 4.461282,-3.307331 0.01915,-1.39263 -0.748217,-3.469001 1.922301,-3.481342 L 43.687048,5.5 31.678434,5.5 24.000017,31.531554 16.321601,5.5 z"
     id="path3169"
     inkscape:connector-curvature="0"
     sodipodi:nodetypes="ccccccccccccccc" />
  <path
     sodipodi:nodetypes="ccccccccccccccc"
     inkscape:connector-curvature="0"
     id="path3969"
     d="m 4.313004,5.5 13.629456,39 5.383162,0 1.348748,0 5.383164,0 0.503357,-1.440326 c -2.416211,-1.579008 -3.026953,-3.452948 -0.04409,-5.417646 -4.205467,-1.332269 -5.715708,-5.053458 0.109571,-6.2473 -2.331424,-4.158067 0.326855,-6.553272 4.461274,-3.307331 0.01915,-1.39263 -0.748215,-3.469001 1.922298,-3.481342 L 43.687004,5.5 31.678407,5.5 24,31.531554 16.321598,5.5 z"
     style="opacity:0.4;fill:none;stroke:#570404;stroke-width:0.99999988;stroke-linecap:butt;stroke-linejoin:miter;stroke-miterlimit:4;stroke-opacity:1;stroke-dasharray:none" />
  <path
     style="opacity:1;fill:none;stroke:#0009ff;stroke-width:1;stroke-linecap:butt;stroke-linejoin:miter;stroke-miterlimit:4;stroke-opacity:1;stroke-dasharray:none"
     d="m 18.621698,43.499991 c 3.704767,0 10.730102,0 10.730102,0 l 0.02036,-0.06464 c 0,0 -3.593304,-2.476143 -0.731333,-5.504818 -3.723783,-1.855506 -4.007594,-5.921851 0.580791,-7.200533 -1.76462,-4.284771 1.69782,-6.277988 4.78373,-4.518127 -0.01829,-0.646189 0.225152,-2.260691 2.292323,-2.553354 2.21227,-5.953061 4.163476,-11.916451 5.982304,-17.158522 -3.579503,0 -6.28693,0 -9.866431,0 C 29.858714,15.240885 26.555904,26.363955 24,35.104521 21.444095,26.363955 18.13865,15.240885 15.583821,6.4999994 12.004319,6.4999994 5.7,6.5 5.7,6.5 c 0,0 8.639963,24.671059 12.921698,36.999991 z"
     id="path3971"
     inkscape:connector-curvature="0"
     sodipodi:nodetypes="ccccccccccccc" />
</svg>
