<!-- Created with Inkscape (http://www.inkscape.org/) -->
<svg xmlns:rdf="http://www.w3.org/1999/02/22-rdf-syntax-ns#" xmlns="http://www.w3.org/2000/svg" height="16" width="16" version="1.1" xmlns:cc="http://creativecommons.org/ns#" xmlns:xlink="http://www.w3.org/1999/xlink" xmlns:dc="http://purl.org/dc/elements/1.1/">
<defs>
<linearGradient id="linearGradient3836" y2="1.3339" gradientUnits="userSpaceOnUse" x2="7.9828" gradientTransform="matrix(0.94131671,0,0,1.0021922,0.48563881,-0.29920325)" y1="14.636" x1="7.9828">
<stop stop-color="#1a1a1a" offset="0"/>
<stop stop-color="#CCC" offset="1"/>
</linearGradient>
</defs>
<metadata>
<rdf:RDF>
<cc:Work rdf:about="">
<dc:format>image/svg+xml</dc:format>
<dc:type rdf:resource="http://purl.org/dc/dcmitype/StillImage"/>
<dc:title/>
</cc:Work>
</rdf:RDF>
</metadata>
<path d="M1.8923,3.7027c-0.6011,1.4221-1.097,3.619-1.3719,6.4023-0.40203,5.7043,2.7867,4.6096,4.37,1.6795,1.0304-1.6013,1.0629-1.6177,3.1343-1.6164,2.1714,0.0014,2.0633-0.06462,3.383,2.0904,1.4684,2.7533,4.2979,3.0658,4.0965-1.5309-0.014-2.4772-0.593-5.1921-1.43-7.1487-1.164-2.4887-2.332-3.1252-4.1285-1.6202-0.8159,0.6022-1.0483,0.6991-1.7684,0.7343-0.8793,0.0431-1.1388-0.0457-2.0682-0.713-1.695-1.3049-2.8459-1.3477-4.2166,1.7233z" stroke-opacity="0.40883998" stroke="#c8c8c8" stroke-miterlimit="4" stroke-dasharray="none" stroke-width="0.97127765" fill="url(#linearGradient3836)"/>
<path d="m11.656,2.9429c0.68515,0,1.2406,0.55548,1.2406,1.2406,0,0.68515-0.55548,1.2406-1.2406,1.2406-0.68514,0-1.2406-0.55548-1.2406-1.2406,0-0.68515,0.55548-1.2406,1.2406-1.2406z" stroke-opacity="0.47058824" stroke="#000" stroke-miterlimit="4" stroke-dasharray="none" stroke-width="0.29999999999999999" fill="#FF0"/>
<path d="m5.4373,3.4887,0,1.6838,1.6838,0c0.98112,0.26289,1.0445,1.6032,0,1.8831h-1.6729v1.6466c-0.27898,1.0412-1.6991,0.95984-1.8809,0l-0.02629-1.6335h-1.6444c-0.90614-0.29121-0.92594-1.6196,0-1.8831h1.6707v-1.697c0.4279-0.90894,1.6418-0.77178,1.87,0z" stroke-opacity="0.47058823999999999" stroke="#000" stroke-miterlimit="4" stroke-dasharray="none" stroke-width="0.3" fill="#e6e6e6"/>
<path d="m10.002,4.9104c0.68514,0,1.2406,0.55548,1.2406,1.2406,0,0.68515-0.55549,1.2406-1.2406,1.2406-0.68515,0-1.2406-0.55548-1.2406-1.2406,0-0.68515,0.55548-1.2406,1.2406-1.2406z" stroke-opacity="0.47058824" stroke="#000" stroke-miterlimit="4" stroke-dasharray="none" stroke-width="0.29999999999999999" fill="#0FF"/>
<path d="m13.414,4.829c0.68515,0,1.2406,0.55548,1.2406,1.2406,0,0.68515-0.55548,1.2406-1.2406,1.2406-0.68514,0-1.2406-0.55548-1.2406-1.2406,0-0.68515,0.55548-1.2406,1.2406-1.2406z" stroke-opacity="0.46961324999999998" stroke="#000" stroke-miterlimit="4" stroke-dasharray="none" stroke-width="0.3" fill="#ff4600"/>
<path d="m11.697,6.6678c0.68515,0,1.2406,0.55548,1.2406,1.2406,0,0.68515-0.55548,1.2406-1.2406,1.2406-0.68514,0-1.2406-0.55548-1.2406-1.2406,0-0.68515,0.55548-1.2406,1.2406-1.2406z" stroke-opacity="0.47058824" stroke="#000" stroke-miterlimit="4" stroke-dasharray="none" stroke-width="0.29999999999999999" fill="#0F0"/>
<path opacity="0.59999999999999998" fill="none" d="m1.4943,5.6888c-0.63855,0.97182-1.1653,2.4732-1.4574,4.3752-0.42709,3.8981,2.9605,3.1501,4.6425,1.1477,1.0946-1.0943,1.1292-1.1055,3.3297-1.1046,2.3068,0.000935,2.1919-0.04416,3.5939,1.4285,1.5599,1.8815,4.5658,2.0951,4.3519-1.0462-0.016-1.6938-0.63-3.5491-1.519-4.8862-1.237-1.7007-2.478-2.1356-4.386-1.1072-0.8672,0.4115-1.114,0.4777-1.879,0.5018-0.9341,0.0295-1.2098-0.0312-2.1972-0.4872-1.8006-0.8917-3.0233-0.921-4.4795,1.1776z"/>
</svg>
