<!-- Created with Inkscape (http://www.inkscape.org/) -->
<svg id="svg3946" xmlns:rdf="http://www.w3.org/1999/02/22-rdf-syntax-ns#" xmlns="http://www.w3.org/2000/svg" height="24" width="24" version="1.1" xmlns:cc="http://creativecommons.org/ns#" xmlns:xlink="http://www.w3.org/1999/xlink" xmlns:dc="http://purl.org/dc/elements/1.1/">
<defs id="defs3948">
<linearGradient id="linearGradient3034" y2="44.341" gradientUnits="userSpaceOnUse" x2="71.204" gradientTransform="matrix(0.5135135,0,0,0.5135135,-24.836132,-1.021284)" y1="6.2376" x1="71.204">
<stop id="stop4013" stop-color="#FFF" offset="0"/>
<stop id="stop4015" stop-color="#FFF" stop-opacity="0.23529412" offset="0.50776"/>
<stop id="stop4017" stop-color="#FFF" stop-opacity="0.15686275" offset="0.83457"/>
<stop id="stop4019" stop-color="#FFF" stop-opacity="0.39215687" offset="1"/>
</linearGradient>
<radialGradient id="radialGradient3042" gradientUnits="userSpaceOnUse" cy="4.625" cx="62.625" gradientTransform="matrix(1.1294118,0,0,0.2823525,-58.729414,19.694118)" r="10.625">
<stop id="stop8840" stop-color="#000" offset="0"/>
<stop id="stop8842" stop-color="#000" stop-opacity="0" offset="1"/>
</radialGradient>
<radialGradient id="radialGradient3017" gradientUnits="userSpaceOnUse" cy="36.261" cx="0.98427" gradientTransform="matrix(-2.0106511e-8,1.1856182,-0.79016345,-1.3400124e-8,40.652003,-1.1736911)" r="20">
<stop id="stop4192" stop-color="#bebebe" offset="0"/>
<stop id="stop4194" stop-color="#969696" offset="0.26238"/>
<stop id="stop4196" stop-color="#8e8e8e" offset="0.70495"/>
<stop id="stop4198" stop-color="#666" offset="1"/>
</radialGradient>
<linearGradient id="linearGradient3847" y2="1.0299" gradientUnits="userSpaceOnUse" x2="11.975" y1="23.038" x1="12.02">
<stop id="stop3760-7-3" stop-color="#595959" offset="0"/>
<stop id="stop3762-8-4" stop-color="#919191" offset="1"/>
</linearGradient>
</defs>
<metadata id="metadata3951">
<rdf:RDF>
<cc:Work rdf:about="">
<dc:format>image/svg+xml</dc:format>
<dc:type rdf:resource="http://purl.org/dc/dcmitype/StillImage"/>
<dc:title/>
</cc:Work>
</rdf:RDF>
</metadata>
<path id="path8836" opacity="0.3" d="m24,21c0,1.6569-5.3726,3-12,3s-12-1.343-12-3,5.3726-3,12-3,12,1.3431,12,3z" fill-rule="evenodd" fill="url(#radialGradient3042)"/>
<path id="path38" stroke-linejoin="round" style="color:#000000;" d="M12,1.5c-5.7935,0-10.5,4.7065-10.5,10.5,0,5.794,4.7065,10.5,10.5,10.5,5.794,0,10.5-4.706,10.5-10.5,0-5.7935-4.706-10.5-10.5-10.5z" stroke-opacity="0.38823529000000001" stroke="url(#linearGradient3847)" stroke-linecap="round" fill="url(#radialGradient3017)"/>
<path id="path8655-6" opacity="0.5" stroke-linejoin="round" style="enable-background:accumulate;color:#000000;" d="M21.5,12c0,5.247-4.254,9.5-9.5,9.5-5.2466,0-9.5-4.254-9.5-9.5,0-5.2466,4.2534-9.4997,9.5001-9.4997,5.2463,0,9.4999,4.253,9.4999,9.4997z" stroke-dashoffset="0" stroke="url(#linearGradient3034)" stroke-linecap="round" stroke-miterlimit="4" stroke-dasharray="none" stroke-width="0.99999988" fill="none"/>
</svg>
