<?xml version="1.0" encoding="UTF-8" standalone="no"?>
<svg
   xmlns:dc="http://purl.org/dc/elements/1.1/"
   xmlns:cc="http://creativecommons.org/ns#"
   xmlns:rdf="http://www.w3.org/1999/02/22-rdf-syntax-ns#"
   xmlns:svg="http://www.w3.org/2000/svg"
   xmlns="http://www.w3.org/2000/svg"
   xmlns:xlink="http://www.w3.org/1999/xlink"
   xmlns:sodipodi="http://sodipodi.sourceforge.net/DTD/sodipodi-0.dtd"
   xmlns:inkscape="http://www.inkscape.org/namespaces/inkscape"
   height="128"
   width="128"
   version="1.1"
   id="svg2"
   inkscape:version="0.48.4 r9939"
   sodipodi:docname="folder-insync.svg">
  <metadata
     id="metadata93">
    <rdf:RDF>
      <cc:Work
         rdf:about="">
        <dc:format>image/svg+xml</dc:format>
        <dc:type
           rdf:resource="http://purl.org/dc/dcmitype/StillImage" />
      </cc:Work>
    </rdf:RDF>
  </metadata>
  <sodipodi:namedview
     pagecolor="#ffffff"
     bordercolor="#666666"
     borderopacity="1"
     objecttolerance="10"
     gridtolerance="10"
     guidetolerance="10"
     inkscape:pageopacity="0"
     inkscape:pageshadow="2"
     inkscape:window-width="1920"
     inkscape:window-height="1025"
     id="namedview91"
     showgrid="false"
     inkscape:zoom="7.375"
     inkscape:cx="72.262057"
     inkscape:cy="55.905471"
     inkscape:window-x="0"
     inkscape:window-y="30"
     inkscape:window-maximized="1"
     inkscape:current-layer="svg2" />
  <defs
     id="defs4">
    <linearGradient
       id="c"
       y2="44.261"
       gradientUnits="userSpaceOnUse"
       x2="97.539"
       gradientTransform="matrix(2.6658,0,0,2.7171,-143.33,-69.199)"
       y1="16.962"
       x1="97.539">
      <stop
         stop-color="#fff"
         offset="0"
         id="stop7" />
      <stop
         stop-color="#fff"
         stop-opacity=".23529"
         offset=".022122"
         id="stop9" />
      <stop
         stop-color="#fff"
         stop-opacity=".15686"
         offset=".97910"
         id="stop11" />
      <stop
         stop-color="#fff"
         stop-opacity=".39216"
         offset="1"
         id="stop13" />
    </linearGradient>
    <linearGradient
       id="d"
       y2="36.599"
       gradientUnits="userSpaceOnUse"
       x2="22.935"
       gradientTransform="matrix(3.0368,0,0,2.691,-8.8831,-65.365)"
       y1="49.629"
       x1="22.935">
      <stop
         stop-color="#0a0a0a"
         stop-opacity=".498"
         offset="0"
         id="stop16" />
      <stop
         stop-color="#0a0a0a"
         stop-opacity="0"
         offset="1"
         id="stop18" />
    </linearGradient>
    <linearGradient
       id="e"
       y2="119.06"
       gradientUnits="userSpaceOnUse"
       x2="-91"
       gradientTransform="matrix(1,0,0,1.0267,147,-70.187)"
       y1="44"
       x1="-91">
      <stop
         stop-color="#b4cee1"
         offset="0"
         id="stop21" />
      <stop
         stop-color="#5d9fcd"
         offset="1"
         id="stop23" />
    </linearGradient>
    <linearGradient
       id="f"
       y2="609.51"
       gradientUnits="userSpaceOnUse"
       x2="302.86"
       gradientTransform="matrix(0.21342,0,0,0.066417,-13.148,75.519)"
       y1="366.65"
       x1="302.86">
      <stop
         stop-opacity="0"
         offset="0"
         id="stop26" />
      <stop
         offset=".5"
         id="stop28" />
      <stop
         stop-opacity="0"
         offset="1"
         id="stop30" />
    </linearGradient>
    <radialGradient
       id="b"
       gradientUnits="userSpaceOnUse"
       cy="486.65"
       cx="605.71"
       gradientTransform="matrix(0.082775,0,0,0.066417,65.629,75.519)"
       r="117.14">
      <stop
         offset="0"
         id="stop33" />
      <stop
         stop-opacity="0"
         offset="1"
         id="stop35" />
    </radialGradient>
    <radialGradient
       id="a"
       gradientUnits="userSpaceOnUse"
       cy="486.65"
       cx="605.71"
       gradientTransform="matrix(-0.082775,0,0,0.066417,62.348,75.519)"
       r="117.14">
      <stop
         offset="0"
         id="stop38" />
      <stop
         stop-opacity="0"
         offset="1"
         id="stop40" />
    </radialGradient>
    <linearGradient
       id="g"
       y2="44.261"
       gradientUnits="userSpaceOnUse"
       x2="97.539"
       gradientTransform="matrix(2.6658,0,0,2.6469,-143.33,-66.05)"
       y1="8.8103"
       x1="97.539">
      <stop
         stop-color="#fff"
         offset="0"
         id="stop43" />
      <stop
         stop-color="#fff"
         stop-opacity=".23529"
         offset=".10883"
         id="stop45" />
      <stop
         stop-color="#fff"
         stop-opacity=".15686"
         offset=".97910"
         id="stop47" />
      <stop
         stop-color="#fff"
         stop-opacity=".39216"
         offset="1"
         id="stop49" />
    </linearGradient>
    <linearGradient
       id="h"
       y2="3.6337"
       gradientUnits="userSpaceOnUse"
       x2="-51.786"
       gradientTransform="matrix(2.1684,0,0,2.2465,141.95,-68.59)"
       y1="53.514"
       x1="-51.786">
      <stop
         stop-opacity=".32174"
         offset="0"
         id="stop52" />
      <stop
         stop-opacity=".27826"
         offset="1"
         id="stop54" />
    </linearGradient>
    <linearGradient
       id="i"
       y2="16.998"
       gradientUnits="userSpaceOnUse"
       x2="62.989"
       gradientTransform="matrix(2.7209,0,0,2.6723,-117.22,-66.214)"
       y1="14.091"
       x1="62.989">
      <stop
         stop-color="#f9f9f9"
         offset="0"
         id="stop57" />
      <stop
         stop-color="#c9c9c9"
         offset="1"
         id="stop59" />
    </linearGradient>
    <linearGradient
       inkscape:collect="always"
       xlink:href="#c"
       id="linearGradient3072"
       gradientUnits="userSpaceOnUse"
       gradientTransform="matrix(2.6658,0,0,2.7171,-143.33,-5.199)"
       x1="97.539"
       y1="16.962"
       x2="97.539"
       y2="44.261" />
    <linearGradient
       inkscape:collect="always"
       xlink:href="#d"
       id="linearGradient3075"
       gradientUnits="userSpaceOnUse"
       gradientTransform="matrix(3.0368,0,0,2.691,-8.8831,-1.365)"
       x1="22.935"
       y1="49.629"
       x2="22.935"
       y2="36.599" />
    <linearGradient
       inkscape:collect="always"
       xlink:href="#e"
       id="linearGradient3078"
       gradientUnits="userSpaceOnUse"
       gradientTransform="matrix(1,0,0,1.0267,147,-6.187)"
       x1="-91"
       y1="44"
       x2="-91"
       y2="119.06" />
  </defs>
  <g
     id="g63"
     transform="translate(0,64)">
    <path
       inkscape:connector-curvature="0"
       id="path65"
       d="m 13,-42.969 c -1.108,0 -2,0.892 -2,2 v 5.9688 H 8 c -1.108,0 -2,0.892 -2,2 v 11 c 0,1.108 0.892,2 2,2 h 112 c 1.108,0 2,-0.892 2,-2 v -11 c 0,-1.108 -0.892,-2 -2,-2 H 57 v -5.9688 c 0,-1.108 -0.892,-2 -2,-2 H 13 z"
       style="color:#000000;fill:url(#i)" />
    <path
       inkscape:connector-curvature="0"
       id="path67"
       d="m 13.663,-43.5 c -1.8782,0.0205 -3.1628,0.9143 -3.1628,2.6722 v 5.3274 c -0.9606,0 -1.4771,-0.003 -2.1044,0 -1.6786,0.008 -2.8776,0.94491 -2.8776,2.833 0.0936,27.498 -0.018,28.922 -0.018,31.257 3.9058,0 117,-9.8866 117,-14.142 v -17.142 c 0,-1.758 -1.1579,-2.8256 -3.036,-2.8051 h -61.964 v -5.1989 c 0,-1.758 -1.1874,-2.8008 -2.9483,-2.8008 h -40.889 z"
       style="opacity:0.8;color:#000000;fill:none;stroke:url(#h)" />
    <path
       inkscape:connector-curvature="0"
       id="path69"
       d="m 13.5,-42.5 c -1.108,0 -2,0.892 -2,2 v 6 h -3 c -1.108,0 -2,0.892 -2,2 v 11 c 0,1.108 0.892,2 2,2 h 111 c 1.108,0 2,-0.892 2,-2 v -11 c 0,-1.108 -0.892,-2 -2,-2 h -63 v -6 c 0,-1.108 -0.892,-2 -2,-2 h -41 z"
       style="color:#000000;fill:none;stroke:url(#g);stroke-linecap:round;stroke-linejoin:round" />
  </g>
  <g
     id="g71"
     transform="matrix(1.0027,0,0,0.99195,-0.16331,6.934)">
    <rect
       style="opacity:0.3;fill:url(#f)"
       id="rect73"
       x="12.463"
       y="99.870003"
       width="103.05"
       height="16.129999" />
    <path
       inkscape:connector-curvature="0"
       style="opacity:0.3;fill:url(#b)"
       id="path75"
       d="M 115.51,99.871 V 116 c 4.2627,0.0304 10.305,-3.6137 10.305,-8.0655 0,-4.4518 -4.7569,-8.0634 -10.305,-8.0634 z" />
    <path
       inkscape:connector-curvature="0"
       style="opacity:0.3;fill:url(#a)"
       id="path77"
       d="M 12.463,99.871 V 116 c -4.2627,0.0304 -10.305,-3.6137 -10.305,-8.0655 0,-4.4518 4.7569,-8.0634 10.305,-8.0634 z" />
  </g>
  <path
     inkscape:connector-curvature="0"
     style="fill:url(#linearGradient3078)"
     id="path79"
     d="m 6.25,39.5 115.5,10e-4 c 1.6686,0 2.75,1.1838 2.75,2.6554 l -2.7165,71.781 c 0.0386,1.8621 -0.55015,2.6004 -2.4888,2.5614 l -109.93,-0.046 c -1.6686,0 -3.3512,-1.099 -3.3512,-2.5706 L 3.503,42.1572 c 0,-1.4717 1.0814,-2.6565 2.75,-2.6565 z" />
  <path
     inkscape:connector-curvature="0"
     style="opacity:0.5;fill:none;stroke:url(#linearGradient3072);stroke-linecap:round;stroke-linejoin:round"
     id="path83"
     d="m 6.25,40.5 c -2.8488,0.29656 -1.4093,3.7669 -1.6399,5.7202 0.78584,22.548 1.5747,45.096 2.3586,67.644 1.1887,2.4897 4.4301,1.282 6.6383,1.5743 35.235,0.0205 70.47,0.0412 105.71,0.0617 2.566,-0.16531 1.1572,-3.818 1.6536,-5.6556 0.85465,-22.569 2.5429,-67.571 2.5429,-67.571 0,-1.1621 -0.77992,-1.7731 -2.2074,-1.7731 H 6.2561 z" />
  <path
     style="opacity:0.3;fill:none;stroke:#000000;stroke-linecap:round;stroke-linejoin:round"
     inkscape:connector-curvature="0"
     id="path85"
     d="m 6.25,39.5 115.5,10e-4 c 1.6686,0 2.75,1.1838 2.75,2.6554 l -2.7165,71.781 c 0.0386,1.8621 -0.55015,2.6004 -2.4888,2.5614 l -109.93,-0.046 c -1.6686,0 -3.3512,-1.099 -3.3512,-2.5706 L 3.503,42.1572 c 0,-1.4717 1.0814,-2.6565 2.75,-2.6565 z" />
  <path
     inkscape:connector-curvature="0"
     style="opacity:0.4;fill:url(#linearGradient3075)"
     id="path81"
     d="m 5.7727,39 116.45,10e-4 c 1.6824,0 2.7727,1.1991 2.7727,2.6899 l -2.7389,72.713 c 0.0389,1.8863 -0.5547,2.6342 -2.5094,2.5946 l -110.83,-0.048 c -1.6824,0 -3.3788,-1.1132 -3.3788,-2.604 L 3.0071,41.6905 c 0,-1.4908 1.0903,-2.691 2.7727,-2.691 z" />
  <path
     style="image-rendering:optimizeQuality;shape-rendering:geometricPrecision"
     d="m57.73 55 17.039 30h16.328l-17.098-30h-16.27zm-3.1797 2.5625l-16.55 29.235 8.145 14.663 16.632-29.269-8.226-14.629zm3.45 31.438-8 14h33l7.6719-14h-32.672z"
     clip-rule="evenodd"
     id="path87"
     fill-rule="evenodd"
     fill="#fff"
     opacity=".3" />
  <path
     style="image-rendering:optimizeQuality;shape-rendering:geometricPrecision;fill-rule:evenodd"
     d="m57.73 54 17.039 30h16.328l-17.098-30h-16.27zm-3.1797 2.5625l-16.55 29.235 8.145 14.663 16.632-29.269-8.226-14.629zm3.45 31.438l-8 14h33l7.6719-14h-32.672z"
     clip-rule="evenodd"
     id="path89"
     fill-rule="evenodd"
     fill-opacity=".55294"
     fill="#175785" />
</svg>
