<?xml version="1.0" encoding="UTF-8" standalone="no"?>
<!-- Created with Inkscape (http://www.inkscape.org/) -->

<svg
   xmlns:dc="http://purl.org/dc/elements/1.1/"
   xmlns:cc="http://creativecommons.org/ns#"
   xmlns:rdf="http://www.w3.org/1999/02/22-rdf-syntax-ns#"
   xmlns:svg="http://www.w3.org/2000/svg"
   xmlns="http://www.w3.org/2000/svg"
   xmlns:xlink="http://www.w3.org/1999/xlink"
   version="1.1"
   width="128"
   height="128"
   id="svg28324">
  <defs
     id="defs28326">
    <linearGradient
       id="linearGradient8272">
      <stop
         id="stop8274"
         style="stop-color:#ffffff;stop-opacity:1"
         offset="0" />
      <stop
         id="stop8276"
         style="stop-color:#ffffff;stop-opacity:0.23529412"
         offset="0.0221225" />
      <stop
         id="stop8278"
         style="stop-color:#ffffff;stop-opacity:0.15686275"
         offset="0.97909725" />
      <stop
         id="stop8280"
         style="stop-color:#ffffff;stop-opacity:0.39215687"
         offset="1" />
    </linearGradient>
    <linearGradient
       id="linearGradient6129-963-697-142-998-580-273">
      <stop
         id="stop2661"
         style="stop-color:#0a0a0a;stop-opacity:0.498"
         offset="0" />
      <stop
         id="stop2663"
         style="stop-color:#0a0a0a;stop-opacity:0"
         offset="1" />
    </linearGradient>
    <linearGradient
       id="linearGradient4632-0-6-4">
      <stop
         id="stop4634-4-4-7"
         style="stop-color:#b4cee1;stop-opacity:1"
         offset="0" />
      <stop
         id="stop4636-3-1-5"
         style="stop-color:#5d9fcd;stop-opacity:1"
         offset="1" />
    </linearGradient>
    <linearGradient
       x1="302.85715"
       y1="366.64789"
       x2="302.85715"
       y2="609.50507"
       id="linearGradient22338"
       xlink:href="#linearGradient5048-585"
       gradientUnits="userSpaceOnUse"
       gradientTransform="matrix(0.2134205,0,0,0.06641689,-13.147881,75.518568)" />
    <linearGradient
       id="linearGradient5048-585">
      <stop
         id="stop2667"
         style="stop-color:#000000;stop-opacity:0"
         offset="0" />
      <stop
         id="stop2669"
         style="stop-color:#000000;stop-opacity:1"
         offset="0.5" />
      <stop
         id="stop2671"
         style="stop-color:#000000;stop-opacity:0"
         offset="1" />
    </linearGradient>
    <radialGradient
       cx="605.71429"
       cy="486.64789"
       r="117.14286"
       fx="605.71429"
       fy="486.64789"
       id="radialGradient22340"
       xlink:href="#linearGradient5060-179"
       gradientUnits="userSpaceOnUse"
       gradientTransform="matrix(0.08277507,0,0,0.06641689,65.628912,75.518568)" />
    <linearGradient
       id="linearGradient5060-179">
      <stop
         id="stop2675"
         style="stop-color:#000000;stop-opacity:1"
         offset="0" />
      <stop
         id="stop2677"
         style="stop-color:#000000;stop-opacity:0"
         offset="1" />
    </linearGradient>
    <radialGradient
       cx="605.71429"
       cy="486.64789"
       r="117.14286"
       fx="605.71429"
       fy="486.64789"
       id="radialGradient22342"
       xlink:href="#linearGradient5060-820"
       gradientUnits="userSpaceOnUse"
       gradientTransform="matrix(-0.08277505,0,0,0.06641689,62.347829,75.518568)" />
    <linearGradient
       id="linearGradient5060-820">
      <stop
         id="stop2681"
         style="stop-color:#000000;stop-opacity:1"
         offset="0" />
      <stop
         id="stop2683"
         style="stop-color:#000000;stop-opacity:0"
         offset="1" />
    </linearGradient>
    <linearGradient
       id="linearGradient9235">
      <stop
         id="stop9237"
         style="stop-color:#ffffff;stop-opacity:1"
         offset="0" />
      <stop
         id="stop9239"
         style="stop-color:#ffffff;stop-opacity:0.23529412"
         offset="0.1088333" />
      <stop
         id="stop9241"
         style="stop-color:#ffffff;stop-opacity:0.15686275"
         offset="0.97909725" />
      <stop
         id="stop9243"
         style="stop-color:#ffffff;stop-opacity:0.39215687"
         offset="1" />
    </linearGradient>
    <linearGradient
       id="linearGradient3104-8-8-97-4-6-11-5-5-1-0">
      <stop
         id="stop3106-5-4-3-5-0-2-1-0-1-2"
         style="stop-color:#000000;stop-opacity:0.32173914"
         offset="0" />
      <stop
         id="stop3108-4-3-7-8-2-0-7-9-4-9"
         style="stop-color:#000000;stop-opacity:0.27826086"
         offset="1" />
    </linearGradient>
    <linearGradient
       id="linearGradient6404-7-5">
      <stop
         id="stop6406-1-8"
         style="stop-color:#f9f9f9;stop-opacity:1"
         offset="0" />
      <stop
         id="stop6408-9-6"
         style="stop-color:#c9c9c9;stop-opacity:1"
         offset="1" />
    </linearGradient>
    <linearGradient
       x1="22.934725"
       y1="49.629246"
       x2="22.934725"
       y2="36.599415"
       id="linearGradient3041"
       xlink:href="#linearGradient6129-963-697-142-998-580-273"
       gradientUnits="userSpaceOnUse"
       gradientTransform="matrix(3.036796,0,0,2.6909701,-8.8831134,-1.364613)" />
    <linearGradient
       x1="97.538795"
       y1="16.962049"
       x2="97.538795"
       y2="44.260689"
       id="linearGradient3048"
       xlink:href="#linearGradient8272"
       gradientUnits="userSpaceOnUse"
       gradientTransform="matrix(2.6658408,0,0,2.7170994,-143.33283,-5.198823)" />
    <linearGradient
       x1="-91"
       y1="43.999817"
       x2="-91"
       y2="119.05979"
       id="linearGradient3051"
       xlink:href="#linearGradient4632-0-6-4"
       gradientUnits="userSpaceOnUse"
       gradientTransform="matrix(1,0,0,1.0266674,147,-6.186593)" />
    <linearGradient
       x1="97.538795"
       y1="8.8103228"
       x2="97.538795"
       y2="44.260689"
       id="linearGradient3058"
       xlink:href="#linearGradient9235"
       gradientUnits="userSpaceOnUse"
       gradientTransform="matrix(2.6658408,0,0,2.6469079,-143.33283,-2.049513)" />
    <linearGradient
       x1="-51.786404"
       y1="53.514328"
       x2="-51.786404"
       y2="3.6336823"
       id="linearGradient3061"
       xlink:href="#linearGradient3104-8-8-97-4-6-11-5-5-1-0"
       gradientUnits="userSpaceOnUse"
       gradientTransform="matrix(2.1683519,0,0,2.2464645,141.9485,-4.590473)" />
    <linearGradient
       x1="62.988873"
       y1="14.090554"
       x2="62.988873"
       y2="16.997795"
       id="linearGradient3064"
       xlink:href="#linearGradient6404-7-5"
       gradientUnits="userSpaceOnUse"
       gradientTransform="matrix(2.7209303,0,0,2.6722576,-117.2202,-2.213873)" />
  </defs>
  <metadata
     id="metadata28329">
    <rdf:RDF>
      <cc:Work
         rdf:about="">
        <dc:format>image/svg+xml</dc:format>
        <dc:type
           rdf:resource="http://purl.org/dc/dcmitype/StillImage" />
        <dc:title></dc:title>
      </cc:Work>
    </rdf:RDF>
  </metadata>
  <path
     d="m 12.999997,21.031407 c -1.108,0 -2,0.892 -2,2 l 0,5.96875 -3.0000004,0 c -1.108,0 -2,0.892 -2,2 l 0,11 c 0,1.108 0.892,2 2,2 l 112.0000034,0 c 1.108,0 2,-0.892 2,-2 l 0,-11 c 0,-1.108 -0.892,-2 -2,-2 l -63,0 0,-5.96875 c 0,-1.108 -0.892,-2 -2,-2 l -42.000003,0 z"
     id="use13839"
     style="color:#000000;fill:url(#linearGradient3064);fill-opacity:1;fill-rule:nonzero;stroke:none;stroke-width:1.00000012;marker:none;visibility:visible;display:inline;overflow:visible;enable-background:accumulate" />
  <path
     d="m 13.662787,20.500317 c -1.87818,0.0205 -3.16279,0.9143 -3.16279,2.67225 l 0,5.32743 c -0.9606004,0 -1.4771004,-0.003 -2.1044004,0 -1.67856,0.008 -2.87762,0.94491 -2.87762,2.83298 0.0936,27.49765 -0.018,28.92194 -0.018,31.25655 3.90581,0 117.0000034,-9.88664 117.0000034,-14.1423 l 0,-17.14209 c 0,-1.75796 -1.15786,-2.82564 -3.03605,-2.80514 l -61.96395,0 0,-5.19887 c 0,-1.75795 -1.18743,-2.80081 -2.94827,-2.80081 l -40.888943,0 z"
     id="use13841"
     style="opacity:0.8;color:#000000;fill:none;stroke:url(#linearGradient3061);stroke-width:1;stroke-linecap:butt;stroke-linejoin:miter;stroke-miterlimit:4;stroke-opacity:1;stroke-dasharray:none;stroke-dashoffset:0;marker:none;visibility:visible;display:inline;overflow:visible;enable-background:accumulate" />
  <path
     d="m 13.499997,21.500157 c -1.108,0 -2,0.892 -2,2 l 0,6 -3.0000004,0 c -1.108,0 -2,0.892 -2,2 l 0,11 c 0,1.108 0.892,2 2,2 l 111.0000034,0 c 1.108,0 2,-0.892 2,-2 l 0,-11 c 0,-1.108 -0.892,-2 -2,-2 l -63,0 0,-6 c 0,-1.108 -0.892,-2 -2,-2 l -41.000003,0 z"
     id="use13843"
     style="color:#000000;fill:none;stroke:url(#linearGradient3058);stroke-width:0.99999982;stroke-linecap:round;stroke-linejoin:round;stroke-miterlimit:4;stroke-opacity:1;stroke-dasharray:none;stroke-dashoffset:0;marker:none;visibility:visible;display:inline;overflow:visible;enable-background:accumulate" />
  <g
     transform="matrix(1.0027339,0,0,0.9919518,-0.16331336,6.933597)"
     id="use13845">
    <rect
       width="103.05159"
       height="16.129816"
       x="12.462574"
       y="99.870178"
       id="rect22332"
       style="opacity:0.3;fill:url(#linearGradient22338);fill-opacity:1;fill-rule:nonzero;stroke:none;stroke-width:1;marker:none;visibility:visible;display:inline;overflow:visible" />
    <path
       d="m 115.51417,99.870734 c 0,0 0,16.128926 0,16.128926 4.26271,0.0304 10.30516,-3.61367 10.30516,-8.0655 0,-4.45183 -4.75687,-8.063426 -10.30516,-8.063426 z"
       id="path22334"
       style="opacity:0.3;fill:url(#radialGradient22340);fill-opacity:1;fill-rule:nonzero;stroke:none;stroke-width:1;marker:none;visibility:visible;display:inline;overflow:visible" />
    <path
       d="m 12.462574,99.870734 c 0,0 0,16.128926 0,16.128926 -4.2627113,0.0304 -10.3051588,-3.61367 -10.3051588,-8.0655 0,-4.45183 4.7568636,-8.063426 10.3051588,-8.063426 z"
       id="path22336"
       style="opacity:0.3;fill:url(#radialGradient22342);fill-opacity:1;fill-rule:nonzero;stroke:none;stroke-width:1;marker:none;visibility:visible;display:inline;overflow:visible" />
  </g>
  <path
     d="m 6.2499966,39.499947 115.4999934,10e-4 c 1.66861,0 2.75001,1.18375 2.75001,2.65543 l -2.71648,71.780683 c 0.0386,1.86211 -0.55015,2.60044 -2.48884,2.56139 L 9.3616366,116.45175 c -1.66859,0 -3.35116,-1.09895 -3.35116,-2.57064 l -2.51048,-71.724693 c 0,-1.47169 1.0814,-2.65647 2.75,-2.65647 z"
     id="use13847"
     style="fill:url(#linearGradient3051);fill-opacity:1;fill-rule:nonzero;stroke:none;stroke-width:0.99999982;marker:none;visibility:visible;display:inline;overflow:visible;enable-background:accumulate" />
  <path
     d="m 6.2499966,40.500147 c -2.84882,0.29656 -1.40933,3.76689 -1.63989,5.72017 0.78584,22.54795 1.57466,45.095829 2.35864,67.643813 1.18868,2.48974 4.4300904,1.28205 6.6383204,1.57433 35.235143,0.0205 70.470293,0.0412 105.705433,0.0617 2.566,-0.16531 1.15721,-3.81803 1.65357,-5.65555 0.85465,-22.569494 2.54292,-67.571353 2.54292,-67.571353 0,-1.16209 -0.77992,-1.7731 -2.20738,-1.7731 -37.08931,0 -77.9623,0 -115.0516134,0 z"
     id="use13851"
     style="opacity:0.5;fill:none;stroke:url(#linearGradient3048);stroke-width:0.99999988;stroke-linecap:round;stroke-linejoin:round;stroke-miterlimit:4;stroke-opacity:1;stroke-dasharray:none;stroke-dashoffset:0;marker:none;visibility:visible;display:inline;overflow:visible;enable-background:accumulate" />
  <path
     d="m 6.2499966,39.499937 115.4999934,10e-4 c 1.66861,0 2.75001,1.18375 2.75001,2.65543 l -2.71648,71.780683 c 0.0386,1.86211 -0.55015,2.60044 -2.48884,2.56139 L 9.3616366,116.45174 c -1.66859,0 -3.35116,-1.09895 -3.35116,-2.57064 l -2.51048,-71.724693 c 0,-1.47169 1.0814,-2.65647 2.75,-2.65647 z"
     id="path3369-7-8"
     style="opacity:0.3;fill:none;stroke:#000000;stroke-width:0.99999982;stroke-linecap:round;stroke-linejoin:round;stroke-miterlimit:4;stroke-opacity:1;stroke-dasharray:none;stroke-dashoffset:0;marker:none;visibility:visible;display:inline;overflow:visible;enable-background:accumulate" />
  <path
     d="m 51.875,51.75 0,24.65625 24.6875,0 0,-24.65625 -24.6875,0 z m 8.75,4.46875 5.875,0 5.375,13.09375 c 1.228698,3e-6 1.843733,0.471536 1.84375,1.375 -1.7e-5,0.903467 -0.58869,1.34375 -1.78125,1.34375 l -3.75,0 c -1.192586,0 -1.812509,-0.440283 -1.8125,-1.34375 -9e-6,-0.524009 0.161562,-0.881804 0.46875,-1.0625 0.307168,-0.19876 0.765521,-0.312497 1.34375,-0.3125 l 0.59375,0 -0.59375,-1.5625 -6.46875,0 -0.625,1.5625 0.625,0 c 1.19257,3e-6 1.781243,0.471536 1.78125,1.375 -7e-6,0.903467 -0.58868,1.34375 -1.78125,1.34375 l -3.59375,0 c -1.192576,0 -1.781249,-0.440283 -1.78125,-1.34375 10e-7,-0.542078 0.143502,-0.913054 0.46875,-1.09375 0.307178,-0.180691 0.765531,-0.281247 1.34375,-0.28125 l 4.1875,-10.375 -1.71875,0 c -1.210648,1.3e-5 -1.812502,-0.44027 -1.8125,-1.34375 -2e-6,-0.542065 0.161569,-0.913041 0.46875,-1.09375 0.325245,-0.180678 0.765528,-0.281234 1.34375,-0.28125 z m 4.3125,3.625 -2.125,5.1875 4.25,0 -2.125,-5.1875 z m -26.71875,17.84375 0,24.6875 24.6875,0 0,-24.6875 -24.6875,0 z m 27.3125,0 0,24.6875 24.65625,0 0,-24.6875 -24.65625,0 z m 13.25,4.125 c 1.264844,1.6e-5 2.573997,0.291909 3.875,0.90625 l 0.25,0.125 c 0.307166,-0.433648 0.704504,-0.656234 1.15625,-0.65625 0.523997,1.6e-5 0.881792,0.161587 1.0625,0.46875 0.198748,0.307194 0.281235,0.734296 0.28125,1.3125 l 0,2.28125 c -1.5e-5,1.192587 -0.440298,1.78126 -1.34375,1.78125 -0.325261,1e-5 -0.595681,-0.100547 -0.8125,-0.28125 -0.198775,-0.180683 -0.320804,-0.324185 -0.375,-0.46875 -0.03615,-0.162613 -0.102054,-0.39838 -0.15625,-0.6875 -0.108428,-0.542068 -0.439862,-0.95599 -1,-1.28125 -0.542091,-0.343304 -1.030207,-0.56589 -1.5,-0.65625 -0.469812,-0.09033 -0.914983,-0.156237 -1.3125,-0.15625 -1.373276,1.3e-5 -2.502789,0.466658 -3.40625,1.40625 -0.903471,0.921547 -1.375004,2.103783 -1.375,3.53125 l 0,1.75 c -4e-6,1.355205 0.479821,2.436884 1.4375,3.25 0.975738,0.813123 2.280003,1.218752 3.90625,1.21875 0.849249,2e-6 1.591201,-0.113735 2.1875,-0.3125 0.614346,-0.216829 1.028267,-0.421346 1.28125,-0.65625 0.252958,-0.252967 0.497016,-0.488734 0.75,-0.6875 0.271027,-0.216828 0.546335,-0.312496 0.78125,-0.3125 0.361372,4e-6 0.666445,0.135214 0.9375,0.40625 0.271025,0.271044 0.406235,0.576117 0.40625,0.9375 -1.5e-5,0.776984 -0.628231,1.527228 -1.875,2.25 -1.228727,0.722773 -2.724327,1.09375 -4.53125,1.09375 -2.294812,0 -4.200931,-0.694119 -5.71875,-2.03125 -1.499756,-1.355197 -2.250001,-3.065091 -2.25,-5.125 l 0,-1.78125 c -10e-7,-2.168309 0.68434,-3.973871 2.09375,-5.4375 1.409404,-1.463601 3.153951,-2.187484 5.25,-2.1875 z m -33.40625,0.375 6.84375,0 c 1.535883,1.6e-5 2.818675,0.432007 3.8125,1.28125 1.011869,0.849272 1.499986,1.90459 1.5,3.1875 -1.4e-5,1.156448 -0.549146,2.177112 -1.6875,3.0625 1.915335,0.957682 2.874985,2.275127 2.875,3.9375 -1.5e-5,1.300995 -0.493021,2.329951 -1.46875,3.125 -0.975757,0.795051 -2.266841,1.1875 -3.875,1.1875 l -8,0 c -1.192577,0 -1.78125,-0.440283 -1.78125,-1.34375 0,-0.903464 0.588673,-1.343747 1.78125,-1.34375 l 0.40625,0 0,-10.375 -0.40625,0 c -1.192577,1.3e-5 -1.78125,-0.47152 -1.78125,-1.375 0,-0.523996 0.130321,-0.881791 0.4375,-1.0625 0.325247,-0.198747 0.783599,-0.281234 1.34375,-0.28125 z m 3.125,2.71875 0,3.8125 3.0625,0 c 0.975735,9e-6 1.747452,-0.183035 2.34375,-0.5625 0.614346,-0.397515 0.937488,-0.916882 0.9375,-1.53125 -1.2e-5,-0.542068 -0.262139,-0.974059 -0.75,-1.28125 -0.487882,-0.307166 -1.150751,-0.437487 -2,-0.4375 l -3.59375,0 z m 0,6.53125 0,3.84375 4.71875,0 c 1.84306,3e-6 2.781237,-0.493003 2.78125,-1.46875 -1.3e-5,-0.722768 -0.357808,-1.316331 -1.0625,-1.75 -0.704715,-0.433658 -1.624823,-0.624993 -2.78125,-0.625 l -3.65625,0 z"
     id="rect4043"
     style="opacity:0.3;fill:#ffffff;fill-opacity:1;stroke:none" />
  <path
     d="m 51.875,50.75 0,24.65625 24.6875,0 0,-24.65625 -24.6875,0 z m 8.75,4.46875 5.875,0 5.375,13.09375 c 1.2287,3e-6 1.84373,0.471536 1.84375,1.375 -2e-5,0.903467 -0.58869,1.34375 -1.78125,1.34375 l -3.75,0 c -1.192586,0 -1.812509,-0.440283 -1.8125,-1.34375 -9e-6,-0.524009 0.161562,-0.881804 0.46875,-1.0625 0.307168,-0.19876 0.765521,-0.312497 1.34375,-0.3125 l 0.59375,0 -0.59375,-1.5625 -6.46875,0 -0.625,1.5625 0.625,0 c 1.19257,3e-6 1.781243,0.471536 1.78125,1.375 -7e-6,0.903467 -0.58868,1.34375 -1.78125,1.34375 l -3.59375,0 c -1.192576,0 -1.781249,-0.440283 -1.78125,-1.34375 10e-7,-0.542078 0.143502,-0.913054 0.46875,-1.09375 0.307178,-0.180691 0.765531,-0.281247 1.34375,-0.28125 l 4.1875,-10.375 -1.71875,0 c -1.210648,1.3e-5 -1.812502,-0.44027 -1.8125,-1.34375 -2e-6,-0.542065 0.161569,-0.913041 0.46875,-1.09375 0.325245,-0.180678 0.765528,-0.281234 1.34375,-0.28125 z m 4.3125,3.625 -2.125,5.1875 4.25,0 -2.125,-5.1875 z m -26.71875,17.84375 0,24.6875 24.6875,0 0,-24.6875 -24.6875,0 z m 27.3125,0 0,24.6875 24.65625,0 0,-24.6875 -24.65625,0 z m 13.25,4.125 c 1.26484,1.6e-5 2.574,0.291909 3.875,0.90625 l 0.25,0.125 c 0.30717,-0.433648 0.7045,-0.656234 1.15625,-0.65625 0.524,1.6e-5 0.88179,0.161587 1.0625,0.46875 0.19875,0.307194 0.28123,0.734296 0.28125,1.3125 l 0,2.28125 c -2e-5,1.192587 -0.4403,1.78126 -1.34375,1.78125 -0.32526,1e-5 -0.59568,-0.100547 -0.8125,-0.28125 -0.19877,-0.180683 -0.3208,-0.324185 -0.375,-0.46875 -0.0362,-0.162613 -0.10205,-0.39838 -0.15625,-0.6875 -0.10843,-0.542068 -0.43986,-0.95599 -1,-1.28125 -0.54209,-0.343304 -1.03021,-0.56589 -1.5,-0.65625 -0.46981,-0.09033 -0.91498,-0.156237 -1.3125,-0.15625 -1.37328,1.3e-5 -2.50279,0.466658 -3.40625,1.40625 -0.90347,0.921547 -1.375,2.103783 -1.375,3.53125 l 0,1.75 c 0,1.355205 0.47982,2.436884 1.4375,3.25 0.97574,0.813123 2.28,1.218752 3.90625,1.21875 0.84925,2e-6 1.5912,-0.113735 2.1875,-0.3125 0.61435,-0.216829 1.02827,-0.421346 1.28125,-0.65625 0.25296,-0.252967 0.49702,-0.488734 0.75,-0.6875 0.27103,-0.216828 0.54634,-0.312496 0.78125,-0.3125 0.36137,4e-6 0.66644,0.135214 0.9375,0.40625 0.27102,0.271044 0.40623,0.576117 0.40625,0.9375 -2e-5,0.776984 -0.62823,1.527228 -1.875,2.25 -1.22873,0.722773 -2.72433,1.09375 -4.53125,1.09375 -2.29481,0 -4.20093,-0.694119 -5.71875,-2.03125 -1.49976,-1.355197 -2.25,-3.065091 -2.25,-5.125 l 0,-1.78125 c 0,-2.168309 0.68434,-3.973871 2.09375,-5.4375 1.4094,-1.463601 3.15395,-2.187484 5.25,-2.1875 z m -33.40625,0.375 6.84375,0 c 1.535883,1.6e-5 2.818675,0.432007 3.8125,1.28125 1.011869,0.849272 1.499986,1.90459 1.5,3.1875 -1.4e-5,1.156448 -0.549146,2.177112 -1.6875,3.0625 1.915335,0.957682 2.874985,2.275127 2.875,3.9375 -1.5e-5,1.300995 -0.493021,2.329951 -1.46875,3.125 -0.975757,0.795051 -2.266841,1.1875 -3.875,1.1875 l -8,0 c -1.192577,0 -1.78125,-0.440283 -1.78125,-1.34375 0,-0.903464 0.588673,-1.343747 1.78125,-1.34375 l 0.40625,0 0,-10.375 -0.40625,0 c -1.192577,1.3e-5 -1.78125,-0.47152 -1.78125,-1.375 0,-0.523996 0.130321,-0.881791 0.4375,-1.0625 0.325247,-0.198747 0.783599,-0.281234 1.34375,-0.28125 z m 3.125,2.71875 0,3.8125 3.0625,0 c 0.975735,9e-6 1.747452,-0.183035 2.34375,-0.5625 0.614346,-0.397515 0.937488,-0.916882 0.9375,-1.53125 -1.2e-5,-0.542068 -0.262139,-0.974059 -0.75,-1.28125 -0.487882,-0.307166 -1.150751,-0.437487 -2,-0.4375 l -3.59375,0 z m 0,6.53125 0,3.84375 4.71875,0 c 1.84306,3e-6 2.781237,-0.493003 2.78125,-1.46875 -1.3e-5,-0.722768 -0.357808,-1.316331 -1.0625,-1.75 -0.704715,-0.433658 -1.624823,-0.624993 -2.78125,-0.625 l -3.65625,0 z"
     id="path4064"
     style="fill:#175785;fill-opacity:0.55294118;stroke:none" />
  <path
     d="m 5.7727166,38.999937 116.4545434,10e-4 c 1.6824,0 2.77274,1.19912 2.77274,2.68993 l -2.73893,72.712903 c 0.0389,1.88629 -0.5547,2.63421 -2.50941,2.59465 L 8.9100766,116.95102 c -1.68238,0 -3.37885,-1.11323 -3.37885,-2.60404 l -2.53123,-72.656073 c 0,-1.4908 1.09034,-2.69097 2.77272,-2.69097 z"
     id="use13849"
     style="opacity:0.4;fill:url(#linearGradient3041);fill-opacity:1;stroke:none" />
</svg>
