<?xml version="1.0" encoding="UTF-8" standalone="no"?>
<!-- Created with Inkscape (http://www.inkscape.org/) -->

<svg
   xmlns:dc="http://purl.org/dc/elements/1.1/"
   xmlns:cc="http://creativecommons.org/ns#"
   xmlns:rdf="http://www.w3.org/1999/02/22-rdf-syntax-ns#"
   xmlns:svg="http://www.w3.org/2000/svg"
   xmlns="http://www.w3.org/2000/svg"
   xmlns:xlink="http://www.w3.org/1999/xlink"
   version="1.1"
   width="128"
   height="128"
   id="svg27224">
  <defs
     id="defs27226">
    <linearGradient
       id="linearGradient8272">
      <stop
         id="stop8274"
         style="stop-color:#ffffff;stop-opacity:1"
         offset="0" />
      <stop
         id="stop8276"
         style="stop-color:#ffffff;stop-opacity:0.23529412"
         offset="0.0221225" />
      <stop
         id="stop8278"
         style="stop-color:#ffffff;stop-opacity:0.15686275"
         offset="0.97909725" />
      <stop
         id="stop8280"
         style="stop-color:#ffffff;stop-opacity:0.39215687"
         offset="1" />
    </linearGradient>
    <linearGradient
       id="linearGradient4632-0-6-4">
      <stop
         id="stop4634-4-4-7"
         style="stop-color:#b4cee1;stop-opacity:1"
         offset="0" />
      <stop
         id="stop4636-3-1-5"
         style="stop-color:#5d9fcd;stop-opacity:1"
         offset="1" />
    </linearGradient>
    <linearGradient
       id="linearGradient5048-585">
      <stop
         id="stop2667"
         style="stop-color:#000000;stop-opacity:0"
         offset="0" />
      <stop
         id="stop2669"
         style="stop-color:#000000;stop-opacity:1"
         offset="0.5" />
      <stop
         id="stop2671"
         style="stop-color:#000000;stop-opacity:0"
         offset="1" />
    </linearGradient>
    <linearGradient
       id="linearGradient5060-179">
      <stop
         id="stop2675"
         style="stop-color:#000000;stop-opacity:1"
         offset="0" />
      <stop
         id="stop2677"
         style="stop-color:#000000;stop-opacity:0"
         offset="1" />
    </linearGradient>
    <linearGradient
       id="linearGradient5060-820">
      <stop
         id="stop2681"
         style="stop-color:#000000;stop-opacity:1"
         offset="0" />
      <stop
         id="stop2683"
         style="stop-color:#000000;stop-opacity:0"
         offset="1" />
    </linearGradient>
    <linearGradient
       id="linearGradient9235">
      <stop
         id="stop9237"
         style="stop-color:#ffffff;stop-opacity:1"
         offset="0" />
      <stop
         id="stop9239"
         style="stop-color:#ffffff;stop-opacity:0.23529412"
         offset="0.1088333" />
      <stop
         id="stop9241"
         style="stop-color:#ffffff;stop-opacity:0.15686275"
         offset="0.97909725" />
      <stop
         id="stop9243"
         style="stop-color:#ffffff;stop-opacity:0.39215687"
         offset="1" />
    </linearGradient>
    <linearGradient
       id="linearGradient3104-8-8-97-4-6-11-5-5-1-0">
      <stop
         id="stop3106-5-4-3-5-0-2-1-0-1-2"
         style="stop-color:#000000;stop-opacity:0.32173914"
         offset="0" />
      <stop
         id="stop3108-4-3-7-8-2-0-7-9-4-9"
         style="stop-color:#000000;stop-opacity:0.27826086"
         offset="1" />
    </linearGradient>
    <linearGradient
       id="linearGradient6404-7-5">
      <stop
         id="stop6406-1-8"
         style="stop-color:#f9f9f9;stop-opacity:1"
         offset="0" />
      <stop
         id="stop6408-9-6"
         style="stop-color:#c9c9c9;stop-opacity:1"
         offset="1" />
    </linearGradient>
    <linearGradient
       x1="302.85715"
       y1="366.64789"
       x2="302.85715"
       y2="609.50507"
       id="linearGradient3045"
       xlink:href="#linearGradient5048-585"
       gradientUnits="userSpaceOnUse"
       gradientTransform="matrix(0.2134205,0,0,0.06641689,-13.147881,75.518568)" />
    <radialGradient
       cx="605.71429"
       cy="486.64789"
       r="117.14286"
       fx="605.71429"
       fy="486.64789"
       id="radialGradient3047"
       xlink:href="#linearGradient5060-179"
       gradientUnits="userSpaceOnUse"
       gradientTransform="matrix(0.08277507,0,0,0.06641689,65.628912,75.518568)" />
    <radialGradient
       cx="605.71429"
       cy="486.64789"
       r="117.14286"
       fx="605.71429"
       fy="486.64789"
       id="radialGradient3049"
       xlink:href="#linearGradient5060-820"
       gradientUnits="userSpaceOnUse"
       gradientTransform="matrix(-0.08277505,0,0,0.06641689,62.347829,75.518568)" />
    <linearGradient
       x1="97.538795"
       y1="16.962049"
       x2="97.538795"
       y2="44.260689"
       id="linearGradient3064"
       xlink:href="#linearGradient8272"
       gradientUnits="userSpaceOnUse"
       gradientTransform="matrix(2.6658408,0,0,2.7170994,-143.33284,-5.198823)" />
    <linearGradient
       x1="-91"
       y1="43.999817"
       x2="-91"
       y2="119.05979"
       id="linearGradient3067"
       xlink:href="#linearGradient4632-0-6-4"
       gradientUnits="userSpaceOnUse"
       gradientTransform="matrix(1,0,0,1.0266674,147,-6.186593)" />
    <linearGradient
       x1="97.538795"
       y1="8.8103228"
       x2="97.538795"
       y2="44.260689"
       id="linearGradient3074"
       xlink:href="#linearGradient9235"
       gradientUnits="userSpaceOnUse"
       gradientTransform="matrix(2.6658408,0,0,2.6469079,-143.33284,-2.049513)" />
    <linearGradient
       x1="-51.786404"
       y1="53.514328"
       x2="-51.786404"
       y2="3.6336823"
       id="linearGradient3077"
       xlink:href="#linearGradient3104-8-8-97-4-6-11-5-5-1-0"
       gradientUnits="userSpaceOnUse"
       gradientTransform="matrix(2.1683519,0,0,2.2464645,141.9485,-4.590473)" />
    <linearGradient
       x1="62.988873"
       y1="14.090554"
       x2="62.988873"
       y2="16.997795"
       id="linearGradient3080"
       xlink:href="#linearGradient6404-7-5"
       gradientUnits="userSpaceOnUse"
       gradientTransform="matrix(2.7209303,0,0,2.6722576,-117.22021,-2.213873)" />
    <linearGradient
       id="linearGradient6129-963-697-142-998-580-273-9">
      <stop
         id="stop2661-6"
         style="stop-color:#0a0a0a;stop-opacity:0.498"
         offset="0" />
      <stop
         id="stop2663-3"
         style="stop-color:#0a0a0a;stop-opacity:0"
         offset="1" />
    </linearGradient>
    <linearGradient
       x1="22.934725"
       y1="49.629246"
       x2="22.934725"
       y2="36.599415"
       id="linearGradient3066"
       xlink:href="#linearGradient6129-963-697-142-998-580-273-9"
       gradientUnits="userSpaceOnUse"
       gradientTransform="matrix(3.036796,0,0,2.6909701,-8.8831134,-1.364613)" />
  </defs>
  <metadata
     id="metadata27229">
    <rdf:RDF>
      <cc:Work
         rdf:about="">
        <dc:format>image/svg+xml</dc:format>
        <dc:type
           rdf:resource="http://purl.org/dc/dcmitype/StillImage" />
        <dc:title></dc:title>
      </cc:Work>
    </rdf:RDF>
  </metadata>
  <path
     d="m 12.999997,21.031407 c -1.108,0 -2,0.892 -2,2 l 0,5.96875 -3.0000004,0 c -1.108,0 -2,0.892 -2,2 l 0,11 c 0,1.108 0.892,2 2,2 l 112.0000034,0 c 1.108,0 2,-0.892 2,-2 l 0,-11 c 0,-1.108 -0.892,-2 -2,-2 l -63.000002,0 0,-5.96875 c 0,-1.108 -0.892,-2 -2,-2 l -42.000001,0 z"
     id="use12083"
     style="color:#000000;fill:url(#linearGradient3080);fill-opacity:1;fill-rule:nonzero;stroke:none;stroke-width:1.00000012;marker:none;visibility:visible;display:inline;overflow:visible;enable-background:accumulate" />
  <path
     d="m 13.662787,20.500317 c -1.87818,0.0205 -3.16279,0.9143 -3.16279,2.67225 l 0,5.32743 c -0.9606004,0 -1.4771004,-0.003 -2.1044004,0 -1.67856,0.008 -2.87762,0.94491 -2.87762,2.83298 0.0936,27.49765 -0.018,28.92194 -0.018,31.25655 3.90581,0 117.0000034,-9.88664 117.0000034,-14.1423 l 0,-17.14209 c 0,-1.75796 -1.15786,-2.82564 -3.03605,-2.80514 l -61.963952,0 0,-5.19887 c 0,-1.75795 -1.18743,-2.80081 -2.94827,-2.80081 l -40.888941,0 z"
     id="use12085"
     style="opacity:0.8;color:#000000;fill:none;stroke:url(#linearGradient3077);stroke-width:1;stroke-linecap:butt;stroke-linejoin:miter;stroke-miterlimit:4;stroke-opacity:1;stroke-dasharray:none;stroke-dashoffset:0;marker:none;visibility:visible;display:inline;overflow:visible;enable-background:accumulate" />
  <path
     d="m 13.499997,21.500157 c -1.108,0 -2,0.892 -2,2 l 0,6 -3.0000004,0 c -1.108,0 -2,0.892 -2,2 l 0,11 c 0,1.108 0.892,2 2,2 l 111.0000034,0 c 1.108,0 2,-0.892 2,-2 l 0,-11 c 0,-1.108 -0.892,-2 -2,-2 l -63.000002,0 0,-6 c 0,-1.108 -0.892,-2 -2,-2 l -41.000001,0 z"
     id="use12087"
     style="color:#000000;fill:none;stroke:url(#linearGradient3074);stroke-width:0.99999982;stroke-linecap:round;stroke-linejoin:round;stroke-miterlimit:4;stroke-opacity:1;stroke-dasharray:none;stroke-dashoffset:0;marker:none;visibility:visible;display:inline;overflow:visible;enable-background:accumulate" />
  <g
     transform="matrix(1.0027339,0,0,0.9919518,-0.16331336,6.933597)"
     id="use12089">
    <rect
       width="103.05159"
       height="16.129816"
       x="12.462574"
       y="99.870178"
       id="rect22238"
       style="opacity:0.3;fill:url(#linearGradient3045);fill-opacity:1;fill-rule:nonzero;stroke:none;stroke-width:1;marker:none;visibility:visible;display:inline;overflow:visible" />
    <path
       d="m 115.51417,99.870734 c 0,0 0,16.128926 0,16.128926 4.26271,0.0304 10.30516,-3.61367 10.30516,-8.0655 0,-4.45183 -4.75687,-8.063426 -10.30516,-8.063426 z"
       id="path22240"
       style="opacity:0.3;fill:url(#radialGradient3047);fill-opacity:1;fill-rule:nonzero;stroke:none;stroke-width:1;marker:none;visibility:visible;display:inline;overflow:visible" />
    <path
       d="m 12.462574,99.870734 c 0,0 0,16.128926 0,16.128926 -4.2627113,0.0304 -10.3051588,-3.61367 -10.3051588,-8.0655 0,-4.45183 4.7568636,-8.063426 10.3051588,-8.063426 z"
       id="path22242"
       style="opacity:0.3;fill:url(#radialGradient3049);fill-opacity:1;fill-rule:nonzero;stroke:none;stroke-width:1;marker:none;visibility:visible;display:inline;overflow:visible" />
  </g>
  <path
     d="m 6.2499966,39.499947 115.4999934,10e-4 c 1.66861,0 2.75001,1.18375 2.75001,2.65543 l -2.71648,71.780683 c 0.0386,1.86211 -0.55015,2.60044 -2.48884,2.56139 L 9.3616366,116.45175 c -1.66859,0 -3.35116,-1.09895 -3.35116,-2.57064 l -2.51048,-71.724693 c 0,-1.47169 1.0814,-2.65647 2.75,-2.65647 z"
     id="use12091"
     style="fill:url(#linearGradient3067);fill-opacity:1;fill-rule:nonzero;stroke:none;stroke-width:0.99999982;marker:none;visibility:visible;display:inline;overflow:visible;enable-background:accumulate" />
  <path
     d="m 6.2499966,40.500147 c -2.84882,0.29656 -1.40933,3.76689 -1.63989,5.72017 0.78584,22.54795 1.57466,45.09583 2.35864,67.643813 1.18868,2.48974 4.4300904,1.28205 6.6383204,1.57433 35.235141,0.0205 70.470291,0.0412 105.705433,0.0617 2.566,-0.16531 1.15721,-3.81803 1.65357,-5.65555 0.85465,-22.569493 2.54292,-67.571353 2.54292,-67.571353 0,-1.16209 -0.77992,-1.7731 -2.20738,-1.7731 -37.089312,0 -77.962302,0 -115.0516134,0 z"
     id="use12095"
     style="opacity:0.5;fill:none;stroke:url(#linearGradient3064);stroke-width:0.99999988;stroke-linecap:round;stroke-linejoin:round;stroke-miterlimit:4;stroke-opacity:1;stroke-dasharray:none;stroke-dashoffset:0;marker:none;visibility:visible;display:inline;overflow:visible;enable-background:accumulate" />
  <path
     d="m 6.2499966,39.499947 115.4999934,10e-4 c 1.66861,0 2.75001,1.18375 2.75001,2.65543 l -2.71648,71.780683 c 0.0386,1.86211 -0.55015,2.60044 -2.48884,2.56139 L 9.3616366,116.45175 c -1.66859,0 -3.35116,-1.09895 -3.35116,-2.57064 l -2.51048,-71.724693 c 0,-1.47169 1.0814,-2.65647 2.75,-2.65647 z"
     id="path3369-7-2"
     style="opacity:0.3;fill:none;stroke:#000000;stroke-width:0.99999982;stroke-linecap:round;stroke-linejoin:round;stroke-miterlimit:4;stroke-opacity:1;stroke-dasharray:none;stroke-dashoffset:0;marker:none;visibility:visible;display:inline;overflow:visible;enable-background:accumulate" />
  <path
     d="m 45.837231,56.793933 0,35.53125 c 7.321857,1.035372 12.169537,6.309683 17.1875,10.937497 l 0,-32.593747 c -5.511723,-6.754575 -11.264829,-10.679492 -17.1875,-13.875 z m 36.28125,0 c -5.922671,3.195508 -11.675777,7.120425 -17.1875,13.875 l 0,32.593747 c 5.017963,-4.627814 9.865643,-9.902125 17.1875,-10.937497 l 0,-35.53125 z m -40.9375,3.25 0,35.4375 c 5.935728,1.0198 11.481608,3.322001 16.78125,5.843747 -3.942741,-3.6497 -7.86387,-6.799485 -13.21875,-7.249997 -0.486709,-0.04444 -0.900821,-0.480046 -0.90625,-0.96875 l 0,-31.75 -2.65625,-1.3125 z m 45.59375,0 -2.65625,1.3125 0,31.75 c -0.0054,0.488704 -0.419541,0.92431 -0.90625,0.96875 -5.35488,0.450512 -9.276009,3.600297 -13.21875,7.249997 5.299642,-2.521746 10.845522,-4.823947 16.78125,-5.843747 l 0,-35.4375 z m -37.6875,6.25 c 0.114958,0.008 0.238191,0.03388 0.375,0.09375 4.549624,2.163902 8.130579,5.289215 11.0625,8.46875 0.741958,0.968691 -0.456416,1.54052 -0.96875,0.90625 -2.855368,-3.096519 -6.338005,-6.087532 -10.6875,-8.15625 -0.813213,-0.289024 -0.585958,-1.36879 0.21875,-1.3125 z m 29.78125,0 c 0.804708,-0.05629 1.031963,1.023476 0.21875,1.3125 -4.349495,2.068718 -7.832132,5.059731 -10.6875,8.15625 -0.512334,0.63427 -1.741958,0.06244 -1,-0.90625 2.931921,-3.179535 6.544126,-6.304848 11.09375,-8.46875 0.136809,-0.05987 0.260042,-0.08571 0.375,-0.09375 z m -29.8125,10 c 0.111739,0.0082 0.240381,0.03706 0.375,0.09375 4.017277,1.729614 6.053853,2.551667 11.0625,7.25 0.52199,0.649224 -0.375356,1.472912 -0.90625,1 -4.937087,-4.631199 -6.658456,-5.327824 -10.6875,-7.0625 -0.814804,-0.352755 -0.62592,-1.338307 0.15625,-1.28125 z m 29.84375,0 c 0.78217,-0.05706 0.971053,0.928495 0.15625,1.28125 -4.029044,1.734676 -5.750413,2.431301 -10.6875,7.0625 -0.530894,0.472912 -1.42824,-0.350776 -0.90625,-1 5.008647,-4.698333 7.045223,-5.520386 11.0625,-7.25 0.134619,-0.05669 0.263261,-0.0856 0.375,-0.09375 z m -30.125,8.875 c 0.187711,-0.05007 0.425618,-0.02502 0.65625,0.09375 4.640931,2.022233 6.886474,3.571675 11.0625,7.875 0.901367,0.876763 -0.246081,1.716556 -0.90625,0.90625 -4.121188,-4.246804 -6.123421,-5.573752 -10.6875,-7.5625 -0.910448,-0.394524 -0.688132,-1.162284 -0.125,-1.3125 z m 30.09375,0 c 0.758528,-0.08923 1.24969,0.852222 0.1875,1.3125 -4.564079,1.988748 -6.566312,3.315696 -10.6875,7.5625 -0.660169,0.810306 -1.807617,-0.02949 -0.90625,-0.90625 4.176026,-4.303325 6.421569,-5.852767 11.0625,-7.875 0.115316,-0.05938 0.235389,-0.081 0.34375,-0.09375 z"
     id="path3039"
     style="opacity:0.3;fill:#ffffff;fill-opacity:1;fill-rule:nonzero;stroke-width:0.1;stroke-miterlimit:4;stroke-dasharray:none" />
  <path
     d="m 45.837231,55.793933 0,35.53125 c 7.321857,1.035372 12.169537,6.309683 17.1875,10.937497 l 0,-32.593747 c -5.511723,-6.754575 -11.264829,-10.679492 -17.1875,-13.875 z m 36.28125,0 c -5.922671,3.195508 -11.675777,7.120425 -17.1875,13.875 l 0,32.593747 c 5.017963,-4.627814 9.865643,-9.902125 17.1875,-10.937497 l 0,-35.53125 z m -40.9375,3.25 0,35.4375 c 5.935728,1.0198 11.481608,3.322001 16.78125,5.843747 -3.942741,-3.6497 -7.86387,-6.799485 -13.21875,-7.249997 -0.486709,-0.04444 -0.900821,-0.480046 -0.90625,-0.96875 l 0,-31.75 -2.65625,-1.3125 z m 45.59375,0 -2.65625,1.3125 0,31.75 c -0.0054,0.488704 -0.419541,0.92431 -0.90625,0.96875 -5.35488,0.450512 -9.276009,3.600297 -13.21875,7.249997 5.299642,-2.521746 10.845522,-4.823947 16.78125,-5.843747 l 0,-35.4375 z m -37.6875,6.25 c 0.114958,0.008 0.238191,0.03388 0.375,0.09375 4.549624,2.163902 8.130579,5.289215 11.0625,8.46875 0.741958,0.968691 -0.456416,1.54052 -0.96875,0.90625 -2.855368,-3.096519 -6.338005,-6.087532 -10.6875,-8.15625 -0.813213,-0.289024 -0.585958,-1.36879 0.21875,-1.3125 z m 29.78125,0 c 0.804708,-0.05629 1.031963,1.023476 0.21875,1.3125 -4.349495,2.068718 -7.832132,5.059731 -10.6875,8.15625 -0.512334,0.63427 -1.741958,0.06244 -1,-0.90625 2.931921,-3.179535 6.544126,-6.304848 11.09375,-8.46875 0.136809,-0.05987 0.260042,-0.08571 0.375,-0.09375 z m -29.8125,10 c 0.111739,0.0082 0.240381,0.03706 0.375,0.09375 4.017277,1.729614 6.053853,2.551667 11.0625,7.25 0.52199,0.649224 -0.375356,1.472912 -0.90625,1 -4.937087,-4.631199 -6.658456,-5.327824 -10.6875,-7.0625 -0.814804,-0.352755 -0.62592,-1.338307 0.15625,-1.28125 z m 29.84375,0 c 0.78217,-0.05706 0.971053,0.928495 0.15625,1.28125 -4.029044,1.734676 -5.750413,2.431301 -10.6875,7.0625 -0.530894,0.472912 -1.42824,-0.350776 -0.90625,-1 5.008647,-4.698333 7.045223,-5.520386 11.0625,-7.25 0.134619,-0.05669 0.263261,-0.0856 0.375,-0.09375 z m -30.125,8.875 c 0.187711,-0.05007 0.425618,-0.02502 0.65625,0.09375 4.640931,2.022233 6.886474,3.571675 11.0625,7.875 0.901367,0.876763 -0.246081,1.716556 -0.90625,0.90625 -4.121188,-4.246804 -6.123421,-5.573752 -10.6875,-7.5625 -0.910448,-0.394524 -0.688132,-1.162284 -0.125,-1.3125 z m 30.09375,0 c 0.758528,-0.08923 1.24969,0.852222 0.1875,1.3125 -4.564079,1.988748 -6.566312,3.315696 -10.6875,7.5625 -0.660169,0.810306 -1.807617,-0.02949 -0.90625,-0.90625 4.176026,-4.303325 6.421569,-5.852767 11.0625,-7.875 0.115316,-0.05938 0.235389,-0.081 0.34375,-0.09375 z"
     id="path3044"
     style="fill:#175785;fill-opacity:0.55294118;fill-rule:nonzero;stroke-width:0.1;stroke-miterlimit:4;stroke-dasharray:none" />
  <path
     d="m 5.7727166,38.999937 116.4545434,10e-4 c 1.6824,0 2.77274,1.19912 2.77274,2.68993 l -2.73893,72.712903 c 0.0389,1.88629 -0.5547,2.63421 -2.50941,2.59465 L 8.9100766,116.95102 c -1.68238,0 -3.37885,-1.11323 -3.37885,-2.60404 l -2.53123,-72.656073 c 0,-1.4908 1.09034,-2.69097 2.77272,-2.69097 z"
     id="use13849"
     style="opacity:0.4;fill:url(#linearGradient3066);fill-opacity:1;stroke:none" />
</svg>
