<!-- Created with Inkscape (http://www.inkscape.org/) -->
<svg id="svg5157" xmlns:rdf="http://www.w3.org/1999/02/22-rdf-syntax-ns#" xmlns="http://www.w3.org/2000/svg" height="128" width="128" version="1.1" xmlns:cc="http://creativecommons.org/ns#" xmlns:xlink="http://www.w3.org/1999/xlink" xmlns:dc="http://purl.org/dc/elements/1.1/">
<defs id="defs5159">
<linearGradient id="linearGradient3118" y2="40.496" gradientUnits="userSpaceOnUse" x2="71.204" gradientTransform="matrix(4.16388,0,0,4.16388,-236.03265,-50.036246)" y1="15.369" x1="71.204">
<stop id="stop4808" stop-color="#FFF" offset="0"/>
<stop id="stop4810" stop-color="#FFF" stop-opacity="0.23529412" offset="0.42448"/>
<stop id="stop4812" stop-color="#FFF" stop-opacity="0.15686275" offset="0.8209"/>
<stop id="stop4814" stop-color="#FFF" stop-opacity="0.39215687" offset="1"/>
</linearGradient>
<radialGradient id="radialGradient3163" gradientUnits="userSpaceOnUse" cy="186.17" cx="99.157" gradientTransform="matrix(0.6869404,0,0,0.21461693,-4.02174,68.573331)" r="62.769">
<stop id="stop3822-2-6-5-0" stop-color="#3d3d3d" offset="0"/>
<stop id="stop3864-8-7-4-1" stop-color="#686868" stop-opacity="0.49803922" offset="0.5"/>
<stop id="stop3824-1-2-6-7" stop-color="#686868" stop-opacity="0" offset="1"/>
</radialGradient>
<radialGradient id="radialGradient3197" gradientUnits="userSpaceOnUse" cy="8.4498" cx="3.9722" gradientTransform="matrix(0,6.3385076,-6.7053845,-1.7252442e-7,121.15923,-25.776663)" r="20">
<stop id="stop3750-8-9" stop-color="#78bfec" offset="0"/>
<stop id="stop3752-3-2" stop-color="#59a2ea" offset="0.26238"/>
<stop id="stop3754-7-2" stop-color="#3e6ce6" offset="0.70495"/>
<stop id="stop3756-9-3" stop-color="#2b51a0" offset="1"/>
</radialGradient>
</defs>
<metadata id="metadata5162">
<rdf:RDF>
<cc:Work rdf:about="">
<dc:format>image/svg+xml</dc:format>
<dc:type rdf:resource="http://purl.org/dc/dcmitype/StillImage"/>
<dc:title/>
</cc:Work>
</rdf:RDF>
</metadata>
<path id="path3818-0-5-0" d="m107.21,108.53a43.119,13.471,0,1,1,-86.237,0,43.119,13.471,0,1,1,86.237,0z" fill="url(#radialGradient3163)"/>
<path id="path2555" style="enable-background:accumulate;color:#000000;" d="m64.5,13.998c-28.692,0-52,23.308-52,52s23.308,52,52,52,52-23.308,52-52-23.308-52-52-52z" fill-rule="nonzero" fill="url(#radialGradient3197)"/>
<path id="path2555-7-1" opacity="0.5" stroke-linejoin="round" style="enable-background:accumulate;color:#000000;" d="m64.5,13.998c-28.692,0-52,23.308-52,52s23.308,52,52,52,52-23.308,52-52-23.308-52-52-52z" fill-opacity="0" stroke-dashoffset="0" stroke="#00537d" stroke-linecap="round" stroke-miterlimit="4" stroke-dasharray="none" stroke-width="1"/>
<path id="path5000" opacity="0.15" fill-rule="evenodd" transform="matrix(1.6491276,0,0,1.6491276,-110.91296,28.726158)" fill="#000" d="m119.58,23.417c0,2.4602-19.175,13.531-21.306,12.301-2.1306-1.2301-2.1306-23.372,0-24.602,2.1306-1.2301,21.306,9.8407,21.306,12.301z"/>
<path id="path3019" opacity="0.5" stroke-linejoin="round" style="enable-background:accumulate;color:#000000;" d="m115.5,65.998c0,28.167-22.834,51-51,51s-51-22.833-51-51,22.833-51,51-51,51,22.833,51,51z" stroke-dashoffset="0" stroke="url(#linearGradient3118)" stroke-linecap="round" stroke-miterlimit="4" stroke-dasharray="none" stroke-width="1" fill="none"/>
<path id="path4996" opacity="0.3" d="m119.58,23.417c0,2.4602-19.175,13.531-21.306,12.301-2.1306-1.2301-2.1306-23.372,0-24.602,2.1306-1.2301,21.306,9.8407,21.306,12.301z" fill-rule="evenodd" transform="matrix(1.561799,0,0,1.561799,-101.7203,30.603609)" fill="#000"/>
<path id="path4224" fill-rule="evenodd" transform="matrix(1.561799,0,0,1.561799,-101.7203,29.603609)" fill="#fafafa" d="m119.58,23.417c0,2.4602-19.175,13.531-21.306,12.301-2.1306-1.2301-2.1306-23.372,0-24.602,2.1306-1.2301,21.306,9.8407,21.306,12.301z"/>
</svg>
