<!-- Created with Inkscape (http://www.inkscape.org/) -->
<svg id="svg5157" xmlns:rdf="http://www.w3.org/1999/02/22-rdf-syntax-ns#" xmlns="http://www.w3.org/2000/svg" height="128" width="128" version="1.1" xmlns:cc="http://creativecommons.org/ns#" xmlns:xlink="http://www.w3.org/1999/xlink" xmlns:dc="http://purl.org/dc/elements/1.1/">
<defs id="defs5159">
<linearGradient id="linearGradient3118" y2="40.496" gradientUnits="userSpaceOnUse" x2="71.204" gradientTransform="matrix(4.16388,0,0,4.16388,-236.03265,-50.036246)" y1="15.369" x1="71.204">
<stop id="stop4808" stop-color="#FFF" offset="0"/>
<stop id="stop4810" stop-color="#FFF" stop-opacity="0.23529412" offset="0.42448"/>
<stop id="stop4812" stop-color="#FFF" stop-opacity="0.15686275" offset="0.8209"/>
<stop id="stop4814" stop-color="#FFF" stop-opacity="0.39215687" offset="1"/>
</linearGradient>
<radialGradient id="radialGradient3163" gradientUnits="userSpaceOnUse" cy="186.17" cx="99.157" gradientTransform="matrix(0.6869404,0,0,0.21461693,-4.02174,68.573331)" r="62.769">
<stop id="stop3822-2-6-5-0" stop-color="#3d3d3d" offset="0"/>
<stop id="stop3864-8-7-4-1" stop-color="#686868" stop-opacity="0.49803922" offset="0.5"/>
<stop id="stop3824-1-2-6-7" stop-color="#686868" stop-opacity="0" offset="1"/>
</radialGradient>
<radialGradient id="radialGradient3197" gradientUnits="userSpaceOnUse" cy="8.4498" cx="3.9722" gradientTransform="matrix(0,6.3385076,-6.7053845,-1.7252442e-7,121.15923,-25.776663)" r="20">
<stop id="stop3750-8-9" stop-color="#90dbec" offset="0"/>
<stop id="stop3752-3-2" stop-color="#42baea" offset="0.26238"/>
<stop id="stop3754-7-2" stop-color="#3689e6" offset="0.70495"/>
<stop id="stop3756-9-3" stop-color="#2b63a0" offset="1"/>
</radialGradient>
</defs>
<metadata id="metadata5162">
<rdf:RDF>
<cc:Work rdf:about="">
<dc:format>image/svg+xml</dc:format>
<dc:type rdf:resource="http://purl.org/dc/dcmitype/StillImage"/>
<dc:title/>
</cc:Work>
</rdf:RDF>
</metadata>
<path id="path3818-0-5-0" d="m107.21,108.53a43.119,13.471,0,1,1,-86.237,0,43.119,13.471,0,1,1,86.237,0z" fill="url(#radialGradient3163)"/>
<path id="path2555" style="enable-background:accumulate;color:#000000;" d="m64.5,13.998c-28.692,0-52,23.308-52,52s23.308,52,52,52,52-23.308,52-52-23.308-52-52-52z" fill-rule="nonzero" fill="url(#radialGradient3197)"/>
<path id="path2555-7-1" opacity="0.5" stroke-linejoin="round" style="enable-background:accumulate;color:#000000;" d="m64.5,13.998c-28.692,0-52,23.308-52,52s23.308,52,52,52,52-23.308,52-52-23.308-52-52-52z" fill-opacity="0" stroke-dashoffset="0" stroke="#00537d" stroke-linecap="round" stroke-miterlimit="4" stroke-dasharray="none" stroke-width="1"/>
<path id="path3019" opacity="0.5" stroke-linejoin="round" style="enable-background:accumulate;color:#000000;" d="m115.5,65.998c0,28.167-22.834,51-51,51s-51-22.833-51-51,22.833-51,51-51,51,22.833,51,51z" stroke-dashoffset="0" stroke="url(#linearGradient3118)" stroke-linecap="round" stroke-miterlimit="4" stroke-dasharray="none" stroke-width="1" fill="none"/>
<path id="path4895" opacity="0.07000002" d="m24.219,20.469c-0.01389,0.0019-0.07997,0.02871-0.09375,0.03125-0.01378,0.0025-0.0801-0.0032-0.09375,0s-0.08026,0.02745-0.09375,0.03125-0.0492,0.02683-0.0625,0.03125c-0.0133,0.0044-0.08067,0.02622-0.09375,0.03125-0.01308,0.005-0.08092,0.02562-0.09375,0.03125-0.01283,0.0056-0.08119,0.02503-0.09375,0.03125-0.01256,0.0062-0.05024,0.05571-0.0625,0.0625-0.01226,0.0068-0.08182,0.0239-0.09375,0.03125-0.01193,0.0074-0.08217,0.0546-0.09375,0.0625s-0.0513,0.05408-0.0625,0.0625c-0.0112,0.0084-0.0517,0.05357-0.0625,0.0625-0.0108,0.0089-0.08337,0.05308-0.09375,0.0625-0.01038,0.0094-0.05257,0.05261-0.0625,0.0625-0.0099,0.0099-0.05304,0.05216-0.0625,0.0625-0.0095,0.01034-0.05353,0.05173-0.0625,0.0625-0.009,0.01077-0.05403,0.08258-0.0625,0.09375-0.0085,0.01117-0.05456,0.05095-0.0625,0.0625-0.0079,0.01155-0.02385,0.08185-0.03125,0.09375s-0.05566,0.05026-0.0625,0.0625c-0.0068,0.01224-0.02499,0.08121-0.03125,0.09375-0.0063,0.01254-0.05682,0.08094-0.0625,0.09375-0.0057,0.01281-0.02617,0.04944-0.03125,0.0625-0.0051,0.01306-0.02678,0.08047-0.03125,0.09375-0.0045,0.01328-0.0274,0.08027-0.03125,0.09375-0.0039,0.01348,0.0032,0.08011,0,0.09375s-0.02866,0.07998-0.03125,0.09375c-0.0026,0.01377-0.0293,0.07987-0.03125,0.09375-0.0019,0.01388,0.0013,0.0798,0,0.09375s0.000658,0.07975,0,0.09375,0.00001,0.07973,0,0.09375v19c0.000151,0.01956-0.0014,0.10549,0,0.125s-0.0027,0.13687,0,0.15625,0.02734,0.10583,0.03125,0.125c0.0039,0.01917,0.02611,0.10613,0.03125,0.125,0.0051,0.01887,0.0249,0.1065,0.03125,0.125,0.0064,0.0185,0.05497,0.10694,0.0625,0.125,0.0075,0.01805,0.05382,0.10747,0.0625,0.125,0.0087,0.01753,0.05271,0.07682,0.0625,0.09375,0.0098,0.01693,0.05163,0.10873,0.0625,0.125s0.05061,0.07822,0.0625,0.09375,0.08088,0.11027,0.09375,0.125,0.07996,0.07988,0.09375,0.09375,0.07909,0.0808,0.09375,0.09375,0.07828,0.05052,0.09375,0.0625,0.10879,0.08279,0.125,0.09375,0.07687,0.05261,0.09375,0.0625c0.01688,0.0099,0.10752,0.05372,0.125,0.0625,0.01748,0.0088,0.10699,0.05487,0.125,0.0625,0.01801,0.0076,0.10653,0.0248,0.125,0.03125,0.01847,0.0065,0.10615,0.05725,0.125,0.0625,0.01885,0.0052,0.10586,0.02723,0.125,0.03125,0.01915,0.004,0.10564-0.0028,0.125,0s0.1055,0.02973,0.125,0.03125c0.0195,0.0015,0.10544-0.000259,0.125,0s0.13671,0.001,0.15625,0,0.10557,0.0023,0.125,0,0.10576-0.02774,0.125-0.03125c0.01925-0.0035,0.10602-0.0265,0.125-0.03125,0.01898-0.0047,0.10637-0.02529,0.125-0.03125,0.01863-0.006,0.10679-0.05535,0.125-0.0625,0.01821-0.0072,0.10729-0.02294,0.125-0.03125,0.01771-0.0083,0.10786-0.05306,0.125-0.0625l17-9.5c0.01729-0.0099,0.1084-0.08276,0.125-0.09375s0.07791-0.05044,0.09375-0.0625,0.07873-0.08068,0.09375-0.09375,0.11087-0.07972,0.125-0.09375,0.08058-0.07882,0.09375-0.09375,0.05033-0.07799,0.0625-0.09375,0.08265-0.10847,0.09375-0.125,0.05251-0.07653,0.0625-0.09375c0.01-0.01722,0.05366-0.10716,0.0625-0.125,0.0088-0.01784,0.05485-0.10662,0.0625-0.125,0.0076-0.01838,0.02482-0.10616,0.03125-0.125,0.0064-0.01884,0.05732-0.10577,0.0625-0.125,0.0052-0.01923,0.02735-0.10548,0.03125-0.125,0.0039-0.01953-0.0026-0.10526,0-0.125s0.02994-0.13638,0.03125-0.15625c0.0013-0.01987,0-0.10509,0-0.125s0.0013-0.10513,0-0.125-0.02864-0.13651-0.03125-0.15625c-0.0026-0.01974,0.0039-0.10548,0-0.125-0.0039-0.01953-0.02607-0.10577-0.03125-0.125-0.0052-0.01923-0.05607-0.10616-0.0625-0.125-0.0064-0.01884-0.0236-0.10662-0.03125-0.125-0.0076-0.01838-0.05366-0.10716-0.0625-0.125-0.0088-0.01784-0.05251-0.10778-0.0625-0.125-0.01-0.01722-0.0514-0.07722-0.0625-0.09375s-0.08158-0.10924-0.09375-0.125-0.04933-0.07882-0.0625-0.09375-0.07962-0.07972-0.09375-0.09375-0.10998-0.08068-0.125-0.09375-0.07791-0.08169-0.09375-0.09375-0.07715-0.05151-0.09375-0.0625-0.10771-0.08387-0.125-0.09375l-17-9.5c-0.01958-0.0111-0.10465-0.05288-0.125-0.0625-0.02035-0.0096-0.13524-0.05442-0.15625-0.0625-0.02101-0.0081-0.10345-0.056-0.125-0.0625s-0.13428-0.02637-0.15625-0.03125c-0.02197-0.0049-0.13398-0.02801-0.15625-0.03125-0.02228-0.0032-0.1338,0.0016-0.15625,0s-0.13374-0.000095-0.15625,0-0.10256-0.0018-0.125,0a0.56695,0.56695,0,0,0,-0.03125,0c-0.01396,0.0013-0.07986-0.0019-0.09375,0z" fill-rule="evenodd" transform="matrix(1.8062282,0,0,1.8233533,8.9003068,8.6590773)" fill="#000"/>
<path id="path4044-7" opacity="0.15" d="M24.375,21.031a1.4757,1.4757,0,0,0,-1.344,1.469v19a1.4757,1.4757,0,0,0,2.1875,1.2812l17-9.5a1.4757,1.4757,0,0,0,0,-2.5625l-17-9.5a1.4757,1.4757,0,0,0,-0.843,-0.187z" fill-rule="evenodd" transform="matrix(1.8062282,0,0,1.8233533,8.9003068,8.6590773)" fill="#000"/>
<path id="path4044" d="M24.375,21.031a1.4757,1.4757,0,0,0,-1.344,1.469v19a1.4757,1.4757,0,0,0,2.1875,1.2812l17-9.5a1.4757,1.4757,0,0,0,0,-2.5625l-17-9.5a1.4757,1.4757,0,0,0,-0.843,-0.187z" fill-rule="evenodd" transform="matrix(1.8062282,0,0,1.8233533,8.9003068,7.6590769)" fill="#fafafa"/>
</svg>
