<?xml version="1.0" encoding="UTF-8" standalone="no"?>
<!-- Created with Inkscape (http://www.inkscape.org/) -->

<svg
   xmlns:dc="http://purl.org/dc/elements/1.1/"
   xmlns:cc="http://creativecommons.org/ns#"
   xmlns:rdf="http://www.w3.org/1999/02/22-rdf-syntax-ns#"
   xmlns:svg="http://www.w3.org/2000/svg"
   xmlns="http://www.w3.org/2000/svg"
   xmlns:xlink="http://www.w3.org/1999/xlink"
   xmlns:sodipodi="http://sodipodi.sourceforge.net/DTD/sodipodi-0.dtd"
   xmlns:inkscape="http://www.inkscape.org/namespaces/inkscape"
   version="1.1"
   width="128"
   height="128"
   id="svg5157"
   inkscape:version="0.48.4 r9939"
   sodipodi:docname="qbittorent.svg">
  <sodipodi:namedview
     pagecolor="#ffffff"
     bordercolor="#666666"
     borderopacity="1"
     objecttolerance="10"
     gridtolerance="10"
     guidetolerance="10"
     inkscape:pageopacity="0"
     inkscape:pageshadow="2"
     inkscape:window-width="1920"
     inkscape:window-height="1022"
     id="namedview42"
     showgrid="false"
     showguides="true"
     inkscape:guide-bbox="true"
     inkscape:zoom="3.7864496"
     inkscape:cx="113.55531"
     inkscape:cy="45.996319"
     inkscape:window-x="0"
     inkscape:window-y="30"
     inkscape:window-maximized="1"
     inkscape:current-layer="svg5157">
    <sodipodi:guide
       orientation="0,1"
       position="-31.934,61"
       id="guide4134" />
    <sodipodi:guide
       orientation="0,1"
       position="-42.951729,114"
       id="guide4136" />
    <sodipodi:guide
       orientation="0,1"
       position="-23.241,9"
       id="guide4138" />
  </sodipodi:namedview>
  <defs
     id="defs5159">
    <linearGradient
       id="linearGradient4085">
      <stop
         id="stop4087"
         offset="0"
         style="stop-color:#06abec;stop-opacity:1" />
      <stop
         style="stop-color:#0da6f6;stop-opacity:1"
         offset="0.14449342"
         id="stop4093" />
      <stop
         style="stop-color:#1e9df5;stop-opacity:1"
         offset="0.3257274"
         id="stop4091" />
      <stop
         id="stop4089"
         offset="1"
         style="stop-color:#1953f1;stop-opacity:1;" />
    </linearGradient>
    <linearGradient
       id="linearGradient3820-7-2-8-6">
      <stop
         id="stop3822-2-6-5-0"
         style="stop-color:#3d3d3d;stop-opacity:1"
         offset="0" />
      <stop
         id="stop3864-8-7-4-1"
         style="stop-color:#686868;stop-opacity:0.49803922"
         offset="0.5" />
      <stop
         id="stop3824-1-2-6-7"
         style="stop-color:#686868;stop-opacity:0"
         offset="1" />
    </linearGradient>
    <linearGradient
       id="linearGradient4168">
      <stop
         id="stop4170"
         style="stop-color:#f8b17e;stop-opacity:1"
         offset="0" />
      <stop
         id="stop4172"
         style="stop-color:#e35d4f;stop-opacity:1"
         offset="0.23208089" />
      <stop
         id="stop4174"
         style="stop-color:#c6262e;stop-opacity:1"
         offset="0.5908742" />
      <stop
         id="stop4176"
         style="stop-color:#690b54;stop-opacity:1"
         offset="1" />
    </linearGradient>
    <linearGradient
       id="linearGradient3957">
      <stop
         id="stop3959"
         style="stop-color:#ffffff;stop-opacity:1"
         offset="0" />
      <stop
         id="stop3961"
         style="stop-color:#c1c1c1;stop-opacity:1"
         offset="1" />
    </linearGradient>
    <linearGradient
       id="linearGradient2867-449-88-871-390-598-476-591-434-148-57-177-3-8">
      <stop
         id="stop3750-8-9"
         style="stop-color:#90dbec;stop-opacity:1"
         offset="0" />
      <stop
         id="stop3752-3-2"
         style="stop-color:#42baea;stop-opacity:1"
         offset="0.26238" />
      <stop
         id="stop3754-7-2"
         style="stop-color:#3689e6;stop-opacity:1"
         offset="0.704952" />
      <stop
         id="stop3756-9-3"
         style="stop-color:#2b63a0;stop-opacity:1"
         offset="1" />
    </linearGradient>
    <linearGradient
       id="linearGradient3957-2">
      <stop
         id="stop3959-62"
         style="stop-color:#ffffff;stop-opacity:1"
         offset="0" />
      <stop
         id="stop3961-5"
         style="stop-color:#c1c1c1;stop-opacity:1"
         offset="1" />
    </linearGradient>
    <linearGradient
       id="linearGradient4806">
      <stop
         offset="0"
         style="stop-color:#ffffff;stop-opacity:1"
         id="stop4808" />
      <stop
         offset="0.42447853"
         style="stop-color:#ffffff;stop-opacity:0.23529412"
         id="stop4810" />
      <stop
         offset="0.82089913"
         style="stop-color:#ffffff;stop-opacity:0.15686275"
         id="stop4812" />
      <stop
         offset="1"
         style="stop-color:#ffffff;stop-opacity:0.39215687"
         id="stop4814" />
    </linearGradient>
    <linearGradient
       inkscape:collect="always"
       xlink:href="#linearGradient4806"
       id="linearGradient3118"
       gradientUnits="userSpaceOnUse"
       gradientTransform="matrix(4.16388,0,0,4.16388,-236.03265,-50.036246)"
       x1="71.204407"
       y1="15.369057"
       x2="71.204407"
       y2="40.495617" />
    <radialGradient
       inkscape:collect="always"
       xlink:href="#linearGradient3820-7-2-8-6"
       id="radialGradient3163"
       gradientUnits="userSpaceOnUse"
       gradientTransform="matrix(0.6869404,0,0,0.21461693,-4.02174,68.573331)"
       cx="99.157013"
       cy="186.17059"
       fx="99.157013"
       fy="186.17059"
       r="62.769119" />
    <linearGradient
       inkscape:collect="always"
       xlink:href="#linearGradient4143"
       id="linearGradient3935"
       gradientUnits="userSpaceOnUse"
       gradientTransform="matrix(1.0285714,0,0,1.2,-5.3142844,-2013.5244)"
       x1="28.5"
       y1="39"
       x2="28.5"
       y2="9" />
    <linearGradient
       id="linearGradient4143">
      <stop
         style="stop-color:#197cf1;stop-opacity:1"
         offset="0"
         id="stop4145" />
      <stop
         style="stop-color:#20bcfa;stop-opacity:1"
         offset="1"
         id="stop4147" />
    </linearGradient>
    <radialGradient
       inkscape:collect="always"
       xlink:href="#linearGradient4085"
       id="radialGradient4095"
       cx="46.547718"
       cy="43.742928"
       fx="46.547718"
       fy="43.742928"
       r="52.000004"
       gradientTransform="matrix(0.01269716,1.1211485,-1.5003632,0.01699182,127.95466,-24.388829)"
       gradientUnits="userSpaceOnUse" />
    <clipPath
       id="j"
       clipPathUnits="userSpaceOnUse">
      <path
         style="fill:url(#h);fill-rule:evenodd"
         inkscape:connector-curvature="0"
         d="M 83,35 53.334,61.666 37,49 32,51 V 83 L 37,85 53.334,72.334 83,99 96,93 V 42 z M 80,54 V 80 L 64,67 z m -43,5 8,8 -8,8 z"
         id="path49" />
    </clipPath>
    <linearGradient
       id="a">
      <stop
         stop-color="#008fef"
         offset="0"
         id="stop44" />
      <stop
         stop-color="#007acc"
         offset="1"
         id="stop46" />
    </linearGradient>
  </defs>
  <metadata
     id="metadata5162">
    <rdf:RDF>
      <cc:Work
         rdf:about="">
        <dc:format>image/svg+xml</dc:format>
        <dc:type
           rdf:resource="http://purl.org/dc/dcmitype/StillImage" />
        <dc:title></dc:title>
      </cc:Work>
    </rdf:RDF>
  </metadata>
  <path
     inkscape:connector-curvature="0"
     style="fill:url(#radialGradient3163);fill-opacity:1;stroke:none"
     id="path3818-0-5-0"
     d="m 107.21186,108.52868 a 43.118644,13.471312 0 1 1 -86.237286,0 43.118644,13.471312 0 1 1 86.237286,0 z" />
  <path
     inkscape:connector-curvature="0"
     d="m 64.500003,13.998178 c -28.691806,0 -52.000007,23.308191 -52.000007,52 0,28.691809 23.308201,52.000012 52.000007,52.000002 28.691795,0 52.000017,-23.308193 51.999997,-52.000002 0,-28.691809 -23.308202,-52 -51.999997,-52 z"
     id="path2555"
     style="color:#000000;fill:url(#radialGradient4095);fill-opacity:1;fill-rule:nonzero;stroke:none;stroke-width:1;marker:none;visibility:visible;display:inline;overflow:visible;enable-background:accumulate" />
  <path
     style="fill:none;fill-opacity:1;stroke:#000000;opacity:0.15;stroke-opacity:1;stroke-width:2.00000009999999984;stroke-miterlimit:4;stroke-dasharray:none"
     d="m 66.976056,36.617857 0,51 5.65625,0 0,-5.90625 c 3.300982,1.976025 7.317439,3.060358 11.34375,3.0625 5.188881,-0.0047 10.343652,-1.838903 14.010819,-4.985494 3.667165,-3.146591 5.801685,-7.566891 5.801675,-12.014506 1e-5,-4.447615 -2.13451,-8.867915 -5.801675,-12.014506 -3.667167,-3.146591 -8.821938,-4.980822 -14.010819,-4.985494 -4.026311,0.0021 -8.042768,1.086475 -11.34375,3.0625 l 0,-17.21875 z m -11.34375,11.34375 0,5.90625 c -3.296706,-1.986999 -7.313615,-3.082519 -11.34375,-3.09375 -5.188881,0.0047 -10.343652,1.838903 -14.010819,4.985494 -3.667166,3.146591 -5.801684,7.566891 -5.801681,12.014506 -3e-6,4.447615 2.134515,8.867915 5.801681,12.014506 3.667167,3.146591 8.821938,4.980822 14.010819,4.985494 4.022494,0.007 8.038504,-1.066191 11.34375,-3.03125 l 0,17.21875 5.65625,0 0,-51 z m -11.34375,8.5 c 4.388453,0.0042 8.721973,1.747132 11.34375,4.5625 l 0,13.53125 c -2.621777,2.815368 -6.955297,4.558326 -11.34375,4.5625 -3.709259,-0.0022 -7.394545,-1.226075 -10.015217,-3.326085 -2.620673,-2.100009 -4.144443,-5.050258 -4.141033,-8.017665 0.0068,-2.962197 1.535143,-5.904034 4.15483,-7.99747 2.619687,-2.093437 6.298668,-3.312857 10.00142,-3.31503 z m 39.6875,0 c 3.702752,0.0022 7.381733,1.221593 10.00142,3.31503 2.619687,2.093436 4.148024,5.035273 4.15483,7.99747 0.0034,2.967407 -1.52036,5.917656 -4.141033,8.017665 -2.620672,2.10001 -6.305958,3.323904 -10.015217,3.326085 -4.388453,-0.0042 -8.721973,-1.747132 -11.34375,-4.5625 l 0,-13.53125 c 2.621777,-2.815368 6.955297,-4.558326 11.34375,-4.5625 z"
     id="path3803"
     inkscape:connector-curvature="0"
     sodipodi:nodetypes="cccccssscccccccsssccccccccccscsccscscccc" />
  <path
     sodipodi:nodetypes="cccccssscccccccsssccccccccccscsccscscccc"
     inkscape:connector-curvature="0"
     id="path3033"
     d="m 66.976056,36.617857 0,51 5.65625,0 0,-5.90625 c 3.300982,1.976025 7.317439,3.060358 11.34375,3.0625 5.188881,-0.0047 10.343652,-1.838903 14.010819,-4.985494 3.667165,-3.146591 5.801685,-7.566891 5.801675,-12.014506 1e-5,-4.447615 -2.13451,-8.867915 -5.801675,-12.014506 -3.667167,-3.146591 -8.821938,-4.980822 -14.010819,-4.985494 -4.026311,0.0021 -8.042768,1.086475 -11.34375,3.0625 l 0,-17.21875 z m -11.34375,11.34375 0,5.90625 c -3.296706,-1.986999 -7.313615,-3.082519 -11.34375,-3.09375 -5.188881,0.0047 -10.343652,1.838903 -14.010819,4.985494 -3.667166,3.146591 -5.801684,7.566891 -5.801681,12.014506 -3e-6,4.447615 2.134515,8.867915 5.801681,12.014506 3.667167,3.146591 8.821938,4.980822 14.010819,4.985494 4.022494,0.007 8.038504,-1.066191 11.34375,-3.03125 l 0,17.21875 5.65625,0 0,-51 z m -11.34375,8.5 c 4.388453,0.0042 8.721973,1.747132 11.34375,4.5625 l 0,13.53125 c -2.621777,2.815368 -6.955297,4.558326 -11.34375,4.5625 -3.709259,-0.0022 -7.394545,-1.226075 -10.015217,-3.326085 -2.620673,-2.100009 -4.144443,-5.050258 -4.141033,-8.017665 0.0068,-2.962197 1.535143,-5.904034 4.15483,-7.99747 2.619687,-2.093437 6.298668,-3.312857 10.00142,-3.31503 z m 39.6875,0 c 3.702752,0.0022 7.381733,1.221593 10.00142,3.31503 2.619687,2.093436 4.148024,5.035273 4.15483,7.99747 0.0034,2.967407 -1.52036,5.917656 -4.141033,8.017665 -2.620672,2.10001 -6.305958,3.323904 -10.015217,3.326085 -4.388453,-0.0042 -8.721973,-1.747132 -11.34375,-4.5625 l 0,-13.53125 c 2.621777,-2.815368 6.955297,-4.558326 11.34375,-4.5625 z"
     style="fill:#000000;fill-opacity:1;stroke:none;opacity:0.15" />
  <path
     style="opacity:0.5;color:#000000;fill:#000000;fill-opacity:0;fill-rule:nonzero;stroke:#00537d;stroke-width:1;stroke-linecap:round;stroke-linejoin:round;stroke-miterlimit:4;stroke-opacity:1;stroke-dasharray:none;stroke-dashoffset:0;marker:none;visibility:visible;display:inline;overflow:visible;enable-background:accumulate"
     id="path2555-7-1"
     inkscape:connector-curvature="0"
     d="m 64.5,13.998179 c -28.691806,0 -52.000001,23.308189 -52.000001,51.999997 0,28.691808 23.308195,52.000014 52.000001,52.000004 28.691802,0 52.00002,-23.308196 52,-52.000004 0,-28.691808 -23.308198,-51.999997 -52,-51.999997 z" />
  <path
     style="opacity:0.5;color:#000000;fill:none;stroke:url(#linearGradient3118);stroke-width:1;stroke-linecap:round;stroke-linejoin:round;stroke-miterlimit:4;stroke-opacity:1;stroke-dasharray:none;stroke-dashoffset:0;marker:none;visibility:visible;display:inline;overflow:visible;enable-background:accumulate"
     id="path3019"
     inkscape:connector-curvature="0"
     d="m 115.5,65.998181 c 0,28.166516 -22.833502,50.999989 -51.000026,50.999989 -28.166487,0 -50.999973,-22.833473 -50.999973,-50.999989 0,-28.166517 22.833486,-50.999991 50.999973,-50.999991 28.166524,0 51.000026,22.833474 51.000026,50.999991 z" />
  <path
     style="fill:#ffffff;fill-opacity:1;stroke:none"
     d="m 66.976056,35.617857 0,51 5.65625,0 0,-5.90625 c 3.300982,1.976025 7.317439,3.060358 11.34375,3.0625 5.188881,-0.0047 10.343652,-1.838903 14.010819,-4.985494 3.667165,-3.146591 5.801685,-7.566891 5.801675,-12.014506 1e-5,-4.447615 -2.13451,-8.867915 -5.801675,-12.014506 -3.667167,-3.146591 -8.821938,-4.980822 -14.010819,-4.985494 -4.026311,0.0021 -8.042768,1.086475 -11.34375,3.0625 l 0,-17.21875 z m -11.34375,11.34375 0,5.90625 c -3.296706,-1.986999 -7.313615,-3.082519 -11.34375,-3.09375 -5.188881,0.0047 -10.343652,1.838903 -14.010819,4.985494 -3.667166,3.146591 -5.801684,7.566891 -5.801681,12.014506 -3e-6,4.447615 2.134515,8.867915 5.801681,12.014506 3.667167,3.146591 8.821938,4.980822 14.010819,4.985494 4.022494,0.007 8.038504,-1.066191 11.34375,-3.03125 l 0,17.21875 5.65625,0 0,-51 z m -11.34375,8.5 c 4.388453,0.0042 8.721973,1.747132 11.34375,4.5625 l 0,13.53125 c -2.621777,2.815368 -6.955297,4.558326 -11.34375,4.5625 -3.709259,-0.0022 -7.394545,-1.226075 -10.015217,-3.326085 -2.620673,-2.100009 -4.144443,-5.050258 -4.141033,-8.017665 0.0068,-2.962197 1.535143,-5.904034 4.15483,-7.99747 2.619687,-2.093437 6.298668,-3.312857 10.00142,-3.31503 z m 39.6875,0 c 3.702752,0.0022 7.381733,1.221593 10.00142,3.31503 2.619687,2.093436 4.148024,5.035273 4.15483,7.99747 0.0034,2.967407 -1.52036,5.917656 -4.141033,8.017665 -2.620672,2.10001 -6.305958,3.323904 -10.015217,3.326085 -4.388453,-0.0042 -8.721973,-1.747132 -11.34375,-4.5625 l 0,-13.53125 c 2.621777,-2.815368 6.955297,-4.558326 11.34375,-4.5625 z"
     id="path3060"
     inkscape:connector-curvature="0"
     sodipodi:nodetypes="cccccssscccccccsssccccccccccscsccscscccc" />
</svg>
