<?xml version="1.0" encoding="UTF-8" standalone="no"?>
<!-- Created with Inkscape (http://www.inkscape.org/) -->

<svg
   xmlns:dc="http://purl.org/dc/elements/1.1/"
   xmlns:cc="http://creativecommons.org/ns#"
   xmlns:rdf="http://www.w3.org/1999/02/22-rdf-syntax-ns#"
   xmlns:svg="http://www.w3.org/2000/svg"
   xmlns="http://www.w3.org/2000/svg"
   xmlns:xlink="http://www.w3.org/1999/xlink"
   xmlns:sodipodi="http://sodipodi.sourceforge.net/DTD/sodipodi-0.dtd"
   xmlns:inkscape="http://www.inkscape.org/namespaces/inkscape"
   version="1.1"
   width="128"
   height="128"
   id="svg3489"
   inkscape:version="0.48.4 r9939"
   sodipodi:docname="steam_icon_291650.svg">
  <sodipodi:namedview
     pagecolor="#ffffff"
     bordercolor="#666666"
     borderopacity="1"
     objecttolerance="10"
     gridtolerance="10"
     guidetolerance="10"
     inkscape:pageopacity="0"
     inkscape:pageshadow="2"
     inkscape:window-width="1920"
     inkscape:window-height="1022"
     id="namedview154"
     showgrid="true"
     inkscape:zoom="4"
     inkscape:cx="27.070795"
     inkscape:cy="86.380214"
     inkscape:window-x="0"
     inkscape:window-y="30"
     inkscape:window-maximized="1"
     inkscape:current-layer="svg3489"
     inkscape:snap-bbox="false"
     inkscape:snap-bbox-midpoints="true"
     inkscape:bbox-paths="true"
     inkscape:snap-global="true"
     inkscape:object-nodes="true" />
  <defs
     id="defs3491">
    <marker
       inkscape:stockid="Arrow1Sstart"
       orient="auto"
       refY="0.0"
       refX="0.0"
       id="Arrow1Sstart"
       style="overflow:visible">
      <path
         id="path4808"
         d="M 0.0,0.0 L 5.0,-5.0 L -12.5,0.0 L 5.0,5.0 L 0.0,0.0 z "
         style="fill-rule:evenodd;stroke:#000000;stroke-width:1.0pt"
         transform="scale(0.2) translate(6,0)" />
    </marker>
    <linearGradient
       id="linearGradient4132">
      <stop
         style="stop-color:#faedd8;stop-opacity:1;"
         offset="0"
         id="stop4134" />
      <stop
         id="stop4142"
         offset="0.45795277"
         style="stop-color:#f4d99f;stop-opacity:1;" />
      <stop
         style="stop-color:#f1cf89;stop-opacity:1;"
         offset="0.64999998"
         id="stop4144" />
      <stop
         style="stop-color:#eec66e;stop-opacity:1;"
         offset="1"
         id="stop4136" />
    </linearGradient>
    <radialGradient
       cx="23.896"
       cy="3.99"
       r="20.396999"
       id="radialGradient3093-0-3-6"
       gradientUnits="userSpaceOnUse"
       gradientTransform="matrix(0,1.2316483,-1.625754,0,18.486966,-28.721977)">
      <stop
         id="stop3244-9-33-7-0"
         style="stop-color:#53728d;stop-opacity:1;"
         offset="0" />
      <stop
         id="stop3246-3-5-0-8"
         style="stop-color:#445b6b;stop-opacity:1;"
         offset="0.26238" />
      <stop
         id="stop3248-1-7-8-8"
         style="stop-color:#294651;stop-opacity:1;"
         offset="0.66093999" />
      <stop
         id="stop3250-9-3-0-5"
         style="stop-color:#181b2e;stop-opacity:1;"
         offset="1" />
    </radialGradient>
    <linearGradient
       id="linearGradient3820-7-2">
      <stop
         id="stop3822-2-6"
         style="stop-color:#3d3d3d;stop-opacity:1"
         offset="0" />
      <stop
         id="stop3864-8-7"
         style="stop-color:#686868;stop-opacity:0.49803922"
         offset="0.5" />
      <stop
         id="stop3824-1-2"
         style="stop-color:#686868;stop-opacity:0"
         offset="1" />
    </linearGradient>
    <linearGradient
       inkscape:collect="always"
       xlink:href="#linearGradient4132"
       id="linearGradient3221"
       gradientUnits="userSpaceOnUse"
       gradientTransform="matrix(4.5738671,0,0,4.5738671,-266.12419,-64.961077)"
       x1="71.204407"
       y1="15.369057"
       x2="71.204407"
       y2="40.495617" />
    <radialGradient
       inkscape:collect="always"
       xlink:href="#radialGradient3093-0-3-6"
       id="radialGradient3239"
       gradientUnits="userSpaceOnUse"
       gradientTransform="matrix(0,5.7876913,-10.973418,0,107.78504,-136.02851)"
       cx="23.896"
       cy="3.99"
       fx="23.896"
       fy="3.99"
       r="20.396999" />
    <radialGradient
       inkscape:collect="always"
       xlink:href="#linearGradient3820-7-2"
       id="radialGradient3242"
       gradientUnits="userSpaceOnUse"
       gradientTransform="matrix(0.76470724,0,0,0.23897108,-11.826088,67.009093)"
       cx="99.157013"
       cy="186.17059"
       fx="99.157013"
       fy="186.17059"
       r="62.769119" />
    <linearGradient
       inkscape:collect="always"
       xlink:href="#linearGradient4132"
       id="linearGradient4473"
       gradientUnits="userSpaceOnUse"
       gradientTransform="translate(0,-2)"
       x1="67.6875"
       y1="10.053272"
       x2="67.6875"
       y2="94.71875" />
  </defs>
  <metadata
     id="metadata3494">
    <rdf:RDF>
      <cc:Work
         rdf:about="">
        <dc:format>image/svg+xml</dc:format>
        <dc:type
           rdf:resource="http://purl.org/dc/dcmitype/StillImage" />
        <dc:title />
      </cc:Work>
    </rdf:RDF>
  </metadata>
  <path
     inkscape:connector-curvature="0"
     style="fill:url(#radialGradient3242);fill-opacity:1;stroke:none"
     id="path3818-0"
     d="m 112,111.49847 a 48,15 0 1 1 -96.000002,0 48,15 0 1 1 96.000002,0 z" />
  <path
     inkscape:connector-curvature="0"
     style="color:#000000;fill:url(#radialGradient3239);fill-opacity:1.0;fill-rule:nonzero;stroke:none;stroke-width:0.50000000000000000;marker:none;visibility:visible;display:inline;overflow:visible;enable-background:accumulate"
     id="path2555-7"
     d="m 64,3.4984698 c -32.554164,0 -59,26.4458292 -59,58.9999952 0,32.554166 26.445836,59.000015 59,58.999995 32.55416,0 59.00002,-26.445829 59,-58.999995 C 123,29.944299 96.55416,3.4984698 64,3.4984698 z" />
  <path
     inkscape:connector-curvature="0"
     style="opacity:0.5;color:#000000;fill:none;stroke:#001027;stroke-width:1;stroke-linecap:round;stroke-linejoin:round;stroke-miterlimit:4;stroke-opacity:1;stroke-dasharray:none;stroke-dashoffset:0;marker:none;visibility:visible;display:inline;overflow:visible;enable-background:accumulate"
     id="path2555-7-1"
     d="m 64,3.498469 c -32.554164,0 -59,26.44583 -59,58.999996 0,32.554166 26.445836,59.000015 59,58.999995 32.55416,0 59.00002,-26.445829 59,-58.999995 C 123,29.944299 96.55416,3.498469 64,3.498469 z" />
  <path
     sodipodi:nodetypes="sssss"
     inkscape:connector-curvature="0"
     style="color:#000000;fill:none;stroke:url(#linearGradient3221);stroke-width:3;stroke-linecap:round;stroke-linejoin:round;stroke-miterlimit:4;stroke-opacity:1;stroke-dasharray:none;stroke-dashoffset:0;marker:none;visibility:visible;display:inline;overflow:visible;enable-background:accumulate"
     id="path3019"
     d="m 121.00418,62.498421 c 0,31.634836 -26.064589,56.998879 -57.004468,56.998879 -31.721678,0 -57.0351193,-26.059011 -57.0351193,-56.998879 0,-31.852018 26.0952823,-57.0044266 57.0351193,-57.0044266 31.799859,0 57.004468,26.0645556 57.004468,57.0044266 z" />
  <path
     id="path4156"
     d="m 62.4375,20.0625 -1.53125,4.09375 -1.375,1.09375 -1.09375,7.9375 -4.09375,11.34375 -0.3125,7.3125 -1.96875,5.59375 -0.125,-7.71875 -2.3125,-5.28125 -0.21875,-1.53125 -1.5,-1.125 -1.625,1.15625 -0.375,1.03125 L 43.625,46.03125 41,57.84375 42.65625,67.75 c 18.67111,-1.876782 37.2761,-1.638218 55.78125,1.5 l 0.90625,0.03125 2.125,-6.75 -1.40625,-6.5625 -1.875,-5.15625 -0.78125,-0.5 L 94,39.84375 87.375,36 l -2.5625,9.46875 -1.46875,1.59375 -0.9375,5.0625 1.375,5.9375 0.15625,5.6875 -1.8125,-4.40625 -2.5,-9.03125 -2.5,-1.65625 -0.15625,-2.03125 -3.25,-12.4375 -4.0625,-10.875 -7.21875,-3.25 z M 35.1875,36.5 30.5,38.75 29.96875,40.3125 28.75,41.125 l -1.5,7.1875 -1.5,0.875 -2.125,7.625 -0.5625,0.8125 -0.1875,1.75 -1.0625,0.6875 -1.1875,-3.15625 -1,-0.03125 -2.9375,4.3125 -1.5,6.3125 -1,2.375 -3.5,3 C 19.04837,71.06148 27.41074,69.598853 35.75,68.53125 l 0,-2.03125 1.0625,-3 1.46875,-2.40625 L 39.25,58.875 40,52.6875 39.625,49.25 l -0.4375,-8.3125 -4,-4.4375 z m 70.125,20.1875 -0.78125,2.28125 -1.15625,1.3125 -1.71875,7.8125 1,1.71875 5.25,1.3125 c 2.92245,0.655688 5.83297,1.378113 8.75,2.1875 l -3.96875,-3.5 -0.6875,-1.375 -0.40625,-5.34375 -2.03125,-1.75 -1.15625,-3.25 -3.09375,-1.40625 z M 39.5,62.125 38.0625,65.3125 38.09375,66 l -0.75,2.3125 c 1.07701,-0.131187 2.14217,-0.226406 3.21875,-0.34375 L 40.53125,63.3125 39.5,62.125 z m 23.59375,7.34375 C 46.12081,69.471366 29.08006,71.224225 11.9375,74.5625 L 21,77.34375 22.15625,80 l 1.28125,-1.8125 3.28125,1.15625 1.25,1.8125 0.875,0.125 1.65625,1.9375 0.84375,-1.15625 0.71875,0.125 0.875,-0.6875 1.21875,1.21875 1.875,-1.53125 2.6875,1.25 0.6875,1.25 1.78125,-1.03125 22.4375,11.0625 18.28125,-9.78125 1.9375,0.5 1.53125,-1.34375 1.5625,1.4375 1.96875,-3 1.9375,-0.71875 2.40625,0.09375 1.75,2.5625 2.15625,-2.125 2.65625,-2.46875 1.59375,-0.65625 1.53125,0.15625 0.59375,0.875 L 107,76.59375 113.75,74.8125 C 96.96094,71.198596 80.06669,69.466134 63.09375,69.46875 z m 4.34375,3 2.53125,0.09375 2.0625,0.875 1.34375,0 1.40625,1.15625 2,0.78125 2.59375,2.40625 -0.875,1.0625 -0.28125,1.5 0.625,0.53125 -0.8125,0.65625 L 74.34375,79.4375 72.4375,78.5625 72.125,77.5 69.65625,76.1875 69.125,73.625 67.4375,72.46875 z m -7.90625,0.0625 -1.9375,3.1875 -2.96875,1.875 -0.375,1.46875 -5.90625,2.25 -1.4375,-0.5625 -1.125,-1.625 0.15625,-1.21875 2.5,-1.6875 4.8125,-1.4375 1.8125,-1.96875 4.46875,-0.28125 z M 47.6875,72.8125 44.40625,75.375 c 0,0 -1.53125,0.03125 -1.625,0.15625 -0.0937,0.125 -1,1.34375 -1,1.34375 l -4.375,1.5625 -3.6875,-1.375 2.875,-1.46875 1.90625,-1.78125 9.1875,-1 z m 32.09375,0.3125 6.78125,0.21875 3.375,3.28125 0.84375,-0.0625 1.53125,1.0625 -2.6875,0.84375 -4.25,-1.625 -2.125,-1.625 -3.46875,-2.09375 z m -16.3125,0.0625 3.65625,5.125 0,1.40625 1.34375,0 5.5625,3.78125 -3.53125,1.84375 -1.8125,0 -0.5625,0.9375 -4.6875,2.6875 -4.15625,-2.4375 -0.21875,-0.78125 -1.875,0 L 53.53125,83.125 55.5,81.6875 58.78125,80 l 0.125,-0.375 0.75,-0.21875 3.8125,-6.21875 z m -31.25,0.8125 0.96875,0.25 -1.40625,1.4375 -0.90625,0.25 -1.0625,0.78125 -4.25,-1.3125 L 32.21875,74 z m 62.75,0.46875 7,0.40625 -1.65625,1.03125 -2.59375,0.8125 -1.78125,-0.90625 -0.96875,-1.34375 z m -13.65625,3.84375 2.3125,1.09375 -3.15625,1 0.1875,-1.25 0.65625,-0.84375 z m -36.90625,0.09375 0.375,1.53125 -2.15625,-0.3125 1.78125,-1.21875 z"
     style="fill-opacity:1;stroke:none;stroke-width:2;stroke-miterlimit:4;stroke-dasharray:none;opacity:0.14999999999999999;stroke-opacity:1"
     inkscape:connector-curvature="0" />
  <path
     inkscape:connector-curvature="0"
     style="opacity:0.05;fill-opacity:1;stroke:#000000;stroke-width:2;stroke-miterlimit:4;stroke-opacity:1;stroke-dasharray:none"
     d="m 62.4375,20.0625 -1.53125,4.09375 -1.375,1.09375 -1.09375,7.9375 -4.09375,11.34375 -0.3125,7.3125 -1.96875,5.59375 -0.125,-7.71875 -2.3125,-5.28125 -0.21875,-1.53125 -1.5,-1.125 -1.625,1.15625 -0.375,1.03125 L 43.625,46.03125 41,57.84375 42.65625,67.75 c 18.67111,-1.87678 37.2761,-1.63822 55.78125,1.5 l 0.90625,0.0312 2.125,-6.75 -1.40625,-6.5625 -1.875,-5.15625 -0.78125,-0.5 L 94,39.84375 87.375,36 l -2.5625,9.46875 -1.46875,1.59375 -0.9375,5.0625 1.375,5.9375 0.15625,5.6875 -1.8125,-4.40625 -2.5,-9.03125 -2.5,-1.65625 -0.15625,-2.03125 -3.25,-12.4375 -4.0625,-10.875 -7.21875,-3.25 z M 35.1875,36.5 30.5,38.75 29.96875,40.3125 28.75,41.125 l -1.5,7.1875 -1.5,0.875 -2.125,7.625 -0.5625,0.8125 -0.1875,1.75 -1.0625,0.6875 -1.1875,-3.15625 -1,-0.0312 -2.9375,4.3125 -1.5,6.3125 -1,2.375 -3.5,3 C 19.04837,71.06153 27.41074,69.5989 35.75,68.5313 l 0,-2.03125 1.0625,-3 L 38.28125,61.0938 39.25,58.875 40,52.6875 39.625,49.25 l -0.4375,-8.3125 -4,-4.4375 z m 70.125,20.1875 -0.78125,2.28125 -1.15625,1.3125 -1.71875,7.8125 1,1.71875 5.25,1.3125 c 2.92245,0.65569 5.83297,1.37811 8.75,2.1875 l -3.96875,-3.5 -0.6875,-1.375 -0.40625,-5.34375 -2.03125,-1.75 -1.15625,-3.25 -3.09375,-1.40625 z M 39.5,62.125 38.0625,65.3125 38.09375,66 l -0.75,2.3125 c 1.07701,-0.13119 2.14217,-0.22641 3.21875,-0.34375 L 40.53125,63.3125 39.5,62.125 z m 23.59375,7.34375 C 46.12081,69.47175 29.08006,71.22422 11.9375,74.5625 L 21,77.34375 22.15625,80 l 1.28125,-1.8125 3.28125,1.15625 1.25,1.8125 0.875,0.125 1.65625,1.9375 0.84375,-1.15625 0.71875,0.125 0.875,-0.6875 1.21875,1.21875 1.875,-1.53125 2.6875,1.25 0.6875,1.25 1.78125,-1.03125 22.4375,11.0625 18.28125,-9.78125 1.9375,0.5 1.53125,-1.34375 1.5625,1.4375 1.96875,-3 1.9375,-0.71875 2.40625,0.0937 1.75,2.5625 2.15625,-2.125 2.65625,-2.46875 1.59375,-0.65625 1.53125,0.15625 0.59375,0.875 L 107,76.5937 113.75,74.81245 C 96.96094,71.19855 80.06669,69.46608 63.09375,69.4687 z m 4.34375,3 2.53125,0.0937 2.0625,0.875 1.34375,0 1.40625,1.15625 2,0.78125 2.59375,2.40625 -0.875,1.0625 -0.28125,1.5 0.625,0.53125 -0.8125,0.65625 -3.6875,-2.09375 -1.90625,-0.875 L 72.125,77.5 69.65625,76.1875 69.125,73.625 67.4375,72.46875 z m -7.90625,0.0625 -1.9375,3.1875 -2.96875,1.875 -0.375,1.46875 -5.90625,2.25 -1.4375,-0.5625 -1.125,-1.625 0.15625,-1.21875 2.5,-1.6875 4.8125,-1.4375 1.8125,-1.96875 4.46875,-0.28125 z M 47.6875,72.8125 44.40625,75.375 c 0,0 -1.53125,0.0312 -1.625,0.15625 -0.0937,0.125 -1,1.34375 -1,1.34375 l -4.375,1.5625 -3.6875,-1.375 2.875,-1.46875 1.90625,-1.78125 9.1875,-1 z m 32.09375,0.3125 6.78125,0.21875 3.375,3.28125 0.84375,-0.0625 1.53125,1.0625 -2.6875,0.84375 -4.25,-1.625 -2.125,-1.625 -3.46875,-2.09375 z m -16.3125,0.0625 3.65625,5.125 0,1.40625 1.34375,0 5.5625,3.78125 -3.53125,1.84375 -1.8125,0 -0.5625,0.9375 -4.6875,2.6875 -4.15625,-2.4375 -0.21875,-0.78125 -1.875,0 L 53.53125,83.125 55.5,81.6875 58.78125,80 l 0.125,-0.375 0.75,-0.21875 3.8125,-6.21875 z m -31.25,0.8125 0.96875,0.25 -1.40625,1.4375 -0.90625,0.25 -1.0625,0.78125 -4.25,-1.3125 L 32.21875,74 z m 62.75,0.46875 7,0.40625 -1.65625,1.03125 -2.59375,0.8125 -1.78125,-0.90625 -0.96875,-1.34375 z m -13.65625,3.84375 2.3125,1.09375 -3.15625,1 0.1875,-1.25 0.65625,-0.84375 z m -36.90625,0.0937 0.375,1.53125 -2.15625,-0.3125 1.78125,-1.21875 z"
     id="path4477" />
  <path
     id="path4471"
     d="m 62.4375,19.0625 -1.53125,4.09375 -1.375,1.09375 -1.09375,7.9375 -4.09375,11.34375 -0.3125,7.3125 -1.96875,5.59375 -0.125,-7.71875 -2.3125,-5.28125 -0.21875,-1.53125 -1.5,-1.125 -1.625,1.15625 -0.375,1.03125 L 43.625,45.03125 41,56.84375 42.65625,66.75 c 18.67111,-1.876782 37.2761,-1.638218 55.78125,1.5 l 0.90625,0.03125 2.125,-6.75 -1.40625,-6.5625 -1.875,-5.15625 -0.78125,-0.5 L 94,38.84375 87.375,35 l -2.5625,9.46875 -1.46875,1.59375 -0.9375,5.0625 1.375,5.9375 0.15625,5.6875 -1.8125,-4.40625 -2.5,-9.03125 -2.5,-1.65625 -0.15625,-2.03125 -3.25,-12.4375 -4.0625,-10.875 -7.21875,-3.25 z M 35.1875,35.5 30.5,37.75 29.96875,39.3125 28.75,40.125 l -1.5,7.1875 -1.5,0.875 -2.125,7.625 -0.5625,0.8125 -0.1875,1.75 -1.0625,0.6875 -1.1875,-3.15625 -1,-0.03125 -2.9375,4.3125 -1.5,6.3125 -1,2.375 -3.5,3 C 19.04837,70.06148 27.41074,68.598853 35.75,67.53125 l 0,-2.03125 1.0625,-3 1.46875,-2.40625 L 39.25,57.875 40,51.6875 39.625,48.25 l -0.4375,-8.3125 -4,-4.4375 z m 70.125,20.1875 -0.78125,2.28125 -1.15625,1.3125 -1.71875,7.8125 1,1.71875 5.25,1.3125 c 2.92245,0.655688 5.83297,1.378113 8.75,2.1875 l -3.96875,-3.5 -0.6875,-1.375 -0.40625,-5.34375 -2.03125,-1.75 -1.15625,-3.25 -3.09375,-1.40625 z M 39.5,61.125 38.0625,64.3125 38.09375,65 l -0.75,2.3125 c 1.07701,-0.131187 2.14217,-0.226406 3.21875,-0.34375 L 40.53125,62.3125 39.5,61.125 z m 23.59375,7.34375 C 46.12081,68.47135 29.08006,70.224225 11.9375,73.5625 L 21,76.34375 22.15625,79 l 1.28125,-1.8125 3.28125,1.15625 1.25,1.8125 0.875,0.125 1.65625,1.9375 0.84375,-1.15625 0.71875,0.125 0.875,-0.6875 1.21875,1.21875 1.875,-1.53125 2.6875,1.25 0.6875,1.25 1.78125,-1.03125 22.4375,11.0625 18.28125,-9.78125 1.9375,0.5 1.53125,-1.34375 1.5625,1.4375 1.96875,-3 1.9375,-0.71875 2.40625,0.09375 1.75,2.5625 2.15625,-2.125 2.65625,-2.46875 1.59375,-0.65625 1.53125,0.15625 0.59375,0.875 L 107,75.59375 113.75,73.8125 C 96.96094,70.198596 80.06669,68.466134 63.09375,68.46875 z m 4.34375,3 2.53125,0.09375 2.0625,0.875 1.34375,0 1.40625,1.15625 2,0.78125 2.59375,2.40625 -0.875,1.0625 -0.28125,1.5 0.625,0.53125 -0.8125,0.65625 L 74.34375,78.4375 72.4375,77.5625 72.125,76.5 69.65625,75.1875 69.125,72.625 67.4375,71.46875 z m -7.90625,0.0625 -1.9375,3.1875 -2.96875,1.875 -0.375,1.46875 -5.90625,2.25 -1.4375,-0.5625 -1.125,-1.625 0.15625,-1.21875 2.5,-1.6875 4.8125,-1.4375 1.8125,-1.96875 4.46875,-0.28125 z M 47.6875,71.8125 44.40625,74.375 c 0,0 -1.53125,0.03125 -1.625,0.15625 -0.0937,0.125 -1,1.34375 -1,1.34375 l -4.375,1.5625 -3.6875,-1.375 2.875,-1.46875 1.90625,-1.78125 9.1875,-1 z m 32.09375,0.3125 6.78125,0.21875 3.375,3.28125 0.84375,-0.0625 1.53125,1.0625 -2.6875,0.84375 -4.25,-1.625 -2.125,-1.625 -3.46875,-2.09375 z m -16.3125,0.0625 3.65625,5.125 0,1.40625 1.34375,0 5.5625,3.78125 -3.53125,1.84375 -1.8125,0 -0.5625,0.9375 -4.6875,2.6875 -4.15625,-2.4375 -0.21875,-0.78125 -1.875,0 L 53.53125,82.125 55.5,80.6875 58.78125,79 l 0.125,-0.375 0.75,-0.21875 3.8125,-6.21875 z m -31.25,0.8125 0.96875,0.25 -1.40625,1.4375 -0.90625,0.25 -1.0625,0.78125 -4.25,-1.3125 L 32.21875,73 z m 62.75,0.46875 7,0.40625 -1.65625,1.03125 -2.59375,0.8125 -1.78125,-0.90625 -0.96875,-1.34375 z m -13.65625,3.84375 2.3125,1.09375 -3.15625,1 0.1875,-1.25 0.65625,-0.84375 z m -36.90625,0.09375 0.375,1.53125 -2.15625,-0.3125 1.78125,-1.21875 z"
     style="fill:url(#linearGradient4473);fill-opacity:1.0;stroke:none"
     inkscape:connector-curvature="0" />
</svg>
