<!-- Created with Inkscape (http://www.inkscape.org/) -->
<svg id="svg5157" xmlns:rdf="http://www.w3.org/1999/02/22-rdf-syntax-ns#" xmlns="http://www.w3.org/2000/svg" height="128" width="128" version="1.1" xmlns:cc="http://creativecommons.org/ns#" xmlns:xlink="http://www.w3.org/1999/xlink" xmlns:dc="http://purl.org/dc/elements/1.1/">
<defs id="defs5159">
<linearGradient id="linearGradient5879" y2="117.92" gradientUnits="userSpaceOnUse" x2="64.338" gradientTransform="matrix(1.3901193,0,0,1.3898458,-25.166593,-25.718336)" y1="13.998" x1="64.5">
<stop id="stop5875" stop-color="#b3f847" offset="0"/>
<stop id="stop5877" stop-color="#84c200" offset="1"/>
</linearGradient>
<radialGradient id="radialGradient3049" gradientUnits="userSpaceOnUse" cy="93.468" cx="-4.0288" gradientTransform="matrix(1.5563924,0,0,0.16978827,70.270355,102.1321)" r="35.338">
<stop id="stop3813" stop-color="#000" offset="0"/>
<stop id="stop3815" stop-color="#000" stop-opacity="0" offset="1"/>
</radialGradient>
<linearGradient id="linearGradient6357" y2="108.53" gradientUnits="userSpaceOnUse" x2="64.093" gradientTransform="matrix(1.3901193,0,0,1.3898458,-25.166593,-25.718336)" y1="21.492" x1="64.226">
<stop id="stop6030" stop-color="#FFF" offset="0"/>
<stop id="stop6032" stop-color="#FFF" stop-opacity="0.80079681" offset="0.42448"/>
<stop id="stop6034" stop-color="#FFF" stop-opacity="0.81673307" offset="0.75084"/>
<stop id="stop6036" stop-color="#FFF" stop-opacity="0.84063745" offset="1"/>
</linearGradient>
</defs>
<metadata id="metadata5162">
<rdf:RDF>
<cc:Work rdf:about="">
<dc:format>image/svg+xml</dc:format>
<dc:type rdf:resource="http://purl.org/dc/dcmitype/StillImage"/>
<dc:title/>
</cc:Work>
</rdf:RDF>
</metadata>
<path id="path3041" opacity="0.2" style="color:#000000;enable-background:accumulate;" d="m119,118a55,6,0,0,1,-110,0,55,6,0,1,1,110,0z" fill-rule="nonzero" fill="url(#radialGradient3049)"/>
<path id="path5865" fill="url(#linearGradient5879)" d="m55.46,11.547-1.3901,20.848-13.467,7.7744-18.767-9.2077-9.0358,15.636,17.376,11.64,0,15.549-17.376,11.64,9.0358,15.636,18.767-9.2077,13.467,7.7744,1.3901,20.848,18.072,0,1.3901-20.848,13.467-7.7744,18.767,9.2077,9.0358-15.636-17.376-11.64,0-15.549,17.376-11.64-9.0358-15.636-18.767,9.2077-13.467-7.7744-1.3901-20.848zm9.0358,35.702c9.9806,0,18.767,8.7842,18.767,18.763,0,9.9787-8.786,18.763-18.767,18.763-9.9806,0-18.767-8.7842-18.767-18.763,0-9.9787,8.786-18.763,18.767-18.763z"/>
<path id="path5897" opacity="0.4969325" d="m54.938,32.812c-0.65899,0.74491-1.8099,1.0902-2.6658,1.6816-3.8725,2.2403-7.7395,4.4906-11.615,6.7246-6.1257-3.0614-12.291-6.0656-18.438-9.0938-2.7292,4.7292-5.4583,9.4583-8.1875,14.188,5.6803,3.7967,11.37,7.5835,17.031,11.406v16.562c-5.6612,3.8227-11.351,7.6095-17.031,11.406,2.7396,4.7396,5.4792,9.4792,8.2188,14.219,6.1228-3.034,12.276-6.0212,18.375-9.0938,4.7835,2.737,9.5662,5.4844,14.312,8.2812,0.43972,6.8336,0.8972,13.667,1.3438,20.5h16.406c0.45693-6.8438,0.92505-13.687,1.375-20.531,4.747-2.7671,9.5192-5.5043,14.281-8.25,6.1178,3.0564,12.264,6.0778,18.406,9.0938,2.7396-4.7396,5.4792-9.4792,8.2188-14.219-5.6803-3.7967-11.37-7.5835-17.031-11.406v-16.562c5.6484-3.816,11.328-7.5925,17-11.375-2.7292-4.7292-5.4583-9.4583-8.1875-14.188-6.1106,3.0485-12.281,5.9902-18.375,9.0625-4.7835-2.737-9.5662-5.4844-14.312-8.2812-0.43973-6.844-0.8972-13.687-1.3438-20.531h-16.406c-0.45833,6.8021-0.91667,13.604-1.375,20.406zm9.7812,13.562c4.0149,0.01577,7.9065,1.5319,11.125,3.875,1.9656,1.5815,3.8133,3.4015,5.193,5.5346,2.3186,3.6328,3.5465,8.0641,2.9518,12.377-0.31419,2.9495-1.4846,5.7743-3.0648,8.2574-1.515,2.2528-3.5405,4.1641-5.695,5.7916-3.9438,2.7216-8.9353,4.0131-13.693,3.1932-3.1821-0.52643-6.1918-1.9334-8.7542-3.8728-2.3714-2.0725-4.6689-4.4063-5.982-7.3179-2.2582-4.49-2.587-9.9276-0.75838-14.624,1.1994-3.3963,3.4615-6.3031,6.194-8.6071,2.2786-1.9611,5.0868-3.3681,8.0229-4.0883,1.4604-0.3476,2.9569-0.55729,4.461-0.51911z" stroke="url(#linearGradient6357)" stroke-width="1" fill="none"/>
<path id="path6124" opacity="0.40000000000000002" d="m55.46,11.547-1.3901,20.848-13.467,7.7744-18.767-9.2077-9.0358,15.636,17.376,11.64,0,15.549-17.376,11.64,9.0358,15.636,18.767-9.2077,13.467,7.7744,1.3901,20.848,18.072,0,1.3901-20.848,13.467-7.7744,18.767,9.2077,9.0358-15.636-17.376-11.64,0-15.549,17.376-11.64-9.0358-15.636-18.767,9.2077-13.467-7.7744-1.3901-20.848zm9.0358,35.702c9.9806,0,18.767,8.7842,18.767,18.763,0,9.9787-8.786,18.763-18.767,18.763-9.9806,0-18.767-8.7842-18.767-18.763,0-9.9787,8.786-18.763,18.767-18.763z" stroke="#49690e" fill="none"/>
</svg>
