<?xml version="1.0" encoding="UTF-8" standalone="no"?>
<!-- Created with Inkscape (http://www.inkscape.org/) -->
<svg id="svg3489" xmlns:rdf="http://www.w3.org/1999/02/22-rdf-syntax-ns#" xmlns="http://www.w3.org/2000/svg" height="128" width="128" version="1.1" xmlns:cc="http://creativecommons.org/ns#" xmlns:xlink="http://www.w3.org/1999/xlink" xmlns:dc="http://purl.org/dc/elements/1.1/">
 <defs id="defs3491">
  <linearGradient id="linearGradient3174" y2="40.496" gradientUnits="userSpaceOnUse" x2="71.204" gradientTransform="matrix(4.6537492,0,0,4.6537492,-271.8895,-67.187095)" y1="15.369" x1="71.204">
   <stop id="stop4808" stop-color="#FFF" offset="0"/>
   <stop id="stop4810" stop-color="#FFF" stop-opacity="0.23529412" offset="0.42448"/>
   <stop id="stop4812" stop-color="#FFF" stop-opacity="0.15686275" offset="0.8209"/>
   <stop id="stop4814" stop-color="#FFF" stop-opacity="0.39215687" offset="1"/>
  </linearGradient>
  <radialGradient id="radialGradient3195" gradientUnits="userSpaceOnUse" cy="186.17" cx="99.157" gradientTransform="matrix(0.76470724,0,0,0.23897108,-11.826088,67.009093)" r="62.769">
   <stop id="stop3822-2-6" stop-color="#3d3d3d" offset="0"/>
   <stop id="stop3864-8-7" stop-color="#686868" stop-opacity="0.49803922" offset="0.5"/>
   <stop id="stop3824-1-2" stop-color="#686868" stop-opacity="0" offset="1"/>
  </radialGradient>
  <linearGradient id="linearGradient3978" y2="123.15" gradientUnits="userSpaceOnUse" x2="63.944" gradientTransform="matrix(1.8995e-8,4.364,-4.364,1.8995e-8,82.948,-187.94)" y1="2.9985" x1="64">
   <stop id="stop38" stop-color="#fafafa" offset="0"/>
   <stop id="stop40" stop-color="#e1e1e1" offset="1"/>
  </linearGradient>
  <linearGradient id="linearGradient3988" y2="42.28" gradientUnits="userSpaceOnUse" x2="100.25" y1="45.142" x1="35.975">
   <stop id="stop3984" stop-color="#000" offset="0"/>
   <stop id="stop3986" stop-color="#000" stop-opacity="0" offset="1"/>
  </linearGradient>
  <linearGradient id="linearGradient3998" y2="80.005" gradientUnits="userSpaceOnUse" x2="85.331" gradientTransform="matrix(0.70710678,0.70710678,-0.70710678,0.70710678,62.891429,-25.94393)" y1="40.644" x1="80.912">
   <stop id="stop3994" stop-color="#000" offset="0"/>
   <stop id="stop3996" stop-color="#000" stop-opacity="0" offset="1"/>
  </linearGradient>
 </defs>
 <metadata id="metadata3494">
  <rdf:RDF>
   <cc:Work rdf:about="">
    <dc:format>image/svg+xml</dc:format>
    <dc:type rdf:resource="http://purl.org/dc/dcmitype/StillImage"/>
    <dc:title/>
   </cc:Work>
  </rdf:RDF>
 </metadata>
 <path id="path3818-0" d="m112,111.5a48,15,0,1,1,-96,0,48,15,0,1,1,96,0z" fill="url(#radialGradient3195)"/>
 <path id="path2555-7" style="enable-background:accumulate;color:#000000;" d="m64,3.4985c-32.554,0-59,26.446-59,59s26.446,59,59,59,59-26.446,59-59c0-32.556-26.446-59.002-59-59.002z" fill-rule="nonzero" fill="url(#linearGradient3978)"/>
 <path id="path2555-7-1" opacity="0.5" stroke-linejoin="round" style="enable-background:accumulate;color:#000000;" d="m64,3.4985c-32.554,0-59,26.446-59,59s26.446,59,59,59,59-26.446,59-59c0-32.556-26.446-59.002-59-59.002z" stroke-dashoffset="0" stroke="#001027" stroke-linecap="round" stroke-miterlimit="4" stroke-dasharray="none" stroke-width="1" fill="none"/>
 <path id="path3019" opacity="0.8" stroke-linejoin="round" style="enable-background:accumulate;color:#000000;" d="m122,62.498c0,32.187-26.52,57.994-58,57.994-32.276,0-58.031-26.514-58.031-57.994,0-32.408,26.551-58,58.031-58,32.355,0,58,26.52,58,58z" stroke-dashoffset="0" stroke="url(#linearGradient3174)" stroke-linecap="round" stroke-miterlimit="4" stroke-dasharray="none" stroke-width="1" fill="none"/>
 <path id="path4434" opacity="0.05" style="baseline-shift:baseline;block-progression:tb;color:#000000;direction:ltr;text-indent:0;text-align:start;enable-background:accumulate;text-transform:none;" d="M63.844,7.3438a1.5002,1.5002,0,0,0,-1.344,1.5312v7.5a1.5002,1.5002,0,1,0,3,0v-7.5a1.5002,1.5002,0,0,0,-1.656,-1.5312zm27.594,7.75a1.0001,1.0001,0,0,0,-0.125,0.03125,1.0001,1.0001,0,0,0,-0.6875,0.5l-2.1875,3.8438a1.0001,1.0001,0,1,0,1.7188,1l2.218-3.844a1.0001,1.0001,0,0,0,-0.937,-1.531zm-55.094,0.031a1.0001,1.0001,0,0,0,-0.71875,1.5l2.2188,3.8438a1.0001,1.0001,0,1,0,1.7188,-1l-2.188-3.844a1.0001,1.0001,0,0,0,-1.0312,-0.5zm74.966,19.844a1.0001,1.0001,0,0,0,-0.09,0.031,1.0001,1.0001,0,0,0,-0.34,0.125l-3.8438,2.2188a1.0001,1.0001,0,1,0,1,1.7188l3.84-2.188a1.0001,1.0001,0,0,0,-0.5625,-1.9062zm-94.841,0.031a1.0001,1.0001,0,0,0,-0.344,1.844l3.8438,2.2188a1.0001,1.0001,0,1,0,1,-1.7188l-3.844-2.219a1.0001,1.0001,0,0,0,-0.656,-0.125zm-7.4065,27a1.5081,1.5081,0,1,0,0.3125,3h7.5a1.5002,1.5002,0,1,0,0,-3h-7.5a1.5002,1.5002,0,0,0,-0.1562,0,1.502,1.502,0,0,0,-0.1563,0zm101.78,0a1.5066,1.5066,0,1,0,0.28125,3h7.5312a1.5002,1.5002,0,1,0,0,-3h-7.5312a1.5002,1.5002,0,0,0,-0.125,0,1.5013,1.5013,0,0,0,-0.15625,0zm-90.438,25.75a1.0001,1.0001,0,0,0,-0.09375,0.03125,1.0001,1.0001,0,0,0,-0.34375,0.125l-3.839,2.219a1.0078,1.0078,0,1,0,1,1.75l3.8438-2.2188a1.0001,1.0001,0,0,0,-0.563,-1.906zm86.969,0.03125a1.0001,1.0001,0,0,0,-0.34375,1.875l3.85,2.219a1.0078,1.0078,0,1,0,1,-1.75l-3.8438-2.1875a1.0001,1.0001,0,0,0,-0.66,-0.157zm-68.844,18.25a1.0001,1.0001,0,0,0,-0.6875,0.5l-2.2188,3.8125a1.0078,1.0078,0,1,0,1.75,1l2.1875-3.8125a1.0001,1.0001,0,0,0,-1.0312,-1.5zm50.625,0a1.0001,1.0001,0,0,0,-0.71875,1.5l2.1875,3.8438a1.0078,1.0078,0,1,0,1.75,-1l-2.2188-3.8438a1.0001,1.0001,0,0,0,-1,-0.5zm-25.344,5.0625a1.5002,1.5002,0,0,0,-1.307,1.53v7.5a1.5002,1.5002,0,1,0,3,0v-7.5a1.5002,1.5002,0,0,0,-1.5312,-1.5312,1.5002,1.5002,0,0,0,-0.15625,0z" stroke="#000" stroke-width="3" fill="#000"/>
 <path id="path4436" opacity="0.3" style="baseline-shift:baseline;block-progression:tb;color:#000000;direction:ltr;text-indent:0;text-align:start;enable-background:accumulate;text-transform:none;" fill="#000" d="M63.844,7.3438a1.5002,1.5002,0,0,0,-1.344,1.5312v7.5a1.5002,1.5002,0,1,0,3,0v-7.5a1.5002,1.5002,0,0,0,-1.656,-1.5312zm27.594,7.75a1.0001,1.0001,0,0,0,-0.125,0.03125,1.0001,1.0001,0,0,0,-0.6875,0.5l-2.1875,3.8438a1.0001,1.0001,0,1,0,1.7188,1l2.218-3.844a1.0001,1.0001,0,0,0,-0.937,-1.531zm-55.094,0.031a1.0001,1.0001,0,0,0,-0.71875,1.5l2.2188,3.8438a1.0001,1.0001,0,1,0,1.7188,-1l-2.188-3.844a1.0001,1.0001,0,0,0,-1.0312,-0.5zm74.966,19.844a1.0001,1.0001,0,0,0,-0.09,0.031,1.0001,1.0001,0,0,0,-0.34,0.125l-3.8438,2.2188a1.0001,1.0001,0,1,0,1,1.7188l3.84-2.188a1.0001,1.0001,0,0,0,-0.5625,-1.9062zm-94.841,0.031a1.0001,1.0001,0,0,0,-0.344,1.844l3.8438,2.2188a1.0001,1.0001,0,1,0,1,-1.7188l-3.844-2.219a1.0001,1.0001,0,0,0,-0.656,-0.125zm-7.4065,27a1.5081,1.5081,0,1,0,0.3125,3h7.5a1.5002,1.5002,0,1,0,0,-3h-7.5a1.5002,1.5002,0,0,0,-0.1562,0,1.502,1.502,0,0,0,-0.1563,0zm101.78,0a1.5066,1.5066,0,1,0,0.28125,3h7.5312a1.5002,1.5002,0,1,0,0,-3h-7.5312a1.5002,1.5002,0,0,0,-0.125,0,1.5013,1.5013,0,0,0,-0.15625,0zm-90.438,25.75a1.0001,1.0001,0,0,0,-0.09375,0.03125,1.0001,1.0001,0,0,0,-0.34375,0.125l-3.839,2.219a1.0078,1.0078,0,1,0,1,1.75l3.8438-2.2188a1.0001,1.0001,0,0,0,-0.563,-1.906zm86.969,0.03125a1.0001,1.0001,0,0,0,-0.34375,1.875l3.85,2.219a1.0078,1.0078,0,1,0,1,-1.75l-3.8438-2.1875a1.0001,1.0001,0,0,0,-0.66,-0.157zm-68.844,18.25a1.0001,1.0001,0,0,0,-0.6875,0.5l-2.2188,3.8125a1.0078,1.0078,0,1,0,1.75,1l2.1875-3.8125a1.0001,1.0001,0,0,0,-1.0312,-1.5zm50.625,0a1.0001,1.0001,0,0,0,-0.71875,1.5l2.1875,3.8438a1.0078,1.0078,0,1,0,1.75,-1l-2.2188-3.8438a1.0001,1.0001,0,0,0,-1,-0.5zm-25.344,5.0625a1.5002,1.5002,0,0,0,-1.307,1.53v7.5a1.5002,1.5002,0,1,0,3,0v-7.5a1.5002,1.5002,0,0,0,-1.5312,-1.5312,1.5002,1.5002,0,0,0,-0.15625,0z"/>
 <path id="use4270" style="baseline-shift:baseline;block-progression:tb;color:#000000;direction:ltr;text-indent:0;text-align:start;enable-background:accumulate;text-transform:none;" fill="#000" d="M63.844,6.3438a1.5002,1.5002,0,0,0,-1.344,1.5312v7.5a1.5002,1.5002,0,1,0,3,0v-7.5a1.5002,1.5002,0,0,0,-1.656,-1.5312zm27.594,7.7502a1.0001,1.0001,0,0,0,-0.126,0.031,1.0001,1.0001,0,0,0,-0.687,0.5l-2.187,3.844a1.0001,1.0001,0,1,0,1.718,1l2.219-3.844a1.0001,1.0001,0,0,0,-0.937,-1.531zm-55.094,0.031a1.0001,1.0001,0,0,0,-0.719,1.5l2.219,3.844a1.0001,1.0001,0,1,0,1.718,-1l-2.187-3.844a1.0001,1.0001,0,0,0,-1.031,-0.5zm74.966,19.844a1.0001,1.0001,0,0,0,-0.09,0.031,1.0001,1.0001,0,0,0,-0.34,0.125l-3.85,2.219a1.0001,1.0001,0,1,0,1,1.718l3.85-2.187a1.0001,1.0001,0,0,0,-0.57,-1.906zm-94.841,0.031a1.0001,1.0001,0,0,0,-0.344,1.844l3.844,2.218a1.0001,1.0001,0,1,0,1,-1.718l-3.844-2.219a1.0001,1.0001,0,0,0,-0.656,-0.125zm-7.4065,27a1.502,1.502,0,0,0,0.3125,3h7.5a1.5002,1.5002,0,1,0,0,-3h-7.5a1.5002,1.5002,0,0,0,-0.1562,0,1.502,1.502,0,0,0,-0.1563,0zm101.78,0a1.5013,1.5013,0,0,0,0.28,3h7.54a1.5002,1.5002,0,1,0,0,-3h-7.54a1.5002,1.5002,0,0,0,-0.12,0,1.5013,1.5013,0,0,0,-0.16,0zm-90.434,25.75a1.0001,1.0001,0,0,0,-0.094,0.031,1.0001,1.0001,0,0,0,-0.343,0.125l-3.844,2.219a1.0078,1.0078,0,0,0,1,1.75l3.844-2.219a1.0001,1.0001,0,0,0,-0.563,-1.906zm86.974,0.031a1.0001,1.0001,0,0,0,-0.35,1.875l3.85,2.219a1.0078,1.0078,0,0,0,1,-1.75l-3.85-2.187a1.0001,1.0001,0,0,0,-0.65,-0.157zm-68.849,18.249a1.0001,1.0001,0,0,0,-0.687,0.5l-2.219,3.81a1.0078,1.0078,0,0,0,1.75,1l2.187-3.81a1.0001,1.0001,0,0,0,-1.031,-1.5zm50.625,0a1.0001,1.0001,0,0,0,-0.718,1.5l2.187,3.85a1.0078,1.0078,0,0,0,1.75,-1l-2.219-3.85a1.0001,1.0001,0,0,0,-1,-0.5zm-25.344,5.06a1.5002,1.5002,0,0,0,-1.312,1.53v7.5a1.5002,1.5002,0,1,0,3,0v-7.5a1.5002,1.5002,0,0,0,-1.531,-1.53,1.5002,1.5002,0,0,0,-0.157,0z"/>
 <path id="path3949" d="m75.395,52.693a3.8007,3.8007,0,1,1,-7.6014,0,3.8007,3.8007,0,1,1,7.6014,0z" transform="translate(-7.6101747,9.8025215)" stroke-dasharray="none" stroke-miterlimit="4" stroke-width="3" fill="#000"/>
 <path id="path3951" stroke-linejoin="miter" d="m56.215,22.288s0.69831,2.9082,7.7694,40.208" stroke="#000" stroke-linecap="round" stroke-miterlimit="4" stroke-dasharray="none" stroke-width="3" fill="none"/>
 <path id="path3953" stroke-linejoin="miter" d="M63.944,63.491,83.949,81.842" stroke="#000" stroke-linecap="round" stroke-miterlimit="4" stroke-dasharray="none" stroke-width="4.5" fill="none"/>
 <path id="path3980" opacity="0.41584160999999997" fill="url(#linearGradient3988)" d="M63.984,62.496,56.038,21.404c13.318-4.8509,36.254,9.3775,39.337,16.523l-31.375,24.571"/>
 <path id="path3990" fill="url(#linearGradient3998)" d="m64.328,63.879,20.87,18.963c-1.8267,2.0617-9.3447,6.8071-12.754,7.2859z"/>
 <path id="path3202" opacity="0.3" d="m75.395,52.693a3.8007,3.8007,0,1,1,-7.6014,0,3.8007,3.8007,0,1,1,7.6014,0z" transform="translate(-7.6101747,10.802521)" stroke-dasharray="none" stroke-miterlimit="4" stroke-width="3" fill="#000"/>
 <path id="path3204" stroke-linejoin="miter" opacity="0.3" d="m56.215,23.288s0.69831,2.9082,7.7694,40.208" stroke="#000" stroke-linecap="round" stroke-miterlimit="4" stroke-dasharray="none" stroke-width="3" fill="#000"/>
 <path id="path3206" stroke-linejoin="miter" opacity="0.3" d="M63.944,64.491,83.949,82.842" stroke="#000" stroke-linecap="round" stroke-miterlimit="4" stroke-dasharray="none" stroke-width="4.50000000000000000" fill="#000"/>
 <path id="path3976" opacity="0.15" d="m75.395,52.693a3.8007,3.8007,0,1,1,-7.6014,0,3.8007,3.8007,0,1,1,7.6014,0z" transform="translate(-7.6101747,11.802521)" stroke-dasharray="none" stroke-miterlimit="4" stroke-width="3" fill="#000"/>
 <path id="path3978" opacity="0.15" stroke-linejoin="miter" d="m56.215,24.288s0.69831,2.9082,7.7694,40.208" stroke="#000" stroke-linecap="round" stroke-miterlimit="4" stroke-dasharray="none" stroke-width="3" fill="#000"/>
 <path id="path3981" opacity="0.15" stroke-linejoin="miter" d="M63.944,65.491,83.949,83.842" stroke="#000" stroke-linecap="round" stroke-miterlimit="4" stroke-dasharray="none" stroke-width="4.50000000000000000" fill="#000"/>
</svg>
