<?xml version="1.0" encoding="UTF-8" standalone="no"?>
<!-- Created with Inkscape (http://www.inkscape.org/) -->
<svg id="svg3489" xmlns:rdf="http://www.w3.org/1999/02/22-rdf-syntax-ns#" xmlns="http://www.w3.org/2000/svg" height="128" width="128" version="1.1" xmlns:cc="http://creativecommons.org/ns#" xmlns:xlink="http://www.w3.org/1999/xlink" xmlns:dc="http://purl.org/dc/elements/1.1/">
 <defs id="defs3491">
  <linearGradient id="linearGradient3269" y2="40.496" gradientUnits="userSpaceOnUse" x2="71.204" gradientTransform="matrix(4.6537492,0,0,4.6537492,-271.8895,-65.687095)" y1="15.369" x1="71.204">
   <stop id="stop4808" stop-color="#FFF" offset="0"/>
   <stop id="stop4810" stop-color="#FFF" stop-opacity="0.23529412" offset="0.42448"/>
   <stop id="stop4812" stop-color="#FFF" stop-opacity="0.15686275" offset="0.8209"/>
   <stop id="stop4814" stop-color="#FFF" stop-opacity="0.39215687" offset="1"/>
  </linearGradient>
  <radialGradient id="radialGradient3276" gradientUnits="userSpaceOnUse" cy="186.17" cx="99.157" gradientTransform="matrix(0.76470724,0,0,0.23897108,-11.826088,68.509093)" r="62.769">
   <stop id="stop3822-2-6" stop-color="#3d3d3d" offset="0"/>
   <stop id="stop3864-8-7" stop-color="#686868" stop-opacity="0.49803922" offset="0.5"/>
   <stop id="stop3824-1-2" stop-color="#686868" stop-opacity="0" offset="1"/>
  </radialGradient>
  <radialGradient id="radialGradient4052" gradientUnits="userSpaceOnUse" cy="27.812" cx="54.567" gradientTransform="matrix(0.9494628,0,0,0.80859758,2.7576798,5.323345)" r="59">
   <stop id="stop4048" stop-color="#815c97" stop-opacity="0.55284554" offset="0"/>
   <stop id="stop4050" stop-color="#815c97" offset="1"/>
  </radialGradient>
  <radialGradient id="radialGradient4148" gradientUnits="userSpaceOnUse" cy="9.2507" cx="75.186" gradientTransform="matrix(0.73086114,0,0,0.72355095,-0.6785694,21.396389)" r="58.094">
   <stop id="stop4083" stop-color="#80ff80" offset="0"/>
   <stop id="stop4085" stop-color="#62ff62" offset="1"/>
  </radialGradient>
 </defs>
 <metadata id="metadata3494">
  <rdf:RDF>
   <cc:Work rdf:about="">
    <dc:format>image/svg+xml</dc:format>
    <dc:type rdf:resource="http://purl.org/dc/dcmitype/StillImage"/>
    <dc:title/>
   </cc:Work>
  </rdf:RDF>
 </metadata>
 <path id="path3818-0" d="m112,113a48,15,0,1,1,-96,0,48,15,0,1,1,96,0z" fill="url(#radialGradient3276)"/>
 <path id="path2555-7" style="enable-background:accumulate;color:#000000;" d="m64,4.9985c-32.554,0-59,26.446-59,59s26.446,59,59,59,59-26.446,59-59c0-32.556-26.446-59.002-59-59.002z" fill-rule="nonzero" fill="url(#radialGradient4052)"/>
 <path id="path4133" opacity="0.14999999999999999" d="M64,6c-10.998,0-21.306,3.029-30.125,8.281-5.584,5.027-2.85,11.069,8.313,16.688,3.633,1.829,7.784,2.956,12.156,3.531,2.091,4.868,3.537,9.377,3.312,14.969-3.82-0.237-7.699-0.68-11.75-1.344,0.911-1.877,1.297-4.625,1.563-7.594,0.161-2.952-3.265-2.227-5.063-1.031l-5.218,3.625c-3.659,0.994-3.679-0.792-2.75-2.437,2.484-2.63,4.236-3.097,6.218-4.219,1.213-1.045,0.238-1.607-1.937-1.625-7.795-0.065-11.487-7.443-13.938-13.906-0.148,0.132-0.29,0.272-0.437,0.406-0.522,0.474-1.027,0.976-1.532,1.468-0.338,0.331-0.669,0.662-1,1-0.119,0.123-0.256,0.22-0.374,0.344-0.373,0.389-0.732,0.789-1.094,1.188-0.392,0.431-0.777,0.869-1.156,1.312-0.284,0.331-0.568,0.663-0.844,1-0.364,0.444-0.743,0.889-1.094,1.344-0.151,0.195-0.289,0.396-0.438,0.594-0.125,0.166-0.251,0.332-0.374,0.5-0.308,0.418-0.61,0.855-0.907,1.281-0.151,0.217-0.289,0.437-0.437,0.656-0.531,0.785-1.038,1.564-1.532,2.375-0.425,0.7-0.853,1.407-1.25,2.125-0.103,0.187-0.211,0.375-0.312,0.563-0.045,0.083-0.081,0.167-0.125,0.25-0.365,0.685-0.724,1.392-1.063,2.094-0.414,0.859-0.782,1.711-1.1558,2.593-0.3734,0.882-0.7313,1.784-1.0624,2.688-0.0034,0.009,0.0033,0.022,0,0.031-0.3274,0.894-0.6529,1.805-0.9376,2.719-0.2875,0.923-0.5697,1.839-0.8124,2.781-0.2297,0.889-0.4366,1.783-0.625,2.688,2.3157,1.951,4.2542,3.741,5.0002,6.124,0.581,4.378,0.325,9.103,0.031,13.813-2.1976-1.867-4.273-3.865-6.1875-6.031,0.0469,0.983,0.1242,1.967,0.2187,2.937,0.6399,0.792,1.3199,1.562,2.1563,2.375,1.2016,1.169,2.4391,2.247,3.6875,3.313-0.064,1.031-0.139,2.076-0.187,3.093,0.439,3.867,2.984,5.401,3.687,7.5,0.739,2.526,0.458,5.042-0.375,7.563-0.8-0.629-1.579-1.281-2.344-1.937,5.76,10.792,14.793,19.602,25.75,25.092-1.36-2.72-1.624-5.2-0.25-7.34,13.236,4.71,29.037,6.67,45.5,3,3.398,5.17,8.681,1.06,10.25-3.03,5.487-2.02,11.024-4.69,16.504-8.16,0,0.02,0.02,0.04,0.03,0.06,5.58-6.821,9.66-14.917,11.75-23.779-6.58,4.871-14.42,8.63-12.41,20.813-5.12,2.986-10.322,5.366-15.499,7.216,0.168-4.64,0.225-9.763,0.594-13.31,0.116-1.117,0.415-1.992,0.844-2.719,0.081-0.027,0.169-0.035,0.25-0.062,11.941-4.047,21.571-10.6,27.221-17.407,0.11-0.83,0.2-1.658,0.28-2.5-5.73,6.079-13.1,10.908-21.44,14.438,0.24-2.218-0.24-3.987-0.56-6.562-0.35-0.49-0.996-0.362-1.595-0.438-3.524-0.445-8.662-2.121-12.437-5.219l-6.532,0.281c-6.867,0.281-10.33,3.84-12,9.126-0.442,3.311-2.442,6.762,1.063,9.687-9.344,0.354-18.832-0.578-27.844-2.906-2.236-1.536-5.326-2.662-9.437-3.031-5.209-2.011-10.167-4.512-14.719-7.563,0.004-0.033-0.005-0.06,0-0.094l2.187-9.125c0.232-2.487,3.272-4.13,6.063,0,2.327,4.052,3.917,8.105,7.093,12.156-0.085-2.218,0.256-4.437-0.437-6.656l-2.156-6.468c17.795,7.755,43.631,7.79,63.75,1.531,0.917,0.952,1.512,2.646,1.906,5.625,0.171,1.295,2.406,0.187,2.406,0.187,2.729-2.03,6.649-4.596,6.439-6.062l0.22-4.125c2.54-1.265,4.92-2.638,7.06-4.156,1.93,3.047,3.34,6.051,4.16,9,0.5,1.195,1.6,1.324,1.97-0.219l1.28-10.719c0.23-2.402,1.85-2.056,3.25-1.531-0.01-0.063-0.03-0.125-0.03-0.188-0.03-0.167-0.04-0.333-0.07-0.5-0.11-0.724-0.24-1.441-0.37-2.156-0.13-0.663-0.26-1.345-0.41-2-0.02-0.093-0.04-0.188-0.06-0.281-0.01-0.052-0.02-0.104-0.03-0.156-0.19-0.786-0.41-1.54-0.63-2.313-0.23-0.825-0.48-1.659-0.75-2.469-0.26-0.81-0.54-1.612-0.84-2.406-0.28-0.75-0.56-1.483-0.88-2.219-0.01-0.043-0.04-0.081-0.06-0.125-0.35-0.829-0.7-1.659-1.09-2.468-0.34-0.706-0.73-1.405-1.1-2.094-0.38-0.729-0.77-1.446-1.18-2.156-0.01-0.013-0.03-0.02-0.03-0.032-0.15-0.248-0.29-0.504-0.44-0.75-0.11-0.181-0.23-0.351-0.35-0.531-0.36-0.585-0.74-1.147-1.12-1.719-0.03-0.038-0.04-0.086-0.06-0.125-0.25-0.368-0.5-0.731-0.75-1.093-0.29-0.405-0.58-0.822-0.88-1.219-0.2-0.273-0.42-0.544-0.62-0.813-0.07-0.083-0.13-0.167-0.19-0.25-0.44-0.556-0.89-1.085-1.35-1.625-0.01-0.017-0.01-0.045-0.03-0.062-0.46-0.553-0.95-1.091-1.43-1.625-0.08-0.082-0.15-0.169-0.22-0.25-0.57-0.614-1.13-1.224-1.72-1.813s-1.2-1.154-1.81-1.719c-3.33,2.005-3.35,5.209-3.35,8.407,0.13,1.057-0.815,1.186-1.435,1.406-5.099,1.809-8.516,1.228-9.219,8,0.155,1.414-1.226,1.493-1.718,1.625-3.852,1.031-7.063,3.745-10.094,7.5-4.563,0.696-8.868,1.082-13.063,1.156,4.095-4.663,6.629-9.638,5.563-15.312,12.537-1.68,23.639-6.582,25.937-11.719-0.216-0.413,0.06-1.181-1.469-0.719-6.362,6.438-16.049,8.88-25.374,9.375-0.233-0.578-0.504-1.156-0.813-1.75-1.203-1.926-4.05-4.377-5.625-4.375-0.105,0-0.22,0.009-0.312,0.032-2.181-0.072-8.345,2.475-9.626,5.187-3.275-0.523-6.029-1.167-7.937-1.781-16.756-5.394-10.795-12.393-1.406-16.406,8.557-3.6585,30.451-8.3992,50.843,5.781,1.375,0.698,1.455-0.079,1.438-0.657-3.626-3.339-7.536-5.789-11.562-7.562-6.44-2.4155-13.411-3.75-20.688-3.75zm-0.156,4.094c-6.265,0-11.344,2.476-11.344,5.531s5.079,5.531,11.344,5.531,11.344-2.476,11.344-5.531-5.079-5.531-11.344-5.531zm0,2.937c4.009,0,9.594,0.858,9.594,2.813s-5.585,2.281-9.594,2.281c-4.01,0-6.719-0.545-6.719-2.5s2.709-2.594,6.719-2.594zm-30.594,34.563c0.218-0.012,0.439-0.012,0.656,0,1.578,0.087,3.102,0.753,4,1.312,2.9,1.792,4.899,2.027,6.282,1.25v0.188c4.933,1,9.193,1.619,13.218,1.937-0.03,0.229-0.058,0.455-0.094,0.688-0.326,3.662,1.242,1.998,2.157,2.187,0.978-0.867,1.939-1.743,2.843-2.625,4.435,0.062,8.784-0.29,13.563-1-0.901,1.281-1.813,2.607-2.719,4.031-6.135,14.641,8.656,15.385,11.5,2.438,0.235-1.069,1.15-1.088,1.563-0.438,0.346,0.547-0.332,8.079,0.593,9.438,0.042,0.062,0.109,0.102,0.157,0.156-17.588,3.955-39.055,3.971-58.25-3.812l-0.281-0.844c-1.664-11.733,1.544-14.735,4.812-14.906zm73.03,6.5c0.73-0.183,1.67,0.839,2.66,2.062,0.55,0.71,1.06,1.419,1.56,2.125-1.74,1.031-3.63,2.033-5.66,2.969l0.22-4.094c0.21-2.045,0.65-2.92,1.22-3.062zm-89.155,26.031c2.581,1.79,5.229,3.419,7.937,4.844-3.955,0.126-7.548-0.236-7.937-4.844zm28.063,12.187c11.138,2.471,22.518,2.614,33.093,1.126,0.611,0.714,1.103,1.714,1.438,3.093l1.687,12.439c-14.553,2.93-28.757,1.85-41.406-2.03,0.071-0.05,0.146-0.08,0.219-0.13,4.843-1.86,7.676-8.881,4.969-14.498z" stroke="#000" stroke-miterlimit="4" stroke-dasharray="none" stroke-width="2" fill="#000"/>
 <path id="path4137" opacity="0.15" d="M64,5.5c-10.998,0-21.306,3.029-30.125,8.281-5.584,5.027-2.85,11.069,8.313,16.688,3.633,1.829,7.784,2.956,12.156,3.531,2.091,4.868,3.537,9.377,3.312,14.969-3.82-0.237-7.699-0.68-11.75-1.344,0.911-1.877,1.297-4.625,1.563-7.594,0.161-2.952-3.265-2.227-5.063-1.031l-5.218,3.625c-3.659,0.994-3.679-0.792-2.75-2.437,2.484-2.63,4.236-3.097,6.218-4.219,1.213-1.045,0.238-1.607-1.937-1.625-7.795-0.065-11.487-7.443-13.938-13.906-0.148,0.132-0.29,0.272-0.437,0.406-0.522,0.474-1.027,0.976-1.532,1.468-0.338,0.331-0.669,0.662-1,1-0.119,0.123-0.256,0.22-0.374,0.344-0.373,0.389-0.732,0.789-1.094,1.188-0.392,0.431-0.777,0.869-1.156,1.312-0.284,0.331-0.568,0.663-0.844,1-0.364,0.444-0.743,0.889-1.094,1.344-0.151,0.195-0.289,0.396-0.438,0.594-0.125,0.166-0.251,0.332-0.374,0.5-0.308,0.418-0.61,0.855-0.907,1.281-0.151,0.217-0.289,0.437-0.437,0.656-0.531,0.785-1.038,1.564-1.532,2.375-0.425,0.7-0.853,1.407-1.25,2.125-0.103,0.187-0.211,0.375-0.312,0.563-0.045,0.083-0.081,0.167-0.125,0.25-0.365,0.685-0.724,1.392-1.063,2.094-0.414,0.859-0.782,1.711-1.1558,2.593-0.3734,0.882-0.7313,1.784-1.0624,2.688-0.0034,0.009,0.0033,0.022,0,0.031-0.3274,0.894-0.6529,1.805-0.9376,2.719-0.2875,0.923-0.5697,1.839-0.8124,2.781-0.2297,0.889-0.4366,1.783-0.625,2.688,2.3157,1.951,4.2542,3.741,5.0002,6.124,0.581,4.378,0.325,9.103,0.031,13.813-2.1976-1.867-4.273-3.865-6.1875-6.031,0.0057,0.145-0.0068,0.292,0,0.437,0.0083,0.178,0.0214,0.354,0.0313,0.531,0.0354,0.638,0.1006,1.275,0.1562,1.907,0.6524,0.81,1.3326,1.606,2.1875,2.437,1.2016,1.169,2.4391,2.247,3.6875,3.313-0.064,1.031-0.139,2.076-0.187,3.093,0.439,3.867,2.984,5.401,3.687,7.5,0.739,2.526,0.458,5.042-0.375,7.563-0.965-0.758-1.899-1.549-2.812-2.344,5.795,11.329,15.16,20.559,26.593,26.189-1.668-2.99-2.113-5.71-0.625-8.03,13.236,4.71,29.037,6.67,45.5,3,3.398,5.17,8.681,1.06,10.25-3.03,5.487-2.02,11.024-4.69,16.504-8.16,0.03,0.15,0.08,0.29,0.12,0.44,5.67-6.96,9.75-15.231,11.78-24.284-6.61,4.922-14.56,8.668-12.53,20.938-5.12,2.986-10.322,5.366-15.499,7.216,0.168-4.64,0.225-9.763,0.594-13.31,0.116-1.117,0.415-1.992,0.844-2.719,0.081-0.027,0.169-0.035,0.25-0.062,11.991-4.064,21.641-10.663,27.281-17.5,0.1-0.82,0.21-1.639,0.28-2.469-5.74,6.109-13.13,10.958-21.5,14.5,0.24-2.218-0.24-3.987-0.56-6.562-0.35-0.49-0.996-0.362-1.595-0.438-3.524-0.445-8.662-2.121-12.437-5.219l-6.532,0.281c-6.867,0.281-10.33,3.84-12,9.126-0.442,3.311-2.442,6.762,1.063,9.687-9.344,0.354-18.832-0.578-27.844-2.906-2.236-1.536-5.326-2.662-9.437-3.031-5.209-2.011-10.167-4.512-14.719-7.563,0.004-0.033-0.005-0.06,0-0.094l2.187-9.125c0.232-2.487,3.272-4.13,6.063,0,2.327,4.052,3.917,8.105,7.093,12.156-0.085-2.218,0.256-4.437-0.437-6.656l-2.156-6.468c17.795,7.755,43.631,7.79,63.75,1.531,0.917,0.952,1.512,2.646,1.906,5.625,0.171,1.295,2.406,0.187,2.406,0.187,2.729-2.03,6.649-4.596,6.439-6.062l0.22-4.125c2.54-1.265,4.92-2.638,7.06-4.156,1.93,3.047,3.34,6.051,4.16,9,0.5,1.195,1.6,1.324,1.97-0.219l1.28-10.719c0.23-2.402,1.85-2.056,3.25-1.531-0.01-0.063-0.03-0.125-0.03-0.188-0.03-0.167-0.04-0.333-0.07-0.5-0.11-0.724-0.24-1.441-0.37-2.156-0.13-0.663-0.26-1.345-0.41-2-0.02-0.093-0.04-0.188-0.06-0.281-0.01-0.052-0.02-0.104-0.03-0.156-0.19-0.786-0.41-1.54-0.63-2.313-0.23-0.825-0.48-1.659-0.75-2.469-0.26-0.81-0.54-1.612-0.84-2.406-0.28-0.75-0.56-1.483-0.88-2.219-0.01-0.043-0.04-0.081-0.06-0.125-0.35-0.829-0.7-1.659-1.09-2.468-0.34-0.706-0.73-1.405-1.1-2.094-0.38-0.729-0.77-1.446-1.18-2.156-0.01-0.013-0.03-0.02-0.03-0.032-0.15-0.248-0.29-0.504-0.44-0.75-0.11-0.181-0.23-0.351-0.35-0.531-0.36-0.585-0.74-1.147-1.12-1.719-0.03-0.038-0.04-0.086-0.06-0.125-0.25-0.368-0.5-0.731-0.75-1.093-0.29-0.405-0.58-0.822-0.88-1.219-0.2-0.273-0.42-0.544-0.62-0.813-0.07-0.083-0.13-0.167-0.19-0.25-0.44-0.556-0.89-1.085-1.35-1.625-0.01-0.017-0.01-0.045-0.03-0.062-0.46-0.553-0.95-1.091-1.43-1.625-0.08-0.082-0.15-0.169-0.22-0.25-0.57-0.614-1.13-1.224-1.72-1.813s-1.2-1.154-1.81-1.719c-3.33,2.005-3.35,5.209-3.35,8.407,0.13,1.057-0.815,1.186-1.435,1.406-5.099,1.809-8.516,1.228-9.219,8,0.155,1.414-1.226,1.493-1.718,1.625-3.852,1.031-7.063,3.745-10.094,7.5-4.563,0.696-8.868,1.082-13.063,1.156,4.095-4.663,6.629-9.638,5.563-15.312,12.537-1.68,23.639-6.582,25.937-11.719-0.216-0.413,0.06-1.181-1.469-0.719-6.362,6.438-16.049,8.88-25.374,9.375-0.233-0.578-0.504-1.156-0.813-1.75-1.203-1.926-4.05-4.377-5.625-4.375-0.105,0-0.22,0.009-0.312,0.032-2.181-0.072-8.345,2.475-9.626,5.187-3.275-0.523-6.029-1.167-7.937-1.781-16.756-5.394-10.795-12.393-1.406-16.406,8.557-3.6585,30.451-8.3992,50.843,5.781,1.375,0.698,1.455-0.079,1.438-0.657-3.626-3.339-7.536-5.789-11.562-7.562-6.44-2.4155-13.411-3.75-20.688-3.75zm-0.156,4.0938c-6.265,0-11.344,2.4762-11.344,5.5312s5.079,5.531,11.344,5.531,11.344-2.476,11.344-5.531-5.079-5.5312-11.344-5.5312zm0,2.9372c4.009,0,9.594,0.858,9.594,2.813s-5.585,2.281-9.594,2.281c-4.01,0-6.719-0.545-6.719-2.5s2.709-2.594,6.719-2.594zm-30.594,34.563c0.218-0.012,0.439-0.012,0.656,0,1.578,0.087,3.102,0.753,4,1.312,2.9,1.792,4.899,2.027,6.282,1.25v0.188c4.933,1,9.193,1.619,13.218,1.937-0.03,0.229-0.058,0.455-0.094,0.688-0.326,3.662,1.242,1.998,2.157,2.187,0.978-0.867,1.939-1.743,2.843-2.625,4.435,0.062,8.784-0.29,13.563-1-0.901,1.281-1.813,2.607-2.719,4.031-6.135,14.641,8.656,15.385,11.5,2.438,0.235-1.069,1.15-1.088,1.563-0.438,0.346,0.547-0.332,8.079,0.593,9.438,0.042,0.062,0.109,0.102,0.157,0.156-17.588,3.955-39.055,3.971-58.25-3.812l-0.281-0.844c-1.664-11.733,1.544-14.735,4.812-14.906zm73.03,6.5c0.73-0.183,1.67,0.839,2.66,2.062,0.55,0.71,1.06,1.419,1.56,2.125-1.74,1.031-3.63,2.033-5.66,2.969l0.22-4.094c0.21-2.045,0.65-2.92,1.22-3.062zm-89.155,26.031c2.581,1.79,5.229,3.419,7.937,4.844-3.955,0.126-7.548-0.236-7.937-4.844zm28.063,12.187c11.138,2.471,22.518,2.614,33.093,1.126,0.611,0.714,1.103,1.714,1.438,3.093l1.687,12.439c-14.553,2.93-28.757,1.85-41.406-2.03,0.071-0.05,0.146-0.08,0.219-0.13,4.843-1.86,7.676-8.881,4.969-14.498z" stroke="#000" stroke-miterlimit="4" stroke-dasharray="none" stroke-width="1" fill="none"/>
 <path id="path4056" fill="url(#radialGradient4148)" d="M64,5c-1.015,0-2.029,0.0115-3.031,0.0625-0.126,0.0064-0.25,0.0241-0.375,0.0313-0.878,0.0501-1.758,0.1305-2.625,0.2187-0.847,0.0867-1.696,0.1903-2.531,0.3125-0.388,0.0566-0.771,0.1234-1.157,0.1875-0.219,0.0365-0.438,0.0861-0.656,0.125-1.045,0.1862-2.068,0.3844-3.094,0.625-0.259,0.0607-0.524,0.0921-0.781,0.1563-0.365,0.0907-0.731,0.1837-1.094,0.2812-0.178,0.048-0.354,0.1066-0.531,0.1562-0.558,0.1559-1.105,0.3284-1.656,0.5-0.073,0.0227-0.147,0.0397-0.219,0.0626-0.85,0.2682-1.699,0.5697-2.531,0.875-0.538,0.1972-1.064,0.4126-1.594,0.625-0.456,0.1826-0.925,0.3688-1.375,0.5624-0.595,0.2558-1.166,0.5068-1.75,0.7808-0.388,0.183-0.773,0.373-1.156,0.563-0.195,0.097-0.4,0.182-0.594,0.281-0.454,0.232-0.897,0.476-1.344,0.719-0.677,0.368-1.37,0.762-2.031,1.156-0.011,0.011-0.02,0.021-0.031,0.031-5.539,5.021-2.796,11.05,8.344,16.657,3.633,1.829,7.784,2.956,12.156,3.531,2.091,4.868,3.537,9.377,3.312,14.969-3.82-0.237-7.699-0.68-11.75-1.344,0.911-1.877,1.297-4.625,1.563-7.594,0.161-2.952-3.265-2.227-5.063-1.031l-5.218,3.625c-3.659,0.994-3.679-0.792-2.75-2.437,2.484-2.63,4.236-3.097,6.218-4.219,1.213-1.045,0.238-1.607-1.937-1.625-7.795-0.065-11.487-7.443-13.938-13.906-0.148,0.132-0.29,0.272-0.437,0.406-0.522,0.474-1.027,0.976-1.532,1.468-0.338,0.331-0.669,0.662-1,1-0.066,0.069-0.152,0.119-0.218,0.188-0.056,0.048-0.105,0.103-0.156,0.156-0.373,0.389-0.732,0.789-1.094,1.188-0.392,0.431-0.777,0.869-1.156,1.312-0.284,0.331-0.568,0.663-0.844,1-0.154,0.188-0.318,0.373-0.469,0.563-0.213,0.257-0.422,0.518-0.625,0.781-0.151,0.195-0.289,0.396-0.438,0.594-0.031,0.041-0.062,0.083-0.093,0.125-0.094,0.124-0.189,0.249-0.281,0.375-0.308,0.418-0.61,0.855-0.907,1.281-0.691,0.994-1.338,1.994-1.969,3.031-0.425,0.7-0.853,1.407-1.25,2.125-0.062,0.114-0.125,0.229-0.187,0.344-0.041,0.073-0.085,0.145-0.125,0.219-0.045,0.083-0.081,0.167-0.125,0.25-1.259,2.366-2.3489,4.831-3.2812,7.375-0.0034,0.009,0.0033,0.022,0,0.031-0.6581,1.798-1.267,3.625-1.75,5.5-0.2297,0.889-0.4366,1.783-0.625,2.688,2.3157,1.951,4.2542,3.741,5.0002,6.124,0.581,4.378,0.325,9.103,0.031,13.813-2.2089-1.877-4.2962-3.884-6.2188-6.063,0.002,0.063-0.0021,0.125,0,0.188,0.0258,0.764,0.0702,1.525,0.125,2.281,0.0091,0.125,0.0216,0.251,0.0313,0.375,0.6687,0.834,1.3712,1.645,2.25,2.5,1.2016,1.169,2.4391,2.247,3.6875,3.313-0.064,1.031-0.139,2.076-0.187,3.093,0.439,3.867,2.984,5.401,3.687,7.5,0.739,2.526,0.458,5.042-0.375,7.563-1.118-0.878-2.2-1.795-3.25-2.719,0.301,0.613,0.616,1.211,0.938,1.813,0.065,0.123,0.12,0.252,0.187,0.375,0.259,0.476,0.541,0.938,0.813,1.406,0.276,0.478,0.554,0.968,0.843,1.438,0.064,0.103,0.123,0.209,0.188,0.312,0.366,0.584,0.739,1.148,1.125,1.719,0.472,0.698,0.937,1.386,1.437,2.062,0.045,0.061,0.08,0.128,0.125,0.188,0.018,0.023,0.045,0.039,0.063,0.062,0.065,0.082,0.124,0.167,0.187,0.25,0.45,0.599,0.935,1.169,1.406,1.749,0.076,0.09,0.143,0.19,0.219,0.28,0.023,0.03,0.039,0.07,0.063,0.1,0.164,0.19,0.333,0.39,0.5,0.59,0.403,0.47,0.832,0.95,1.25,1.41,0.597,0.65,1.217,1.3,1.844,1.93,0.036,0.04,0.057,0.09,0.093,0.13,0.078,0.08,0.172,0.14,0.25,0.22,0.593,0.58,1.196,1.16,1.813,1.72,0.663,0.6,1.341,1.2,2.031,1.78,0.034,0.03,0.06,0.06,0.094,0.09,0.233,0.19,0.487,0.35,0.719,0.53,0.148,0.12,0.287,0.26,0.437,0.38,0.112,0.09,0.226,0.19,0.344,0.28,0.994,0.77,2.019,1.48,3.062,2.19,0.665,0.45,1.317,0.89,2,1.31,0.124,0.08,0.251,0.14,0.375,0.22,0.766,0.46,1.525,0.91,2.313,1.34,0.06,0.03,0.127,0.06,0.187,0.1,0.042,0.02,0.085,0.04,0.125,0.06,0.188,0.1,0.373,0.21,0.563,0.31,0.611,0.32,1.22,0.64,1.844,0.94-2.009-3.27-2.639-6.25-1.032-8.75,13.236,4.71,29.037,6.67,45.5,3,3.398,5.17,8.681,1.06,10.25-3.03,5.487-2.02,11.024-4.69,16.504-8.16,0.07,0.27,0.13,0.53,0.22,0.81,0.18-0.22,0.35-0.46,0.53-0.68,0.17-0.23,0.36-0.437,0.53-0.661,0.11-0.148,0.23-0.288,0.34-0.438,0.23-0.306,0.43-0.626,0.66-0.937,0.52-0.733,1.04-1.493,1.53-2.25,0.01-0.012,0.02-0.019,0.03-0.032,0.12-0.19,0.25-0.37,0.38-0.562,0.18-0.298,0.37-0.604,0.56-0.906,0.11-0.186,0.23-0.376,0.34-0.563,0.38-0.643,0.74-1.279,1.1-1.937,0.19-0.353,0.37-0.706,0.56-1.063,0.25-0.489,0.51-0.971,0.75-1.469,0.01-0.02,0.02-0.041,0.03-0.062,0.4-0.839,0.76-1.704,1.12-2.562,0.32-0.74,0.63-1.465,0.91-2.219,0.05-0.146,0.1-0.292,0.16-0.438,0.29-0.802,0.58-1.619,0.84-2.437,0.03-0.103,0.06-0.21,0.09-0.313,0.02-0.04,0.02-0.084,0.04-0.125,0-0.032,0.02-0.062,0.03-0.094,0.03-0.093,0.06-0.187,0.09-0.281,0.13-0.422,0.26-0.854,0.38-1.281,0.09-0.34,0.19-0.689,0.28-1.031,0.05-0.228,0.1-0.459,0.15-0.688,0.04-0.144,0.06-0.292,0.1-0.437,0.05-0.242,0.12-0.479,0.18-0.719,0.05-0.188,0.09-0.374,0.13-0.563-6.64,4.977-14.73,8.672-12.69,21.032-5.12,2.986-10.322,5.366-15.499,7.216,0.168-4.639,0.225-9.763,0.594-13.31,0.116-1.117,0.415-1.992,0.844-2.719,0.081-0.027,0.169-0.035,0.25-0.062,12.031-4.077,21.711-10.701,27.341-17.563,0-0.011,0.03-0.019,0.03-0.031,0.04-0.28,0.07-0.562,0.1-0.844,0.05-0.516,0.08-1.042,0.12-1.562-5.74,6.123-13.15,10.983-21.53,14.531,0.24-2.218-0.24-3.987-0.56-6.562-0.35-0.49-0.996-0.362-1.595-0.438-3.524-0.445-8.662-2.121-12.437-5.219l-6.532,0.281c-6.867,0.281-10.33,3.84-12,9.126-0.442,3.311-2.442,6.762,1.063,9.687-9.344,0.354-18.832-0.578-27.844-2.906-2.236-1.536-5.326-2.662-9.437-3.031-5.209-2.011-10.167-4.512-14.719-7.563,0.004-0.033-0.005-0.06,0-0.094l2.187-9.125c0.232-2.487,3.272-4.13,6.063,0,2.327,4.052,3.917,8.105,7.093,12.156-0.085-2.218,0.256-4.437-0.437-6.656l-2.156-6.468c17.795,7.755,43.631,7.79,63.75,1.531,0.917,0.952,1.512,2.646,1.906,5.625,0.171,1.295,2.406,0.187,2.406,0.187,2.729-2.03,6.649-4.596,6.439-6.062l0.22-4.125c2.54-1.265,4.92-2.638,7.06-4.156,1.93,3.047,3.34,6.051,4.16,9,0.5,1.195,1.6,1.324,1.97-0.219l1.28-10.719c0.23-2.402,1.85-2.056,3.25-1.531-0.01-0.053-0.03-0.104-0.03-0.157-0.01-0.01,0-0.021,0-0.031-0.03-0.167-0.04-0.333-0.07-0.5-0.11-0.724-0.24-1.441-0.37-2.156-0.12-0.612-0.24-1.236-0.38-1.844-0.01-0.051-0.02-0.105-0.03-0.156-0.02-0.093-0.04-0.188-0.06-0.281-0.01-0.052-0.02-0.104-0.03-0.156-0.02-0.085-0.04-0.167-0.06-0.25-0.18-0.696-0.37-1.373-0.57-2.063-0.23-0.825-0.48-1.659-0.75-2.469-0.26-0.81-0.54-1.612-0.84-2.406-0.28-0.75-0.56-1.483-0.88-2.219-0.01-0.043-0.04-0.081-0.06-0.125-0.35-0.829-0.7-1.659-1.09-2.468-0.34-0.706-0.73-1.405-1.1-2.094-0.3-0.58-0.61-1.152-0.93-1.719-0.09-0.145-0.17-0.293-0.25-0.437-0.01-0.013-0.03-0.02-0.03-0.032-0.15-0.248-0.29-0.504-0.44-0.75-0.11-0.181-0.23-0.351-0.35-0.531-0.36-0.585-0.74-1.147-1.12-1.719-0.03-0.038-0.04-0.086-0.06-0.125-0.25-0.368-0.5-0.731-0.75-1.093-0.29-0.405-0.58-0.822-0.88-1.219-0.2-0.273-0.42-0.544-0.62-0.813-0.07-0.083-0.13-0.167-0.19-0.25-0.07-0.094-0.15-0.188-0.22-0.281-0.37-0.456-0.75-0.895-1.13-1.344-0.01-0.017-0.01-0.045-0.03-0.062-0.46-0.553-0.95-1.091-1.43-1.625-0.08-0.082-0.15-0.169-0.22-0.25-0.57-0.614-1.13-1.224-1.72-1.813s-1.2-1.154-1.81-1.719c-3.33,2.005-3.35,5.209-3.35,8.407,0.13,1.057-0.815,1.186-1.435,1.406-5.099,1.809-8.516,1.228-9.219,8,0.155,1.414-1.226,1.493-1.718,1.625-3.852,1.031-7.063,3.745-10.094,7.5-4.563,0.696-8.868,1.082-13.063,1.156,4.095-4.663,6.629-9.638,5.563-15.312,12.537-1.68,23.639-6.582,25.937-11.719-0.216-0.413,0.06-1.181-1.469-0.719-6.362,6.438-16.049,8.88-25.374,9.375-0.233-0.578-0.504-1.156-0.813-1.75-1.203-1.926-4.05-4.377-5.625-4.375-0.105,0-0.22,0.009-0.312,0.032-2.181-0.072-8.345,2.475-9.626,5.187-3.275-0.523-6.029-1.167-7.937-1.781-16.756-5.394-10.795-12.393-1.406-16.406,8.557-3.6585,30.451-8.3992,50.843,5.781,1.375,0.698,1.455-0.079,1.438-0.657-3.618-3.332-7.514-5.789-11.531-7.562-0.009-0.0035-0.022,0.0035-0.031,0-0.805-0.3019-1.617-0.5761-2.438-0.8438-1.642-0.5353-3.33-1.0139-5.031-1.4062-0.767-0.1768-1.535-0.3221-2.313-0.4688-0.084-0.0157-0.166-0.047-0.25-0.0624-0.175-0.0323-0.355-0.0631-0.531-0.0938-0.629-0.1097-1.271-0.1917-1.906-0.2812-0.271-0.0379-0.541-0.0596-0.813-0.0938-0.576-0.073-1.137-0.1626-1.718-0.2188-0.094-0.0089-0.188-0.0227-0.282-0.0312-0.258-0.0237-0.522-0.0422-0.781-0.0625-0.633-0.0495-1.268-0.0958-1.906-0.125-0.9-0.0412-1.809-0.0625-2.719-0.0625zm-0.156,4.0938c-6.265,0-11.344,2.4762-11.344,5.5312s5.079,5.531,11.344,5.531,11.344-2.476,11.344-5.531-5.079-5.5312-11.344-5.5312zm0,2.9372c4.009,0,9.594,0.858,9.594,2.813s-5.585,2.281-9.594,2.281c-4.01,0-6.719-0.545-6.719-2.5s2.709-2.594,6.719-2.594zm-30.594,34.563c0.218-0.012,0.439-0.012,0.656,0,1.578,0.087,3.102,0.753,4,1.312,2.9,1.792,4.899,2.027,6.282,1.25v0.188c4.933,1,9.193,1.619,13.218,1.937-0.03,0.229-0.058,0.455-0.094,0.688-0.326,3.662,1.242,1.998,2.157,2.187,0.978-0.867,1.939-1.743,2.843-2.625,4.435,0.062,8.784-0.29,13.563-1-0.901,1.281-1.813,2.607-2.719,4.031-6.135,14.641,8.656,15.385,11.5,2.438,0.235-1.069,1.15-1.088,1.563-0.438,0.346,0.547-0.332,8.079,0.593,9.438,0.042,0.062,0.109,0.102,0.157,0.156-17.588,3.955-39.055,3.971-58.25-3.812l-0.281-0.844c-1.664-11.733,1.544-14.735,4.812-14.906zm73.03,6.5c0.73-0.183,1.67,0.839,2.66,2.062,0.55,0.71,1.06,1.419,1.56,2.125-1.74,1.031-3.63,2.033-5.66,2.969l0.22-4.094c0.21-2.045,0.65-2.92,1.22-3.062zm-89.155,26.031c2.581,1.79,5.229,3.419,7.937,4.844-3.955,0.126-7.548-0.236-7.937-4.844zm28.063,12.187c11.138,2.471,22.518,2.614,33.093,1.126,0.611,0.714,1.103,1.714,1.438,3.093l1.687,12.439c-14.553,2.93-28.757,1.85-41.406-2.03,0.071-0.05,0.146-0.08,0.219-0.13,4.843-1.86,7.676-8.881,4.969-14.498z"/>
 <path id="path2555-7-1" opacity="0.7" stroke-linejoin="round" style="enable-background:accumulate;color:#000000;" d="m64,4.9985c-32.554,0-59,26.446-59,59s26.446,59,59,59,59-26.446,59-59c0-32.556-26.446-59.002-59-59.002z" stroke-dashoffset="0" stroke="#0b1728" stroke-linecap="round" stroke-miterlimit="4" stroke-dasharray="none" stroke-width="1" fill="none"/>
 <path id="path3019" opacity="0.3" stroke-linejoin="round" style="enable-background:accumulate;color:#000000;" d="m122,63.998c0,32.449-26.52,57.998-58,57.998-32.386,0-58.016-26.518-58.016-57.998,0-32.449,26.599-58.011,58.079-58.011s57.938,26.531,57.938,58.011z" stroke-dashoffset="0" stroke="url(#linearGradient3269)" stroke-linecap="round" stroke-miterlimit="4" stroke-dasharray="none" stroke-width="1" fill="none"/>
</svg>
