<?xml version="1.0" encoding="UTF-8" standalone="no"?>
<svg
   xmlns:dc="http://purl.org/dc/elements/1.1/"
   xmlns:cc="http://creativecommons.org/ns#"
   xmlns:rdf="http://www.w3.org/1999/02/22-rdf-syntax-ns#"
   xmlns:svg="http://www.w3.org/2000/svg"
   xmlns="http://www.w3.org/2000/svg"
   xmlns:xlink="http://www.w3.org/1999/xlink"
   xmlns:sodipodi="http://sodipodi.sourceforge.net/DTD/sodipodi-0.dtd"
   xmlns:inkscape="http://www.inkscape.org/namespaces/inkscape"
   id="svg2"
   height="128"
   width="128"
   version="1.1"
   viewBox="0 0 128 128"
   inkscape:version="0.48.4 r9939"
   sodipodi:docname="veracrypt.svg">
  <sodipodi:namedview
     pagecolor="#ffffff"
     bordercolor="#666666"
     borderopacity="1"
     objecttolerance="10"
     gridtolerance="10"
     guidetolerance="10"
     inkscape:pageopacity="0"
     inkscape:pageshadow="2"
     inkscape:window-width="1920"
     inkscape:window-height="1022"
     id="namedview66"
     showgrid="false"
     inkscape:zoom="14.75"
     inkscape:cx="77.088604"
     inkscape:cy="17.277092"
     inkscape:window-x="0"
     inkscape:window-y="30"
     inkscape:window-maximized="1"
     inkscape:current-layer="svg2" />
  <metadata
     id="metadata71">
    <rdf:RDF>
      <cc:Work
         rdf:about="">
        <dc:format>image/svg+xml</dc:format>
        <dc:type
           rdf:resource="http://purl.org/dc/dcmitype/StillImage" />
        <dc:title />
      </cc:Work>
    </rdf:RDF>
  </metadata>
  <defs
     id="defs4">
    <linearGradient
       id="f"
       x1="24"
       gradientUnits="userSpaceOnUse"
       y1="5.5907"
       gradientTransform="matrix(2.7297,0,0,2.7297,-1.5135,925.85)"
       x2="24"
       y2="42.262">
      <stop
         id="stop7"
         stop-color="#fff"
         offset="0" />
      <stop
         id="stop9"
         stop-color="#fff"
         stop-opacity=".23529"
         offset="0.037503" />
      <stop
         id="stop11"
         stop-color="#fff"
         stop-opacity=".15686"
         offset="0.96667" />
      <stop
         id="stop13"
         stop-color="#fff"
         stop-opacity=".39216"
         offset="1" />
    </linearGradient>
    <radialGradient
       id="d"
       xlink:href="#a"
       gradientUnits="userSpaceOnUse"
       cy="43.5"
       cx="4.993"
       gradientTransform="matrix(2.0038,0,0,1.4,27.988,-17.4)"
       r="2.5" />
    <linearGradient
       id="a">
      <stop
         id="stop22"
         stop-color="#181818"
         offset="0" />
      <stop
         id="stop24"
         stop-color="#181818"
         stop-opacity="0"
         offset="1" />
    </linearGradient>
    <radialGradient
       id="c"
       xlink:href="#a"
       gradientUnits="userSpaceOnUse"
       cy="43.5"
       cx="4.993"
       gradientTransform="matrix(2.0038,0,0,1.4,-20.012,-104.4)"
       r="2.5" />
    <linearGradient
       id="g"
       y2="39.999"
       gradientUnits="userSpaceOnUse"
       y1="47.028"
       x2="25.058"
       x1="25.058">
      <stop
         id="stop28"
         stop-color="#181818"
         stop-opacity="0"
         offset="0" />
      <stop
         id="stop30"
         stop-color="#181818"
         offset="0.5" />
      <stop
         id="stop32"
         stop-color="#181818"
         stop-opacity="0"
         offset="1" />
    </linearGradient>
    <linearGradient
       id="linearGradient3976"
       y2="42.262"
       xlink:href="#f"
       gradientUnits="userSpaceOnUse"
       x2="24"
       gradientTransform="matrix(2.7297,0,0,2.7297,21.113917,141.49714)"
       y1="5.5907"
       x1="24" />
    <radialGradient
       id="radialGradient4253"
       gradientUnits="userSpaceOnUse"
       cy="71.544"
       cx="-8.443"
       gradientTransform="matrix(7.8834218e-4,2.1355562,-2.0560491,7.6275607e-4,211.05513,30.486505)"
       r="63.287">
      <stop
         id="stop16"
         stop-color="#f0f0f0"
         offset="0" />
      <stop
         id="stop18"
         stop-color="#d7d7d7"
         offset="1" />
    </radialGradient>
    <linearGradient
       id="linearGradient4281"
       y2="119"
       xlink:href="#f"
       gradientUnits="userSpaceOnUse"
       x2="64"
       gradientTransform="matrix(1.0168067,0,0,1.0194175,-1.0756301,-3.3009709)"
       y1="15"
       x1="64" />
  </defs>
  <g
     id="g43"
     transform="matrix(1.8314079,0,0,0.55556,20.298107,94.94)">
    <g
       id="g45"
       opacity="0.4"
       transform="matrix(1.0526,0,0,1.2857,-1.2632,-13.429)">
      <rect
         id="rect47"
         height="7"
         width="5"
         y="40"
         x="38"
         fill="url(#d)" />
      <rect
         id="rect49"
         transform="scale(-1,-1)"
         height="7"
         width="5"
         y="-47"
         x="-10"
         fill="url(#c)" />
      <rect
         id="rect51"
         height="7"
         width="28"
         y="40"
         x="10"
         fill="url(#g)" />
    </g>
  </g>
  <path
     id="path3141"
     fill="url(#radialGradient4253)"
     d="M125,65,94.5,118,33.5,118,3,65,33.5,12,94.5,12z" />
  <path
     inkscape:connector-curvature="0"
     id="path3856"
     d="m 22.90625,37.28125 6.75,11.6875 6.75,11.6875 6.75,11.71875 6.75,11.6875 13.5,0 6.75,-11.6875 6.75,11.6875 13.5,0 13.53125,0 -6.78125,-11.6875 -13.5,0 -6.75,-11.6875 0,-0.03125 6.75,-11.6875 13.5,0 6.78125,-11.6875 -13.53125,0 -13.5,0 -6.75,11.6875 -6.75,11.6875 -6.75,11.71875 -6.75,-11.6875 0,-0.03125 -6.71875,-11.625 0.03125,-0.0625 -0.0625,0 -6.75,-11.6875 -13.5,0 z"
     style="opacity:0.14999999999999999;fill:#000000;fill-opacity:1;stroke:#000000;stroke-opacity:1;stroke-width:1.99999997999999990;stroke-miterlimit:4;stroke-dasharray:none;stroke-linejoin:round" />
  <path
     style="fill:#000000;fill-opacity:1;opacity:0.3"
     d="m 22.90625,36.28125 6.75,11.6875 6.75,11.6875 6.75,11.71875 6.75,11.6875 13.5,0 6.75,-11.6875 6.75,11.6875 13.5,0 13.53125,0 -6.78125,-11.6875 -13.5,0 -6.75,-11.6875 0,-0.03125 6.75,-11.6875 13.5,0 6.78125,-11.6875 -13.53125,0 -13.5,0 -6.75,11.6875 -6.75,11.6875 -6.75,11.71875 -6.75,-11.6875 0,-0.03125 -6.71875,-11.625 0.03125,-0.0625 -0.0625,0 -6.75,-11.6875 -13.5,0 z"
     id="path3043"
     inkscape:connector-curvature="0" />
  <rect
     id="rect55"
     stroke-linejoin="round"
     rx="4"
     ry="4"
     height="101"
     width="101"
     stroke="url(#linearGradient3976)"
     stroke-linecap="round"
     y="156.51"
     x="36.127"
     fill="none" />
  <path
     id="path3913"
     transform="matrix(0.80330075,0,0,0.80327661,114.4782,44.039596)"
     fill="#278768"
     d="m-29.948,47.328-16.808,0,8.404-14.556z" />
  <path
     id="path3919"
     transform="matrix(0.80330057,0,0,0.80327642,127.98001,44.039605)"
     d="m-29.948,47.328-16.808,0,8.404-14.556z"
     fill="#2bac8f" />
  <path
     id="path3921"
     transform="matrix(0.80326795,0,0,0.8032438,107.72577,32.348234)"
     fill="#2f9f81"
     d="m-29.948,47.328-16.808,0,8.404-14.556z" />
  <path
     id="path3923"
     transform="matrix(0.80326834,0,0,0.80324419,100.97488,20.655302)"
     d="m-29.948,47.328-16.808,0,8.404-14.556z"
     fill="#33b394" />
  <path
     id="path3925"
     transform="matrix(0.8032925,0,0,0.80326836,94.225101,32.347072)"
     fill="#2da4ad"
     d="m-29.948,47.328-16.808,0,8.404-14.556z" />
  <path
     id="path3927"
     transform="matrix(0.80330055,0,0,0.80327641,87.47457,44.039605)"
     d="m-29.948,47.328-16.808,0,8.404-14.556z"
     fill="#0d657a" />
  <path
     id="path3929"
     transform="matrix(0.8032684,0,0,0.80324424,80.72216,32.348213)"
     fill="#2077bc"
     d="m-29.948,47.328-16.808,0,8.404-14.556z" />
  <path
     id="path3931"
     transform="matrix(0.80330055,0,0,0.8032764,73.972757,20.653778)"
     d="m-29.948,47.328-16.808,0,8.404-14.556z"
     fill="#238dcd" />
  <path
     id="path3933"
     d="m43.164,46.978-13.501,0,6.7507-11.692z"
     stroke-miterlimit="4"
     stroke-width="0"
     fill="#0ea6d3" />
  <path
     id="path3935"
     transform="matrix(0.80326792,0,0,0.80324376,107.72577,8.96241)"
     d="m-29.948,47.328-16.808,0,8.404-14.556z"
     fill="#52b99b" />
  <path
     id="path3937"
     transform="matrix(0.80330066,0,0,0.80327651,121.22911,8.9608601)"
     fill="#85c8b1"
     d="m-29.948,47.328-16.808,0,8.404-14.556z" />
  <path
     id="path3939"
     transform="matrix(0.80326832,0,0,-0.80324417,121.22759,108.38027)"
     fill="#2e997c"
     d="m-29.948,47.328-16.808,0,8.404-14.556z" />
  <path
     id="path3941"
     transform="matrix(0.80326836,0,0,-0.8032442,107.72578,108.38028)"
     d="m-29.948,47.328-16.808,0,8.404-14.556z"
     fill="#2a8d70" />
  <path
     id="path3943"
     transform="matrix(0.80326837,0,0,-0.80324421,100.97488,96.687364)"
     fill="#21674f"
     d="m-29.948,47.328-16.808,0,8.404-14.556z" />
  <path
     id="path3945"
     transform="matrix(0.8032679,0,0,-0.80324375,107.72576,84.994428)"
     d="m-29.948,47.328-16.808,0,8.404-14.556z"
     fill="#44b799" />
  <path
     id="path3947"
     transform="matrix(0.80326895,0,0,-0.8032448,114.47671,73.301564)"
     fill="#6bbfa4"
     d="m-29.948,47.328-16.808,0,8.404-14.556z" />
  <path
     id="path3949"
     transform="matrix(0.8032684,0,0,-0.80324425,127.97851,73.301538)"
     d="m-29.948,47.328-16.808,0,8.404-14.556z"
     fill="#96cfba" />
  <path
     id="path3951"
     transform="matrix(0.80331701,0,0,-0.80329285,94.226246,108.38257)"
     fill="#2f98af"
     d="m-29.948,47.328-16.808,0,8.404-14.556z" />
  <path
     id="path3953"
     transform="matrix(0.80330067,0,0,-0.80327652,80.723669,108.3818)"
     d="m-29.948,47.328-16.808,0,8.404-14.556z"
     fill="#2a69b1" />
  <path
     id="path3955"
     transform="matrix(0.80329249,0,0,-0.80326834,73.972379,96.688506)"
     fill="#2886c7"
     d="m-29.948,47.328-16.808,0,8.404-14.556z" />
  <path
     id="path3957"
     transform="matrix(0.80566217,0,0,-0.80563795,67.332268,85.10774)"
     d="m-29.948,47.328-16.808,0,8.404-14.556z"
     fill="#1a9cd1" />
  <path
     id="path3959"
     d="m36.414,35.286-13.501,0,6.7507,11.692z"
     stroke-miterlimit="4"
     stroke-width="0"
     fill="#08abd8" />
  <path
     style="font-size:24px;font-style:normal;font-variant:normal;font-weight:normal;font-stretch:normal;line-height:125%;letter-spacing:0px;word-spacing:0px;fill:#000000;font-family:DejaVu Sans"
     d="M 69.4375 89.34375 C 68.35466 89.343761 67.395826 89.570064 66.59375 90.03125 C 65.796646 90.49248 65.176107 91.147797 64.75 92 C 64.328898 92.85217 64.124999 93.83586 64.125 94.96875 C 64.125 96.77847 64.560217 98.173697 65.4375 99.15625 C 66.3197 100.13876 67.5683 100.625 69.1875 100.625 C 70.30543 100.625 71.269258 100.50449 72.03125 100.21875 L 72.03125 99.09375 C 71.04873 99.369476 70.173236 99.500002 69.40625 99.5 C 68.15797 99.5 67.176753 99.125784 66.5 98.34375 C 65.828252 97.5567 65.499997 96.43869 65.5 95 C 65.5 93.60135 65.865683 92.489587 66.5625 91.6875 C 67.2643 90.880397 68.19812 90.46876 69.40625 90.46875 C 70.2384 90.468761 71.074078 90.671494 71.90625 91.0625 L 72.4375 89.96875 C 71.57532 89.54767 70.59052 89.343761 69.4375 89.34375 z M 27.78125 89.5 L 31.5 100.5 L 34.03125 100.5 L 37.78125 89.5 L 35.4375 89.5 L 33.34375 96.03125 C 33.022902 97.18427 32.83639 98.007553 32.78125 98.46875 C 32.751176 98.268231 32.656573 97.886335 32.53125 97.375 C 32.410932 96.858627 32.302791 96.417262 32.1875 96.03125 L 30.125 89.5 L 27.78125 89.5 z M 98.34375 90.34375 L 97.8125 92.09375 L 96.625 92.625 L 96.625 93.21875 L 97.8125 93.21875 L 97.8125 98.125 C 97.8125 99.804326 98.624628 100.625 100.21875 100.625 C 100.42929 100.625 100.64557 100.6076 100.90625 100.5625 C 101.17194 100.52239 101.36465 100.47145 101.5 100.40625 L 101.5 99.46875 C 101.37969 99.50384 101.23677 99.52741 101.03125 99.5625 C 100.82571 99.59258 100.59558 99.593752 100.375 99.59375 C 99.963917 99.593761 99.641859 99.484444 99.40625 99.21875 C 99.17063 98.953023 99.062497 98.558787 99.0625 98.0625 L 99.0625 93.21875 L 101.46875 93.21875 L 101.46875 92.25 L 99.0625 92.25 L 99.0625 90.34375 L 98.34375 90.34375 z M 42.46875 91.90625 C 41.22553 91.90625 40.238088 92.321748 39.53125 93.09375 C 38.829428 93.86078 38.468749 94.93509 38.46875 96.34375 C 38.46875 97.71237 38.863019 98.784306 39.625 99.53125 C 40.38697 100.27824 41.4277 100.625 42.78125 100.625 C 43.437972 100.625 44.012558 100.60026 44.46875 100.5 C 44.924876 100.40475 45.348951 100.23177 45.75 100.03125 L 45.75 98.28125 C 45.258674 98.511854 44.794915 98.67598 44.34375 98.78125 C 43.89253 98.886525 43.412558 98.937503 42.90625 98.9375 C 42.254511 98.9375 41.735932 98.740948 41.375 98.375 C 41.014057 98.00903 40.83756 97.495445 40.8125 96.84375 L 46.21875 96.84375 L 46.21875 95.75 C 46.21875 94.55694 45.880466 93.614264 45.21875 92.9375 C 44.55699 92.260747 43.65686 91.906259 42.46875 91.90625 z M 52.78125 91.90625 C 52.259927 91.90625 51.789899 92.052998 51.34375 92.34375 C 50.902606 92.629475 50.541928 93.028782 50.28125 93.5 L 50.1875 93.5 L 49.84375 92.09375 L 48.09375 92.09375 L 48.09375 100.5 L 50.40625 100.5 L 50.40625 96.21875 C 50.40625 95.542052 50.593946 95.00098 51 94.625 C 51.41107 94.24902 51.986843 94.062507 52.71875 94.0625 C 52.984444 94.06251 53.220757 94.07487 53.40625 94.125 L 53.5625 92 C 53.356965 91.9549 53.092055 91.906259 52.78125 91.90625 z M 58.5625 91.90625 C 57.3844 91.906261 56.311266 92.149942 55.34375 92.65625 L 56.09375 94.21875 C 57.00103 93.812707 57.797002 93.593757 58.46875 93.59375 C 59.341061 93.59375 59.781243 94.022797 59.78125 94.875 L 59.78125 95.25 L 58.3125 95.3125 C 57.05421 95.357622 56.126626 95.573893 55.5 96 C 54.878379 96.42108 54.562499 97.076441 54.5625 97.96875 C 54.5625 98.82092 54.788803 99.476303 55.25 99.9375 C 55.71618 100.39869 56.349147 100.625 57.15625 100.625 C 57.812928 100.625 58.343946 100.52923 58.75 100.34375 C 59.161048 100.15326 59.551488 99.830016 59.9375 99.34375 L 60 99.34375 L 60.4375 100.5 L 62.0625 100.5 L 62.0625 94.875 C 62.062489 93.87246 61.757807 93.147532 61.15625 92.65625 C 60.55466 92.16499 59.69044 91.906259 58.5625 91.90625 z M 78 92.09375 C 77.483649 92.09375 76.993612 92.240498 76.5625 92.53125 C 76.131355 92.82198 75.774539 93.244868 75.46875 93.78125 L 75.40625 93.78125 L 75.25 92.25 L 74.21875 92.25 L 74.21875 100.5 L 75.46875 100.5 L 75.46875 96.0625 C 75.46875 95.25532 75.716271 94.572659 76.1875 94.03125 C 76.66369 93.489852 77.239518 93.218757 77.90625 93.21875 C 78.166917 93.218761 78.47161 93.26857 78.8125 93.34375 L 78.96875 92.1875 C 78.677987 92.12735 78.365948 92.093759 78 92.09375 z M 92.125 92.09375 C 91.57357 92.093761 91.082357 92.205742 90.65625 92.40625 C 90.230088 92.60678 89.852076 92.923835 89.53125 93.375 L 89.46875 93.375 L 89.28125 92.25 L 88.28125 92.25 L 88.28125 104.1875 L 89.53125 104.1875 L 89.53125 100.78125 C 89.53125 100.35017 89.49766 99.91875 89.4375 99.4375 L 89.53125 99.4375 C 89.832012 99.848559 90.183856 100.14323 90.625 100.34375 C 91.071105 100.53921 91.588607 100.625 92.125 100.625 C 93.19783 100.625 94.023432 100.2782 94.625 99.53125 C 95.231573 98.77929 95.531241 97.6973 95.53125 96.34375 C 95.531239 94.99526 95.221541 93.965694 94.625 93.21875 C 94.03342 92.471773 93.217828 92.093759 92.125 92.09375 z M 79.21875 92.25 L 82.53125 100.53125 L 82.0625 101.71875 C 81.69653 102.68125 81.10723 103.15625 80.25 103.15625 C 80.24977 103.68928 80.23391 103.63938 80.25 104.1875 C 80.93178 104.1875 81.690037 103.98477 82.15625 103.59375 C 82.627479 103.20776 83.055339 102.55241 83.40625 101.625 L 86.9375 92.25 L 85.59375 92.25 C 84.440719 95.43824 83.77304 97.34714 83.5625 97.96875 C 83.356965 98.58541 83.22141 99.025588 83.15625 99.28125 L 83.09375 99.28125 C 82.998501 98.80506 82.739772 98.010286 82.34375 96.9375 L 80.5625 92.25 L 79.21875 92.25 z M 91.9375 93.15625 C 92.669374 93.15625 93.223951 93.44857 93.625 94 C 94.031043 94.54648 94.249992 95.316086 94.25 96.34375 C 94.249989 97.35641 94.031043 98.142251 93.625 98.71875 C 93.22394 99.295249 92.680593 99.593752 91.96875 99.59375 C 91.116503 99.59375 90.479751 99.340037 90.09375 98.84375 C 89.707738 98.34248 89.531248 97.53297 89.53125 96.375 L 89.53125 96.09375 C 89.541271 95.07614 89.71777 94.309963 90.09375 93.84375 C 90.46973 93.377548 91.095307 93.156258 91.9375 93.15625 z M 42.46875 93.5625 C 42.954972 93.562511 43.339253 93.720445 43.625 94.03125 C 43.910736 94.337105 44.05249 94.746033 44.0625 95.3125 L 40.84375 95.3125 C 40.883845 94.745978 41.036785 94.33705 41.3125 94.03125 C 41.588248 93.720445 41.982484 93.562507 42.46875 93.5625 z M 59.78125 96.59375 L 59.78125 97.28125 C 59.781239 97.787547 59.602076 98.194211 59.28125 98.5 C 58.965396 98.805789 58.562627 98.968753 58.03125 98.96875 C 57.289344 98.96875 56.906248 98.646679 56.90625 98 C 56.90625 97.548824 57.080397 97.189322 57.40625 96.96875 C 57.73207 96.748189 58.208268 96.64505 58.875 96.625 L 59.78125 96.59375 z "
     id="path4196" />
  <path
     id="path4269"
     opacity="0.25"
     d="M125.5,65,94.75,118.5,33.25,118.5,2.5,65,33.25,11.5h61.5z"
     stroke="#000"
     stroke-width="1"
     fill="none" />
  <path
     id="path4273"
     d="M124.5,65,94.25,117.5,33.75,117.5,3.5,65,33.75,12.5h60.5z"
     stroke="url(#linearGradient4281)"
     stroke-width="1"
     fill="none" />
</svg>
